<svg xmlns="http://www.w3.org/2000/svg" width="200" height="200"><path fill="#ccc" d="M0 0h200v200H0z"/><path d="M185.5 100c0-11.671 5.718-22.001 14.5-28.36V54.067A34.84 34.84 0 0 1 180.5 60c-19.33 0-35-15.67-35-35 0-9.796 4.029-18.647 10.515-25H124.32c6.485 6.353 10.515 15.204 10.515 25 0 19.33-15.67 35-35 35s-35-15.67-35-35c0-9.796 4.029-18.647 10.515-25H43.985C50.471 6.353 54.5 15.204 54.5 25c0 19.33-15.67 35-35 35A34.842 34.842 0 0 1 0 54.067V71.64C8.782 77.999 14.5 88.329 14.5 100c0 11.672-5.718 22.001-14.5 28.36v16.806A34.83 34.83 0 0 1 19.834 139c19.33 0 35 15.67 35 35 0 10.32-4.468 19.594-11.573 26h33.812c-7.105-6.406-11.573-15.68-11.573-26 0-19.33 15.67-35 35-35s35 15.67 35 35c0 10.32-4.469 19.594-11.573 26h33.146c-7.104-6.406-11.573-15.68-11.573-26 0-19.33 15.67-35 35-35 7.22 0 13.928 2.188 19.5 5.934V128.36c-8.782-6.359-14.5-16.688-14.5-28.36zM59.833 135c-19.33 0-35-15.67-35-35s15.67-35 35-35 35 15.67 35 35-15.669 35-35 35zm80.667 0c-19.33 0-35-15.67-35-35s15.67-35 35-35 35 15.67 35 35-15.67 35-35 35z" fill="none"/><circle cx="59.833" cy="100" r="35" fill="gray"/><circle cx="140.5" cy="100" r="35" fill="gray"/><path d="M185.5 100c0 11.672 5.718 22.001 14.5 28.36V71.64c-8.782 6.359-14.5 16.689-14.5 28.36zm-171 0c0-11.671-5.718-22.001-14.5-28.36v56.721c8.782-6.36 14.5-16.689 14.5-28.361zm40.334 74c0-19.33-15.67-35-35-35A34.83 34.83 0 0 0 0 145.166V200h43.261c7.105-6.406 11.573-15.68 11.573-26zm80.666 0c0-19.33-15.67-35-35-35s-35 15.67-35 35c0 10.32 4.468 19.594 11.573 26h46.854c7.104-6.406 11.573-15.68 11.573-26zm10 0c0 10.32 4.469 19.594 11.573 26H200v-55.066A34.832 34.832 0 0 0 180.5 139c-19.33 0-35 15.67-35 35zM64.834 25c0 19.33 15.67 35 35 35s35-15.67 35-35c0-9.796-4.029-18.647-10.515-25h-48.97c-6.486 6.353-10.515 15.204-10.515 25zm80.666 0c0 19.33 15.67 35 35 35a34.84 34.84 0 0 0 19.5-5.933V0h-43.985C149.529 6.353 145.5 15.204 145.5 25zm-91 0c0-9.796-4.029-18.647-10.515-25H0v54.067A34.842 34.842 0 0 0 19.5 60c19.33 0 35-15.67 35-35z" fill="gray"/></svg>