<svg xmlns="http://www.w3.org/2000/svg" xmlns:xlink="http://www.w3.org/1999/xlink" version="1.1" id="Layer_1" x="0px" y="0px" width="200px" height="200px" viewBox="0 0 200 200" style="enable-background:new 0 0 200 200;" xml:space="preserve">
<rect style="fill:#CCCCCC;" width="200" height="200"/>
<g>
	<path style="fill:none;" d="M185.5,100c0-11.671,5.718-22.001,14.5-28.36V54.067C194.428,57.812,187.72,60,180.5,60   c-19.33,0-35-15.67-35-35c0-9.796,4.029-18.647,10.515-25h-31.695c6.485,6.353,10.515,15.204,10.515,25c0,19.33-15.67,35-35,35   s-35-15.67-35-35c0-9.796,4.029-18.647,10.515-25H43.985C50.471,6.353,54.5,15.204,54.5,25c0,19.33-15.67,35-35,35   C12.28,60,5.573,57.812,0,54.067V71.64C8.782,77.999,14.5,88.329,14.5,100c0,11.672-5.718,22.001-14.5,28.36v16.806   C5.638,141.28,12.469,139,19.834,139c19.33,0,35,15.67,35,35c0,10.32-4.468,19.594-11.573,26h33.812   c-7.105-6.406-11.573-15.68-11.573-26c0-19.33,15.67-35,35-35s35,15.67,35,35c0,10.32-4.469,19.594-11.573,26h33.146   c-7.104-6.406-11.573-15.68-11.573-26c0-19.33,15.67-35,35-35c7.22,0,13.928,2.188,19.5,5.934V128.36   C191.218,122.001,185.5,111.672,185.5,100z M59.833,135c-19.33,0-35-15.67-35-35s15.67-35,35-35s35,15.67,35,35   S79.164,135,59.833,135z M140.5,135c-19.33,0-35-15.67-35-35s15.67-35,35-35s35,15.67,35,35S159.83,135,140.5,135z"/>
	<circle style="fill:#808080;" cx="59.833" cy="100" r="35"/>
	<circle style="fill:#808080;" cx="140.5" cy="100" r="35"/>
	<path style="fill:#808080;" d="M185.5,100c0,11.672,5.718,22.001,14.5,28.36V71.64C191.218,77.999,185.5,88.329,185.5,100z"/>
	<path style="fill:#808080;" d="M14.5,100c0-11.671-5.718-22.001-14.5-28.36v56.721C8.782,122.001,14.5,111.672,14.5,100z"/>
	<path style="fill:#808080;" d="M54.834,174c0-19.33-15.67-35-35-35c-7.365,0-14.196,2.28-19.834,6.166V200h43.261   C50.366,193.594,54.834,184.32,54.834,174z"/>
	<path style="fill:#808080;" d="M135.5,174c0-19.33-15.67-35-35-35s-35,15.67-35,35c0,10.32,4.468,19.594,11.573,26h46.854   C131.031,193.594,135.5,184.32,135.5,174z"/>
	<path style="fill:#808080;" d="M145.5,174c0,10.32,4.469,19.594,11.573,26H200v-55.066c-5.572-3.746-12.28-5.934-19.5-5.934   C161.17,139,145.5,154.67,145.5,174z"/>
	<path style="fill:#808080;" d="M64.834,25c0,19.33,15.67,35,35,35s35-15.67,35-35c0-9.796-4.029-18.647-10.515-25H75.349   C68.863,6.353,64.834,15.204,64.834,25z"/>
	<path style="fill:#808080;" d="M145.5,25c0,19.33,15.67,35,35,35c7.22,0,13.928-2.188,19.5-5.933V0h-43.985   C149.529,6.353,145.5,15.204,145.5,25z"/>
	<path style="fill:#808080;" d="M54.5,25c0-9.796-4.029-18.647-10.515-25H0v54.067C5.573,57.812,12.28,60,19.5,60   C38.83,60,54.5,44.33,54.5,25z"/>
</g>
<g>
</g>
<g>
</g>
<g>
</g>
<g>
</g>
<g>
</g>
<g>
</g>
<g>
</g>
<g>
</g>
<g>
</g>
<g>
</g>
<g>
</g>
<g>
</g>
<g>
</g>
<g>
</g>
<g>
</g>
</svg>