<svg xmlns="http://www.w3.org/2000/svg" viewBox="0 0 501.1 499.95"><defs><style>.cls-2{fill:#fff}</style></defs><g id="Lager_2" data-name="Lager 2"><g id="layer"><path d="M250.5 60.7a188.9 188.9 0 0 0 0 377.8c104.3 0 188.9-84.6 188.9-188.9S354.8 60.7 250.5 60.7" fill="#12a237"/><path class="cls-2" d="M115.2 419.3c8.6 6.7 10.8 16.4 3.8 25.3-6.7 8.5-17.3 8.7-25.5 2.3a36 36 0 0 1-7.4-7.7l3.8-4.3a21.09 21.09 0 0 0 5.7 6.9c5.9 4.6 12.6 3.9 17.2-2 4.2-5.3 4.8-11.7-1-16.2a15.35 15.35 0 0 0-4.7-2.6l-4.5 5.7 3.5 2.8-3.1 3.9-8.8-6.9 10.1-12.9a33.4 33.4 0 0 1 10.9 5.7m-20-17.1l-25.3 22.6-5-5.6 20.8-18.6-9.7-10.9 4.5-4 14.7 16.5zm-27.5-36c5.8 9.2 3 17.8-5.9 23.4-8.7 5.5-18 4.3-23.7-4.7-5.8-9.2-3.1-17.8 5.9-23.5 8.8-5.6 18-4.3 23.7 4.8m-25.1 15.9c3.5 5.6 10.4 3.8 15.1.8s9.2-8.4 5.7-14-10.3-3.9-15.1-.9-9.4 8.4-5.7 14.1m6.4-51.4l4.6 11.5L22 354.8l-5.1-12.9c-2.1-5.2-2.4-11.1 3.7-13.5 4-1.6 7.5-.2 9.9 3.3-.9-4.2.4-8.3 4.7-10 7.4-3 11.4 2.8 13.8 9m-26.9 11.7l1.6 3.9 9-3.6-1.3-3.4c-1.2-3.1-3.5-5.9-7.2-4.4-3.3 1.4-3.2 4.7-2.1 7.5m13.5-4.3l1.2 3 9.9-3.9-1.3-3.3c-1.3-3.2-3.7-6.6-7.6-5-4.4 1.7-3.6 5.8-2.2 9.2m.5-54.3l-7.8 4.6 2.9 14.2 8.9 1.3 1.5 7.3-35.9-6-2-9.7 30.8-19.4zM9.5 299.5l16.4 2.6-2.2-11.1zm24.7-33.8l-34 .8L0 259l28-.7-.4-14.6 6-.1.6 22.1zm7.4-70.4c-2.8 10.5-11 14.3-21.2 11.6-10-2.7-15.4-10.3-12.7-20.6 2.8-10.5 11-14.4 21.2-11.7s15.5 10.4 12.7 20.7m-28.8-7.6c-1.7 6.4 4.3 10.2 9.6 11.6s12.4 1 14.1-5.3c1.7-6.5-4.1-10.2-9.6-11.7s-12.3-1.2-14.1 5.4M58 151.1l-10.3-1c-3.5-.4-4.7-.1-6.4 3.2l-1.2 2.5 12.7 6.1-3.2 6.7-30.7-14.7 6-12.5c2.5-5.2 7-9.5 13.1-6.5 4.2 2 5.3 6.4 4 10.6 1.9-2.5 3.8-3 6.9-2.7l12.4 1.1zm-29.7-5l-1.6 3.3 8.9 4.3 1.5-3.1c1.5-3.1 2.1-6.8-1.5-8.6s-5.7.8-7.3 4.1m48.9-24.3c-6.4 8.8-16 11.3-25.1 4.8-8.7-6.3-9.3-17-3.2-25.4a35.59 35.59 0 0 1 7.4-7.6l4.4 3.6a19 19 0 0 0-6.6 6c-4.4 6.1-3.4 12.7 2.6 17.1 5.5 4 11.9 4.3 16.2-1.6a14.44 14.44 0 0 0 2.4-4.8l-5.9-4.3-2.6 3.6-4-2.9 6.6-9.1 13.3 9.6a37.82 37.82 0 0 1-5.5 11m32.6-36l-8-4.2-10.6 9.9 3.6 8.3-5.4 5.1-13.8-33.7 7.2-6.8 32.7 15.9zM82.4 71.4l6.4 15.3 8.3-7.8zm57.3-6.8l-25.3-16.9 14.7 23.5-5.7 3.6-17.9-28.9 9.3-5.8 25.4 17-14.7-23.7 5.7-3.5 17.9 28.9-9.4 5.8zM162.2 53l-13.4-31.3 7-3L169.1 50l-6.9 3zm36.3-12c-10.6 2.9-19.6-1.1-22.6-12-2.8-10.3 3.3-19.1 13.3-21.8a35.4 35.4 0 0 1 8.5-1.1l1.2 5.5a19 19 0 0 0-7.1.5c-7 1.9-10.1 7.9-8.3 14.7 1.9 7 7.3 10.5 14.5 8.5a17.84 17.84 0 0 0 6.6-3.3l1.7 5.2a19.61 19.61 0 0 1-7.8 3.8m60.8-34.6l-.7 28-7.6-.2.7-28L241 6l.2-6 28.9.6-.2 6.1-10.6-.3zm20 29.5l6.1-33.4 21.8 3.9-1 5.2-14.5-2.7-1.6 8.8 13.9 2.5-1 5.1-13.8-2.6-1.7 9.4 14.9 2.7-.9 5.1-22.2-4zm53.9 14.6L330 34.6l-13 9.9-7.7-2.9 17.8-12.3-4.8-19.1 8.1 3 3 14.3 11.5-9 7.5 2.8-16.2 11.4 5.4 20.8-8.4-3zm41.7-10.3L361 64.5l-6.6-3.8 13.9-24.2-9.2-5.3L362 26l25.1 14.3-3 5.2-9.2-5.3z"/><path class="cls-2" transform="rotate(-52.75 391.681 64.81)" d="M374.69 61.06h34v7.5h-34z"/><path class="cls-2" d="M396.5 90.6l24-24 5.4 5.3-19.8 19.8 10.4 10.3-4.3 4.3-15.7-15.7zm22 23.2l27.3-20.2 13.2 17.8-4.2 3.1-8.8-11.9-7.1 5.3 8.3 11.3-4.1 3.1-8.4-11.3-7.6 5.6 9 12.3-4.2 3.1-13.4-18.2zm33.9 60.1a36.61 36.61 0 0 1-2.3-10.3l5.5-1.8a21 21 0 0 0 1.4 9.6c1.1 3 3.3 5.7 6.7 4.5 2.4-.9 2.5-4.8 2.6-7.4l.2-3.8c.2-4.4 1.4-8 5.8-9.6 6.9-2.6 11.8 3.7 13.9 9.5a34.31 34.31 0 0 1 2 8.4l-5.3 1.7a21.6 21.6 0 0 0-1.4-7.9c-1-2.6-3.1-6-6.3-4.8-2.2.8-2.3 4-2.4 6.4l-.1 3.9c-.1 4.8-1.1 8.7-6.1 10.6-6.8 2.6-11.9-2.7-14.2-9m38.4 31.4l-27.4 5.6-1.5-7.4 27.4-5.6-2.1-10.5 5.8-1.2 5.8 28.3-5.9 1.2-2.1-10.4zm-23.5 48.3l8.4-3.3-.5-14.4-8.6-2.8-.2-7.4 34.4 11.8.3 9.9-33.5 14.1zm28.8-11.1l-15.7-5.2.4 11.4zm-32.5 47.3l29.4-7.9-27.4-4.4 1-6.6 33.6 5.4-1.8 10.9-29.4 8 27.4 4.4-1.1 6.6-33.5-5.4 1.8-11zm-9.6 35.3l4-10.7 31.8 12.1-4.5 11.8c-3.9 10.3-11.6 14.1-22 10.2-10.8-4.2-13.2-13-9.3-23.4m26.9 10.2l1.4-3.7-22.1-8.4-1 2.6c-2.7 7.2-.4 12.3 6.9 15.1 6.4 2.5 12.2 1.2 14.8-5.6m-50.2 36.1l8.8 1.8 7.5-12.4-5.7-7 3.8-6.4 22.4 28.7-5.1 8.5-35.8-6.5zm30.2 6.4l-10.3-13-5.9 9.7zm-52.5 21.4l9.6 3.8c3.3 1.3 4.5 1.4 7-1.4l1.8-2.1-10.6-9.3 4.9-5.5 25.5 22.5-9.2 10.4c-3.8 4.4-9.3 7.2-14.4 2.7-3.5-3.1-3.3-7.6-1-11.3-2.5 1.9-4.5 1.8-7.4.7l-11.7-4.4zm27.2 12.9l2.4-2.7-7.4-6.5-2.3 2.6c-2.3 2.6-3.9 6-.9 8.7 3.1 2.5 5.8.6 8.2-2.1m-49.1 7.3l9-7.1 21 26.7-9.9 7.8c-8.6 6.8-17.2 6.2-24.1-2.6-7.1-9.1-4.7-17.9 4-24.8m17.8 22.6l3.1-2.4-14.6-18.5-2.2 1.7c-6.1 4.8-6.7 10.3-1.9 16.5 4.3 5.3 10 7.2 15.6 2.7M192 493.6c-10.6-2.7-16.6-10.7-13.8-21.7 2.6-10.5 12.3-15.1 22.5-12.5a35.74 35.74 0 0 1 9.9 4.1l-1.7 5.5a20.8 20.8 0 0 0-8-4c-7.3-1.8-13.2 1.6-15 8.9-1.7 6.6.4 12.7 7.5 14.5a14 14 0 0 0 5.4.5l1.8-7.1-4.4-1.1 1.2-4.8 10.9 2.7-4 16a36.23 36.23 0 0 1-12.3-1m42.4 6.3c-10.8-.7-16.1-7.9-15.4-18.5.7-10.3 7.1-17 17.7-16.3 10.8.7 16.2 7.9 15.5 18.5-.8 10.4-7.2 17-17.8 16.3m1.8-29.5c-6.6-.4-9.1 6.2-9.5 11.6s1.4 12.3 7.9 12.8c6.7.4 9.2-6 9.5-11.6.5-5.7-1.1-12.4-7.9-12.8m40.6 1l2.8 27.7-7.5.8-2.8-27.7-10.5 1-.6-6 28.6-2.8.6 5.9-10.6 1.1zm36.1 22.3a32.05 32.05 0 0 1-10.2 1.2l-1.2-5.5a20.33 20.33 0 0 0 9.5-.4c3-.8 5.9-2.7 5-6.1-.6-2.5-4.4-2.9-7-3.3l-3.6-.6c-4.2-.6-7.6-2.2-8.8-6.5-1.8-7 4.8-11 10.6-12.6a33.18 33.18 0 0 1 8.3-1.1l1.1 5.4a20.59 20.59 0 0 0-7.8.5c-2.6.7-6.1 2.4-5.3 5.6.6 2.2 3.7 2.7 6 2.9l3.8.4c4.7.6 8.4 2 9.7 7 1.9 7-3.8 11.4-10.1 13.1"/><path class="cls-2" transform="rotate(-64.7 147.054 461.495)" d="M143.54 457.58h7v7.8h-7z"/><path class="cls-2" d="M350.3 466.2l-2.9-6.2 7-3.4 3 6.3-7.1 3.3zM93.7 234l45.8 45.8 42.6-42.6v135.6h64.8V173.6l-46.4-46.4zm206.9-106.7l-46.3 46.3v199.2h64.8V237.2l42.5 42.5 45.8-45.8z"/></g></g></svg>