<svg xmlns="http://www.w3.org/2000/svg" xmlns:xlink="http://www.w3.org/1999/xlink" version="1.1" id="Layer_1" x="0px" y="0px" width="595.279px" height="132.883px" viewBox="0 354.503 595.279 132.883" enable-background="new 0 354.503 595.279 132.883" xml:space="preserve">
<path d="M104.756,354.503H75.446c0,24.053-11.041,46.003-30.231,60.461l-11.566,8.675L78.6,484.89h36.934l-41.402-56.387  C93.715,409.05,104.756,382.763,104.756,354.503z"/>
<rect x="0" y="354.503" width="29.968" height="130.386"/>
<rect x="124.208" y="354.503" width="28.259" height="130.386"/>
<path d="M400.359,392.226c-10.778,0-21.03,3.286-27.865,12.618v-10.121H345.68v90.167h27.208v-47.317  c0-13.67,9.2-20.373,20.241-20.373c11.829,0,18.664,7.098,18.664,20.241v47.58h26.945v-57.438  C438.738,406.553,422.045,392.226,400.359,392.226z"/>
<path d="M237.902,394.723v5.784c-7.623-5.258-16.824-8.281-26.813-8.281c-26.287,0-47.58,21.292-47.58,47.581  c0,26.287,21.293,47.58,47.58,47.58c9.989,0,19.19-3.023,26.813-8.28v5.783h26.945v-90.167H237.902z M213.323,462.939  c-13.538,0-24.448-10.384-24.448-23.133c0-12.75,10.91-23.133,24.448-23.133c13.537,0,24.447,10.383,24.447,23.133  C237.771,452.556,226.861,462.939,213.323,462.939z"/>
<path d="M306.644,406.421v-11.698h-27.603v90.167h27.733v-42.061c0-14.195,15.378-21.818,26.024-21.818c0.132,0,0.264,0,0.264,0  v-26.288C322.153,394.723,312.032,399.455,306.644,406.421z"/>
<path d="M522.595,394.723v5.784c-7.623-5.258-16.824-8.281-26.813-8.281c-26.287,0-47.58,21.292-47.58,47.581  c0,26.287,21.293,47.58,47.58,47.58c9.989,0,19.19-3.023,26.813-8.28v5.783h26.944v-90.167H522.595z M498.016,462.939  c-13.537,0-24.447-10.384-24.447-23.133c0-12.75,10.909-23.133,24.447-23.133s24.448,10.383,24.448,23.133  C522.595,452.556,511.554,462.939,498.016,462.939z"/>
<g>
	<path d="M570.439,397.352c0-1.314-0.921-2.103-2.366-2.103h-2.497v6.835h1.183v-2.497h1.314l1.052,2.497h1.314l-1.184-2.761   C570.044,398.93,570.439,398.272,570.439,397.352z M568.073,398.403h-1.314v-2.103h1.314c0.789,0,1.183,0.394,1.183,1.051   C569.255,398.009,568.992,398.403,568.073,398.403z"/>
	<path d="M567.678,392.357c-3.549,0-6.44,2.892-6.44,6.44c0.132,3.549,2.892,6.44,6.44,6.44s6.44-2.892,6.44-6.44   S571.227,392.357,567.678,392.357z M567.678,404.056c-2.892,0-5.126-2.366-5.126-5.258s2.366-5.257,5.126-5.257   c2.892,0,5.126,2.366,5.126,5.257S570.439,404.056,567.678,404.056z"/>
</g>
<path d="M578.324,452.95c-9.332,0-16.955,7.623-16.955,16.955s7.623,16.956,16.955,16.956s16.955-7.624,16.955-16.956  C595.28,460.442,587.656,452.95,578.324,452.95z"/>
</svg>