<svg xmlns="http://www.w3.org/2000/svg" width="595.279" height="132.883" viewBox="0 354.503 595.279 132.883"><path d="M104.756 354.503h-29.31c0 24.053-11.041 46.003-30.231 60.461l-11.566 8.675L78.6 484.89h36.934l-41.402-56.387c19.583-19.453 30.624-45.74 30.624-74zM0 354.503h29.968v130.386H0zm124.208 0h28.259v130.386h-28.259zm276.151 37.723c-10.778 0-21.03 3.286-27.865 12.618v-10.121H345.68v90.167h27.208v-47.317c0-13.67 9.2-20.373 20.241-20.373 11.829 0 18.664 7.098 18.664 20.241v47.58h26.945v-57.438c0-21.03-16.693-35.357-38.379-35.357zm-162.457 2.497v5.784c-7.623-5.258-16.824-8.281-26.813-8.281-26.287 0-47.58 21.292-47.58 47.581 0 26.287 21.293 47.58 47.58 47.58 9.989 0 19.19-3.023 26.813-8.28v5.783h26.945v-90.167h-26.945zm-24.579 68.216c-13.538 0-24.448-10.384-24.448-23.133 0-12.75 10.91-23.133 24.448-23.133 13.537 0 24.447 10.383 24.447 23.133.001 12.75-10.909 23.133-24.447 23.133zm93.321-56.518v-11.698h-27.603v90.167h27.733v-42.061c0-14.195 15.378-21.818 26.024-21.818h.264v-26.288c-10.909 0-21.03 4.732-26.418 11.698zm215.951-11.698v5.784c-7.623-5.258-16.824-8.281-26.813-8.281-26.287 0-47.58 21.292-47.58 47.581 0 26.287 21.293 47.58 47.58 47.58 9.989 0 19.19-3.023 26.813-8.28v5.783h26.944v-90.167h-26.944zm-24.579 68.216c-13.537 0-24.447-10.384-24.447-23.133 0-12.75 10.909-23.133 24.447-23.133s24.448 10.383 24.448 23.133c.131 12.75-10.91 23.133-24.448 23.133zm72.423-65.587c0-1.314-.921-2.103-2.366-2.103h-2.497v6.835h1.183v-2.497h1.314l1.052 2.497h1.314l-1.184-2.761c.789-.393 1.184-1.051 1.184-1.971zm-2.366 1.051h-1.314V396.3h1.314c.789 0 1.183.394 1.183 1.051-.001.658-.264 1.052-1.183 1.052z"/><path d="M567.678 392.357c-3.549 0-6.44 2.892-6.44 6.44.132 3.549 2.892 6.44 6.44 6.44s6.44-2.892 6.44-6.44-2.891-6.44-6.44-6.44zm0 11.699c-2.892 0-5.126-2.366-5.126-5.258s2.366-5.257 5.126-5.257c2.892 0 5.126 2.366 5.126 5.257s-2.365 5.258-5.126 5.258zm10.646 48.894c-9.332 0-16.955 7.623-16.955 16.955s7.623 16.956 16.955 16.956 16.955-7.624 16.955-16.956c.001-9.463-7.623-16.955-16.955-16.955z"/></svg>