<svg xmlns="http://www.w3.org/2000/svg" xmlns:xlink="http://www.w3.org/1999/xlink" version="1.1" id="Layer_1" x="0px" y="0px" width="200px" height="200px" viewBox="0 0 200 200" enable-background="new 0 0 200 200" xml:space="preserve">
<rect fill="#CCCCCC" width="200" height="200"/>
<g id="anOMYv_1_">
	<g>
		<rect fill="#808080" width="200" height="200"/>
		<path fill="#CCCCCC" d="M195.637,200H200v-2.671c-0.766,0.192-1.517,0.381-2.229,0.56C197.08,198.571,196.362,199.282,195.637,200    z"/>
		<path fill="#CCCCCC" d="M25.533,6.887c3.963,2.523,5.644,5.464,3.914,8.817c-1.731,3.357-4.768,4.346-8.023,2.988    c-3.857-1.608-4.669-4.768-3.132-8.684c1.281-3.267-1.49-7.794-5.064-8.173C11.223,1.624,9.68,1.007,8.507,0H0v22.175    c4.354,2.139,8.75,4.159,13.312,5.676c8.163,2.715,16.666,1.218,22.288-5.908c5.2-6.591,5.638-14.427,3.205-21.943H19.998    C20.581,3.039,22.841,5.172,25.533,6.887z"/>
		<path fill="#CCCCCC" d="M187.703,32.842c3.175,6.197,7.009,10.805,12.297,12.495V25.489c-0.423,0.234-0.81,0.366-1.173,0.323    c-1.43-0.166-2.642-2.193-3.948-3.41c1.244-1.266,2.366-3.349,3.769-3.559c0.41-0.061,0.856,0.088,1.353,0.354V0h-11.299    c2.081,2.427,3.311,5.509,3.564,9.457c-10.108,2.233-13.073,1.303-17.947-5.72c0.97-1.232,1.953-2.483,2.94-3.737h-4.882    c-3.995,4.139-8.983,7.465-15.416,9.23c-6.414,1.76-12.241,0.404-17.415-3.539c-1.882-1.434-3.074-3.468-3.64-5.691H93.239    c-0.771,0.436-1.547,0.846-2.329,1.197C87.438,2.756,83.698,2.014,80.971,0H70.207c0.728,1.591,1.099,3.375,0.621,4.417    c-0.951,2.072-4.187,4.308-6.453,4.326c-5.576,0.045-6.603,2.441-6.505,7.406c0.123,6.294-0.477,12.636-1.218,18.902    c-0.604,5.111-2.701,6.415-7.49,4.766c-3.366-1.16-5.099-0.186-6.962,2.63c-2.737,4.139-5.596,8.368-9.171,11.747    c-7.037,6.65-14.62,5.067-19.747-3.021c-1.137-1.794-4.208-3.52-6.265-3.385C4.167,47.974,1.885,48.072,0,47.969v15.787    c3.636-0.777,6.309,0.539,8.135,3.93c2.312,4.292,5.916,5.099,9.805,2.215c3.35-2.484,6.726-2.581,10.137-0.177    c4.482,3.16,7.28,2.331,8.89-2.664c1.796-5.572,7.015-8.196,12.185-6.126c4.696,1.88,6.874,7.307,4.828,12.032    c-2.168,5.012-7.89,6.762-13.032,3.987c-4.122-2.224-8.321-1.152-10.748,2.74c-3.635,5.83-10.483,5.802-14.168-0.059    c-2.05-3.262-6.951-4.817-10.549-3.348C3.229,77.208,1.496,77.369,0,76.922v14.233c1.475-0.244,3.192-0.407,5.219-0.54    c1.153,2.552-4.238,6.088,0.863,8.216c6.87-9.471,6.87-9.471,15.023-8.53c0.557,1.604,1.091,3.146,1.626,4.688    c1.151-0.969,2.17-2.446,3.484-2.791c2.105-0.551,4.425-0.578,6.62-0.402c2.114,0.17,4.185,0.878,6.426,1.992    C25.638,97.77,12.173,101.876,0,109.194v13.003c5.236-3.798,11.22-6.997,18.071-9.5c8.373-3.059,16.991-4.871,25.952-2.623    c10.289,2.584,16.457,10.65,15.523,20.266c-0.685,7.053-6.296,12.193-13.011,11.854c-4.437-0.223-7.567-2.375-9.051-6.611    c-1.322-3.777-0.205-6.996,2.972-9.242c3.642-2.574,7.22-1.816,10.523,0.926c0.355,0.295,0.836,0.438,1.319,0.682    c-0.358-5.631-5.901-9.486-12.424-8.66c-5.836,0.738-10.169,4.023-13.505,8.625c-6.792,9.369-7.748,19.738-4.155,30.434    c2.378,7.08,5.561,13.891,8.414,20.811c0.606,1.471,1.348,2.887,2.027,4.326c-0.314,0.293-0.628,0.584-0.941,0.877    c-4.121-1.717-8.287-3.334-12.331-5.213c-1.095-0.51-2.148-1.656-2.667-2.768c-7.072-15.15-11.661-30.584-4.472-47.17    c-0.36-0.334-0.721-0.668-1.081-1.004c-3.694,3.237-7.649,6.24-11.165,9.635v12.394c1.496,0.431,3.075,1.381,3.326,2.241    c0.515,1.764-0.541,4.85-2.004,6.156c-0.481,0.43-0.922,0.873-1.322,1.33V200h26.735c-0.793-2.35-1.578-4.699-2.275-7.057    c-0.494-1.672-1.325-3.246-2.018-4.906c0.984-0.465,1.554-0.959,1.825-0.828c8.064,3.867,16.346,7.373,24.064,11.846    c0.542,0.313,1.031,0.629,1.497,0.945h24.577c0.151-3.676,1.905-6.159,5.595-9.113c1.144,2.123,2.349,4.357,3.553,6.592    c0.674-2.219,1.537-4.4,1.986-6.666c1.338-6.742,4.462-9.273,13.802-10.668c-0.265,2.754-0.521,5.438-0.927,9.666    c2.404-1.654,3.943-2.234,4.754-3.346c6.826-9.357,8.303-9.848,20.961-5.701c-2.066,1.373-3.764,2.223-5.078,3.477    c-0.807,0.768-1.024,2.152-1.507,3.26c1.134,0.102,2.296,0.412,3.396,0.264c3.278-0.439,6.562-1.584,9.783-1.398    c1.78,0.102,3.528,2.225,5.02,3.711c0.151,0.15-1.556,3.184-2.425,3.197c-11.651,0.169-21.552,2.432-29.665,6.727h48.476    c-2.189-1.887-4.414-3.75-6.462-5.721c6.612-1.639,13.55-0.461,21.079,3.928c-1.449,0.398-2.09,0.404-2.491,0.719    c-0.426,0.332-0.823,0.699-1.215,1.074h27.688c-0.332-0.426-0.651-0.835-0.934-1.197c-2.278-0.723-4.485-1.424-6.692-2.125    c0.83-2.062,1.66-4.125,2.432-6.041c-0.757-1.541-1.664-3.387-2.57-5.234c2.025-0.402,4.052-0.803,5.347-1.061    c1.955-1.906,3.638-3.549,5.321-5.191c1.273,1.477,2.547,2.953,3.979,4.613c0.777,0.199,1.582,0.406,2.388,0.613v-28.736    c-0.91,2.269-2.248,4.625-3.481,7.396c-3.132-2.682-5.318-4.555-7.668-6.568c1.748-3.162,3.097-5.602,4.826-8.729    c1.926,1.062,4.806,2.184,6.323,3.126v-4.804c-1.633-0.24-3.41-0.662-5.195-0.834c1.216-3.709,2.083-6.357,3.302-10.08    c0.614,0.213,1.252,0.396,1.894,0.571v-3.236c-0.331-0.013-0.659-0.022-0.976-0.022c0.369-2.719,0.673-4.96,0.976-7.188v-16.31    c-0.117-1.182-0.24-2.412-0.372-3.74c0.119-0.014,0.247-0.03,0.372-0.047v-3.874c-0.732,0.167-1.481,0.339-2.286,0.522    c-0.531-3.226-1.646-6.272-1.246-9.104c0.159-1.128,1.949-2.025,3.532-2.951V60.857c-0.963,0.114-1.992,0.535-3.098,1.02    c-1.661,0.728-3.459,1.251-5.248,1.562c-5.205,0.903-7.453-1.741-6.212-6.816c0.337-1.375,0.345-3.475-0.463-4.379    c-4.674-5.233-5.165-8.705-1.32-14.689C184.598,36.095,185.927,34.887,187.703,32.842z M37.918,159.961    c-1.875-2.689-3.779-4.23-3.621-5.518c0.169-1.379,2.25-3.443,3.556-3.488c1.2-0.041,3.292,2.094,3.483,3.479    C41.513,155.713,39.688,157.268,37.918,159.961z M171.857,6.191c2.102,3.934,4.9,7.418,5.823,11.343    c1.158,4.92-0.785,6.289-5.797,5.392c-3.346-0.6-6.375-1.516-7.513-5.497C162.698,11.574,162.54,11.605,171.857,6.191z     M188.996,110.746c-1.366,1.07-4.271,0.17-6.481,0.17c-1.73,1.453-3.811,3.199-5.891,4.943c-1.447-2.119-2.895-4.238-3.994-5.848    c-2.586-1.08-4.987-2.084-7.389-3.086c1.166-2.393,2.332-4.785,3.484-7.152c-0.324-2.118-0.72-4.697-1.115-7.275    c2.388,0.214,4.774,0.429,8.285,0.744c1.358-0.879-0.164-7.143,4.917-5.2c1.881,0.719,2.787,3.985,4.049,5.952    c2.045,0.717,4.367,1.532,6.689,2.347c-1.111,2.265-2.223,4.53-3.334,6.793C186.925,105.695,192.992,107.623,188.996,110.746z     M161.974,88.78c-0.717,2.091-1.244,3.479-1.665,4.897c-0.422,1.42-0.736,2.872-1.428,5.623c-3.244-0.734-7.207-0.563-9.446-2.445    c-2.17-1.822,0.51-9.923,3.198-11.641C157.292,82.238,158.653,87.604,161.974,88.78z M157.926,78.668    c3.461-1.971,6.723-4.712,10.444-5.68c3.284-0.854,4.62,8.021,1.319,9.847c-1.716,0.949-3.49,1.793-6.463,3.309    C161.448,83.636,159.687,81.152,157.926,78.668z M150.061,105.23c0.932-2.066,5.548-2.473,8.936-3.766    c0.876,4.27,1.526,7.438,2.419,11.791c-3.351,0.521-7.764,2.471-9.277,1.135C150.122,112.613,148.97,107.648,150.061,105.23z     M154.106,122.48c1.649-2.77,4.753-4.672,7.908-7.492c1.858,4.604,3.132,7.76,4.919,12.188c-3.635,0.582-6.938,1.83-9.897,1.27    C155.628,128.178,153.436,123.607,154.106,122.48z M168.338,130.174c1.605,4.422,3.103,8.543,4.571,12.584    c-7.401,4.023-10.347,3.906-12.225-0.201C157.417,135.41,158.385,133.725,168.338,130.174z M174.243,147.525    c0,4.602,0,9.121,0,14.348c-4.498-1.486-10.356,0.145-10.538-6.977C163.596,150.621,166.186,148.707,174.243,147.525z     M150.896,14.13c2.872-0.432,5.453-0.82,7.974-1.199c3.781,8.49,3.321,12.777-1.779,17.631    C149.414,26.607,148.099,23.226,150.896,14.13z M150.491,49.064c0-2.79-0.553-5.239,0.271-7.071    c0.331-0.737,3.677-0.121,5.746-0.121c1.287-1.001,2.92-2.271,4.553-3.54c1.06,1.844,2.119,3.687,2.957,5.143    c2.143,0.93,4.175,1.811,6.207,2.691c-0.964,1.67-1.928,3.34-2.752,4.768c0.213,2.047,0.439,4.215,0.665,6.384    c-2.189,0-4.38,0-6.46,0c-1.456,1.259-3.102,2.681-4.747,4.102c-0.936-1.701-1.871-3.401-2.592-4.713    c-2.445-1.164-4.44-2.114-6.437-3.064C148.922,51.838,149.942,50.035,150.491,49.064z M139.675,10.544    c2.07,0.871,4.299,1.81,6.435,2.708c0.109,9.771-2.926,13.974-11.354,15.659C131.617,21.412,134.103,15.75,139.675,10.544z     M124.751,105.926c-1.576-1.812-0.262-6.14-0.262-9.168c8.666-0.994,11.745,1.008,14.324,8.694    C132.966,109.664,128.532,110.273,124.751,105.926z M128.869,120.965c-0.678,1.143-4.561,1.561-6.188,0.746    c-5.931-2.961-6.044-5.537-1.206-12.668C129.428,112.781,131.705,116.188,128.869,120.965z M140.401,54.334    c-2.548,6.553-7.709,8.937-14.589,9.264c-1.106-3.398-2.175-6.678-3.237-9.94C128.411,48.689,132.23,48.831,140.401,54.334z     M120.449,49.781c-2.117-3.849-7.234-6.208-2.66-11.316c2.938-3.281,9.005-4.626,12.542-2.057    c2.139,1.555,0.817,7.185-2.454,9.402C125.703,47.283,123.232,48.317,120.449,49.781z M126.38,91.624    c0.256-2.704,0.519-5.479,0.774-8.185c7.569-1.955,9.143-1.351,14.323,5.374C137.23,93.291,134.23,93.884,126.38,91.624z     M127.698,78.479c-0.383-3.521-0.753-6.915-1.117-10.262c8.458-5.365,12.887,0.622,18.068,4.999    C140.093,78.894,134.205,79.164,127.698,78.479z M121.095,4.801c1.557-4.145,5.868-5.01,9.174-3.735    c2.315,0.893,5.553,5.56,4.937,6.735c-1.837,3.502-5.049,6.585-8.381,8.872c-1.666,1.144-4.766,0.199-8.554,0.199    C119.286,12.349,119.74,8.407,121.095,4.801z M105.715,31.251c1.889-5.208,4.134-7.132,10.97-7.429    c3.447,6.605-0.373,11.266-4.568,16.46C109.228,37.484,103.41,37.603,105.715,31.251z M96.057,17.151    c6.972,5.262,7.908,8.812,4.761,17.869c-2.135,0.099-4.4,0.203-6.587,0.304C90.451,26.748,90.716,24.077,96.057,17.151z     M107.325,41.547c4.501,3.693,9.212,8.22,11.432,13.406c7.598,17.746,6.214,35.718-1.324,53.312    c-0.453,1.059-1.144,2.023-1.794,2.984c-0.258,0.381-0.711,0.629-1.965,1.693c-1.511-15.021-10.245-25.682-17.711-37.06    c-3.802-5.793-7.241-11.975-9.779-18.4c-2.179-5.516-2.261-11.662,2.772-16.198C92.808,37.813,102.42,37.522,107.325,41.547z     M88.471,71.467c2.056,3.017,4.043,5.932,5.99,8.788c-4.681,6.115-10.875,6.366-17.638,5.316    C77.515,78.431,83.098,75.48,88.471,71.467z M65.279,71.333c2.678-7.712,8.641-11.34,17.036-12.369    c1.246,2.752,2.577,5.692,3.916,8.649C80.102,75.345,72.921,74.747,65.279,71.333z M97.018,83.668    c2.671,4.187,5.051,7.918,7.285,11.421c-5.673,6.694-11.955,4.952-18.385,2.222C86.03,90.151,91.871,87.65,97.018,83.668z     M106.399,98.071c1.475,5.759,2.592,10.125,3.807,14.873c-6.583,1.484-11.69,1.777-14.774-5.418    C98.565,104.824,101.968,101.891,106.399,98.071z M75.504,31.854c0.456-3.045,1.258-6.038,1.988-9.441    c5.16,1.589,9.819,2.608,10.884,8.217c0.441,2.322,3.012,4.968-0.523,7.007c-2.328,1.342-3.684,4.846-7.579,2.591    C76.836,38.238,74.913,35.798,75.504,31.854z M81.763,45.262c-0.172,3.074-0.347,6.185-0.518,9.237    c-8.306,3.816-11.712,2.614-18.353-6.596C70.81,40.42,73.524,40.06,81.763,45.262z M58.485,107.176    c-0.979-0.75,0.115-3.854-0.804-5.113c-1.637-2.245-1.921-3.365,1.055-4.122c0.709-0.181,1.666-0.369,1.999-0.884    c2.396-3.702,2.354-3.729,5.162-0.483c4.467-2.013,4.444-2.014,4.194,2.636c-0.029,0.536,0.242,1.176,0.567,1.628    c2.774,3.873,2.695,4.039-2.079,4.553c-0.709,1.82-1.193,3.064-1.678,4.307c-0.875-0.555-1.688-1.396-2.639-1.602    C62.324,107.676,59.84,108.215,58.485,107.176z M103.297,165.982c-2.098,1.273-5.313,0.709-8.031,0.963    c-0.292-0.635-0.584-1.271-0.876-1.906c-1.301,2.004-2.511,4.076-3.923,5.998c-1.94,2.641-3.672,5.617-6.157,7.627    c-2.724,2.201-6.109,2.209-7.908-1.578c-1.319-2.775-2.954-2.883-5.571-2.041c-2.971,0.957-6.104,1.771-9.198,1.902    c-4.954,0.211-7.23-3.137-4.921-7.408c1.843-3.406,1.185-5.248-1.738-7.465c-1.271-0.967-2.146-3.52-1.931-5.188    c0.746-5.795,3.502-10.58,9.119-14.236c1.129,2.07,2.206,3.842,3.093,5.703c4.638,9.732,16.834,13.053,25.765,6.969    c0.96-0.654,1.809-1.52,2.841-2.012c2.552-1.215,4.7-5.184,8.103-1.576C105.065,155.025,106.199,164.221,103.297,165.982z     M87.134,141.867c-9.595-0.275-16.109-7.871-14.611-16.336c0.904-5.115,5.637-9.182,10.271-7.854    c2.48,0.713,5.229,3.043,6.331,5.365c1.397,2.945-0.418,5.717-3.587,7.205c-1.102,0.518-2.059,1.34-3.245,2.133    c7.542,5.219,14.795-0.521,18.691-14.514c2.575-0.125,5.313-0.258,8.417-0.408c0,1.826,0,3.246,0,5.916    c2.106-1.727,3.406-2.793,5.137-4.211c1.838,1.961,3.738,3.986,6.037,6.438C111.15,134.906,100.983,142.264,87.134,141.867z     M122.354,167.637c-0.584,2.32-1.658,4.518-2.507,6.771c-0.68-0.24-1.36-0.48-2.041-0.721c-0.718-8.873-1.174-17.773,2.059-26.361    c2.381-6.326,5.23-6.746,10-1.756c2.23-1.924,4.298-4.102,6.732-5.727c6.581-4.395,15.775-1.832,17.958,4.977    c0.448,1.398,0.363,3.438-0.385,4.59c-0.512,0.787-2.692,0.975-3.974,0.703C136.351,147.201,125.836,153.809,122.354,167.637z     M146.744,184.844c-8.704-1.957-13.562-9.074-12.202-16.781c1.028-5.822,6.216-9.662,11.503-8.48    c3.695,0.824,5.96,3.236,6.155,6.914c0.19,3.609-1.895,5.84-5.568,6.52c-1.065,0.195-2.056,0.803-3.646,1.451    c7.707,6.293,14.558,2.801,21.921-10.547c2.547,0.535,5.242,1.104,8.119,1.709c-0.287,1.762-0.515,3.16-0.868,5.326    c2.051-0.906,3.58-1.582,5.586-2.467c1.371,2.293,2.778,4.648,4.465,7.471C171.104,182.871,159.85,187.789,146.744,184.844z     M194.953,166.432c-3.099,2.645-5.753,4.912-9.13,7.795c-2.205-3.441-3.677-5.738-5.235-8.17c1.996-2.102,3.788-3.99,5.937-6.252    C188.824,161.613,191.072,163.381,194.953,166.432z M185.284,152.826c-1.725-0.529-3.945-1.209-6.391-1.957    c-0.348-1.98-0.774-4.402-1.233-7.014c2.995-3.047,6.647-4.346,11.217-1.961c0.312,2.086,0.634,4.248,1.021,6.836    C188.808,149.699,187.175,151.148,185.284,152.826z M189.546,131.145c-0.744,1.205-1.704,2.758-2.664,4.312    c-1.247-0.949-2.495-1.896-3.888-2.955c-1.414,0-3.183,0-4.952,0c0.151-1.795,0.302-3.592,0.461-5.488    c-0.629-0.977-1.461-2.271-2.293-3.566c1.512-0.629,3.023-1.26,4.251-1.771c0.939-1.531,1.867-3.047,2.795-4.561    c1.355,0.945,2.711,1.891,4.206,2.932c1.214,0,2.838,0,4.462,0c-0.22,1.645-0.439,3.289-0.595,4.457    c0.804,1.875,1.506,3.512,2.208,5.15C192.277,130.125,191.018,130.596,189.546,131.145z M190.968,77.343    c2.402,1.884,6.295,3.453,6.78,5.743c0.469,2.213-2.575,5.17-4.358,8.294c-3.052-2.731-4.987-4.463-7.511-6.721    C187.593,82.195,189.28,79.769,190.968,77.343z M186.648,74.233c-1.604,3.797-2.675,6.336-3.893,9.22    c-2.417-0.483-4.638-0.929-7.913-1.584c0.617-3.298,0.431-7.887,1.798-8.41C179.248,72.461,182.743,73.784,186.648,74.233z"/>
	</g>
</g>
</svg>