<svg xmlns="http://www.w3.org/2000/svg" width="200" height="200"><path fill="#CCC" d="M0 0h200v200H0z"/><path fill="gray" d="M0 0h200v200H0z"/><path fill="#CCC" d="M195.637 200H200v-2.671l-2.229.56c-.691.682-1.409 1.393-2.134 2.111zM25.533 6.887c3.963 2.523 5.644 5.464 3.914 8.817-1.731 3.357-4.768 4.346-8.023 2.988-3.857-1.608-4.669-4.768-3.132-8.684 1.281-3.267-1.49-7.794-5.064-8.173C11.223 1.624 9.68 1.007 8.507 0H0v22.175c4.354 2.139 8.75 4.159 13.312 5.676 8.163 2.715 16.666 1.218 22.288-5.908C40.8 15.352 41.238 7.516 38.805 0H19.998c.583 3.039 2.843 5.172 5.535 6.887zm162.17 25.955c3.175 6.197 7.009 10.805 12.297 12.495V25.489c-.423.234-.81.366-1.173.323-1.43-.166-2.642-2.193-3.948-3.41 1.244-1.266 2.366-3.349 3.769-3.559.41-.061.856.088 1.353.354V0h-11.299c2.081 2.427 3.311 5.509 3.564 9.457-10.108 2.233-13.073 1.303-17.947-5.72L177.259 0h-4.882c-3.995 4.139-8.983 7.465-15.416 9.23-6.414 1.76-12.241.404-17.415-3.539-1.882-1.434-3.074-3.468-3.64-5.691H93.239c-.771.436-1.547.846-2.329 1.197-3.472 1.559-7.212.817-9.939-1.197H70.207c.728 1.591 1.099 3.375.621 4.417-.951 2.072-4.187 4.308-6.453 4.326-5.576.045-6.603 2.441-6.505 7.406.123 6.294-.477 12.636-1.218 18.902-.604 5.111-2.701 6.415-7.49 4.766-3.366-1.16-5.099-.186-6.962 2.63-2.737 4.139-5.596 8.368-9.171 11.747-7.037 6.65-14.62 5.067-19.747-3.021-1.137-1.794-4.208-3.52-6.265-3.385-2.85.186-5.132.284-7.017.181v15.787c3.636-.777 6.309.539 8.135 3.93 2.312 4.292 5.916 5.099 9.805 2.215 3.35-2.484 6.726-2.581 10.137-.177 4.482 3.16 7.28 2.331 8.89-2.664 1.796-5.572 7.015-8.196 12.185-6.126 4.696 1.88 6.874 7.307 4.828 12.032-2.168 5.012-7.89 6.762-13.032 3.987-4.122-2.224-8.321-1.152-10.748 2.74-3.635 5.83-10.483 5.802-14.168-.059-2.05-3.262-6.951-4.817-10.549-3.348-2.254.922-3.987 1.083-5.483.636v14.233c1.475-.244 3.192-.407 5.219-.54 1.153 2.552-4.238 6.088.863 8.216 6.87-9.471 6.87-9.471 15.023-8.53l1.626 4.688c1.151-.969 2.17-2.446 3.484-2.791 2.105-.551 4.425-.578 6.62-.402 2.114.17 4.185.878 6.426 1.992C25.638 97.77 12.173 101.876 0 109.194v13.003c5.236-3.798 11.22-6.997 18.071-9.5 8.373-3.059 16.991-4.871 25.952-2.623 10.289 2.584 16.457 10.65 15.523 20.266-.685 7.053-6.296 12.193-13.011 11.854-4.437-.223-7.567-2.375-9.051-6.611-1.322-3.777-.205-6.996 2.972-9.242 3.642-2.574 7.22-1.816 10.523.926.355.295.836.438 1.319.682-.358-5.631-5.901-9.486-12.424-8.66-5.836.738-10.169 4.023-13.505 8.625-6.792 9.369-7.748 19.738-4.155 30.434 2.378 7.08 5.561 13.891 8.414 20.811.606 1.471 1.348 2.887 2.027 4.326l-.941.877c-4.121-1.717-8.287-3.334-12.331-5.213-1.095-.51-2.148-1.656-2.667-2.768-7.072-15.15-11.661-30.584-4.472-47.17-.36-.334-.721-.668-1.081-1.004-3.694 3.237-7.649 6.24-11.165 9.635v12.394c1.496.431 3.075 1.381 3.326 2.241.515 1.764-.541 4.85-2.004 6.156-.481.43-.922.873-1.322 1.33V200h26.735c-.793-2.35-1.578-4.699-2.275-7.057-.494-1.672-1.325-3.246-2.018-4.906.984-.465 1.554-.959 1.825-.828 8.064 3.867 16.346 7.373 24.064 11.846.542.313 1.031.629 1.497.945h24.577c.151-3.676 1.905-6.159 5.595-9.113l3.553 6.592c.674-2.219 1.537-4.4 1.986-6.666 1.338-6.742 4.462-9.273 13.802-10.668l-.927 9.666c2.404-1.654 3.943-2.234 4.754-3.346 6.826-9.357 8.303-9.848 20.961-5.701-2.066 1.373-3.764 2.223-5.078 3.477-.807.768-1.024 2.152-1.507 3.26 1.134.102 2.296.412 3.396.264 3.278-.439 6.562-1.584 9.783-1.398 1.78.102 3.528 2.225 5.02 3.711.151.15-1.556 3.184-2.425 3.197-11.651.169-21.552 2.432-29.665 6.727h48.476c-2.189-1.887-4.414-3.75-6.462-5.721 6.612-1.639 13.55-.461 21.079 3.928-1.449.398-2.09.404-2.491.719-.426.332-.823.699-1.215 1.074h27.688l-.934-1.197-6.692-2.125 2.432-6.041-2.57-5.234c2.025-.402 4.052-.803 5.347-1.061l5.321-5.191 3.979 4.613 2.388.613v-28.736c-.91 2.269-2.248 4.625-3.481 7.396l-7.668-6.568 4.826-8.729c1.926 1.062 4.806 2.184 6.323 3.126v-4.804c-1.633-.24-3.41-.662-5.195-.834l3.302-10.08c.614.213 1.252.396 1.894.571v-3.236a25.051 25.051 0 0 0-.976-.022l.976-7.188v-16.31l-.372-3.74c.119-.014.247-.03.372-.047v-3.874l-2.286.522c-.531-3.226-1.646-6.272-1.246-9.104.159-1.128 1.949-2.025 3.532-2.951V60.857c-.963.114-1.992.535-3.098 1.02a22.993 22.993 0 0 1-5.248 1.562c-5.205.903-7.453-1.741-6.212-6.816.337-1.375.345-3.475-.463-4.379-4.674-5.233-5.165-8.705-1.32-14.689.941-1.46 2.27-2.668 4.046-4.713zM37.918 159.961c-1.875-2.689-3.779-4.23-3.621-5.518.169-1.379 2.25-3.443 3.556-3.488 1.2-.041 3.292 2.094 3.483 3.479.177 1.279-1.648 2.834-3.418 5.527zM171.857 6.191c2.102 3.934 4.9 7.418 5.823 11.343 1.158 4.92-.785 6.289-5.797 5.392-3.346-.6-6.375-1.516-7.513-5.497-1.672-5.855-1.83-5.824 7.487-11.238zm17.139 104.555c-1.366 1.07-4.271.17-6.481.17a9594.19 9594.19 0 0 1-5.891 4.943l-3.994-5.848c-2.586-1.08-4.987-2.084-7.389-3.086l3.484-7.152-1.115-7.275 8.285.744c1.358-.879-.164-7.143 4.917-5.2 1.881.719 2.787 3.985 4.049 5.952l6.689 2.347-3.334 6.793c-1.291 2.561 4.776 4.489.78 7.612zM161.974 88.78c-.717 2.091-1.244 3.479-1.665 4.897-.422 1.42-.736 2.872-1.428 5.623-3.244-.734-7.207-.563-9.446-2.445-2.17-1.822.51-9.923 3.198-11.641 4.659-2.976 6.02 2.39 9.341 3.566zm-4.048-10.112c3.461-1.971 6.723-4.712 10.444-5.68 3.284-.854 4.62 8.021 1.319 9.847-1.716.949-3.49 1.793-6.463 3.309l-5.3-7.476zm-7.865 26.562c.932-2.066 5.548-2.473 8.936-3.766l2.419 11.791c-3.351.521-7.764 2.471-9.277 1.135-2.017-1.777-3.169-6.742-2.078-9.16zm4.045 17.25c1.649-2.77 4.753-4.672 7.908-7.492l4.919 12.188c-3.635.582-6.938 1.83-9.897 1.27-1.408-.268-3.6-4.839-2.93-5.966zm14.232 7.694c1.605 4.422 3.103 8.543 4.571 12.584-7.401 4.023-10.347 3.906-12.225-.201-3.267-7.147-2.299-8.832 7.654-12.383zm5.905 17.351v14.348c-4.498-1.486-10.356.145-10.538-6.977-.109-4.275 2.481-6.189 10.538-7.371zM150.896 14.13l7.974-1.199c3.781 8.49 3.321 12.777-1.779 17.631-7.677-3.955-8.992-7.336-6.195-16.432zm-.405 34.934c0-2.79-.553-5.239.271-7.071.331-.737 3.677-.121 5.746-.121l4.553-3.54 2.957 5.143 6.207 2.691-2.752 4.768.665 6.384h-6.46l-4.747 4.102a10319.8 10319.8 0 0 1-2.592-4.713l-6.437-3.064 2.589-4.579zm-10.816-38.52l6.435 2.708c.109 9.771-2.926 13.974-11.354 15.659-3.139-7.499-.653-13.161 4.919-18.367zm-14.924 95.382c-1.576-1.812-.262-6.14-.262-9.168 8.666-.994 11.745 1.008 14.324 8.694-5.847 4.212-10.281 4.821-14.062.474zm4.118 15.039c-.678 1.143-4.561 1.561-6.188.746-5.931-2.961-6.044-5.537-1.206-12.668 7.953 3.738 10.23 7.145 7.394 11.922zm11.532-66.631c-2.548 6.553-7.709 8.937-14.589 9.264l-3.237-9.94c5.836-4.969 9.655-4.827 17.826.676zm-19.952-4.553c-2.117-3.849-7.234-6.208-2.66-11.316 2.938-3.281 9.005-4.626 12.542-2.057 2.139 1.555.817 7.185-2.454 9.402-2.174 1.473-4.645 2.507-7.428 3.971zm5.931 41.843l.774-8.185c7.569-1.955 9.143-1.351 14.323 5.374-4.247 4.478-7.247 5.071-15.097 2.811zm1.318-13.145l-1.117-10.262c8.458-5.365 12.887.622 18.068 4.999-4.556 5.678-10.444 5.948-16.951 5.263zm-6.603-73.678c1.557-4.145 5.868-5.01 9.174-3.735 2.315.893 5.553 5.56 4.937 6.735-1.837 3.502-5.049 6.585-8.381 8.872-1.666 1.144-4.766.199-8.554.199 1.015-4.523 1.469-8.465 2.824-12.071zm-15.38 26.45c1.889-5.208 4.134-7.132 10.97-7.429 3.447 6.605-.373 11.266-4.568 16.46-2.889-2.798-8.707-2.679-6.402-9.031zm-9.658-14.1c6.972 5.262 7.908 8.812 4.761 17.869l-6.587.304c-3.78-8.576-3.515-11.247 1.826-18.173zm11.268 24.396c4.501 3.693 9.212 8.22 11.432 13.406 7.598 17.746 6.214 35.718-1.324 53.312-.453 1.059-1.144 2.023-1.794 2.984-.258.381-.711.629-1.965 1.693-1.511-15.021-10.245-25.682-17.711-37.06-3.802-5.793-7.241-11.975-9.779-18.4-2.179-5.516-2.261-11.662 2.772-16.198 3.852-3.471 13.464-3.762 18.369.263zm-18.854 29.92l5.99 8.788c-4.681 6.115-10.875 6.366-17.638 5.316.692-7.14 6.275-10.091 11.648-14.104zm-23.192-.134c2.678-7.712 8.641-11.34 17.036-12.369l3.916 8.649c-6.129 7.732-13.31 7.134-20.952 3.72zm31.739 12.335l7.285 11.421c-5.673 6.694-11.955 4.952-18.385 2.222.112-7.16 5.953-9.661 11.1-13.643zm9.381 14.403l3.807 14.873c-6.583 1.484-11.69 1.777-14.774-5.418l10.967-9.455zM75.504 31.854c.456-3.045 1.258-6.038 1.988-9.441 5.16 1.589 9.819 2.608 10.884 8.217.441 2.322 3.012 4.968-.523 7.007-2.328 1.342-3.684 4.846-7.579 2.591-3.438-1.99-5.361-4.43-4.77-8.374zm6.259 13.408l-.518 9.237c-8.306 3.816-11.712 2.614-18.353-6.596 7.918-7.483 10.632-7.843 18.871-2.641zm-23.278 61.914c-.979-.75.115-3.854-.804-5.113-1.637-2.245-1.921-3.365 1.055-4.122.709-.181 1.666-.369 1.999-.884 2.396-3.702 2.354-3.729 5.162-.483 4.467-2.013 4.444-2.014 4.194 2.636-.029.536.242 1.176.567 1.628 2.774 3.873 2.695 4.039-2.079 4.553l-1.678 4.307c-.875-.555-1.688-1.396-2.639-1.602-1.938-.42-4.422.119-5.777-.92zm44.812 58.806c-2.098 1.273-5.313.709-8.031.963l-.876-1.906c-1.301 2.004-2.511 4.076-3.923 5.998-1.94 2.641-3.672 5.617-6.157 7.627-2.724 2.201-6.109 2.209-7.908-1.578-1.319-2.775-2.954-2.883-5.571-2.041-2.971.957-6.104 1.771-9.198 1.902-4.954.211-7.23-3.137-4.921-7.408 1.843-3.406 1.185-5.248-1.738-7.465-1.271-.967-2.146-3.52-1.931-5.188.746-5.795 3.502-10.58 9.119-14.236 1.129 2.07 2.206 3.842 3.093 5.703 4.638 9.732 16.834 13.053 25.765 6.969.96-.654 1.809-1.52 2.841-2.012 2.552-1.215 4.7-5.184 8.103-1.576 3.101 3.291 4.235 12.487 1.333 14.248zm-16.163-24.115c-9.595-.275-16.109-7.871-14.611-16.336.904-5.115 5.637-9.182 10.271-7.854 2.48.713 5.229 3.043 6.331 5.365 1.397 2.945-.418 5.717-3.587 7.205-1.102.518-2.059 1.34-3.245 2.133 7.542 5.219 14.795-.521 18.691-14.514l8.417-.408v5.916l5.137-4.211 6.037 6.438c-9.425 9.305-19.592 16.663-33.441 16.266zm35.22 25.77c-.584 2.32-1.658 4.518-2.507 6.771l-2.041-.721c-.718-8.873-1.174-17.773 2.059-26.361 2.381-6.326 5.23-6.746 10-1.756 2.23-1.924 4.298-4.102 6.732-5.727 6.581-4.395 15.775-1.832 17.958 4.977.448 1.398.363 3.438-.385 4.59-.512.787-2.692.975-3.974.703-13.845-2.912-24.36 3.696-27.842 17.524zm24.39 17.207c-8.704-1.957-13.562-9.074-12.202-16.781 1.028-5.822 6.216-9.662 11.503-8.48 3.695.824 5.96 3.236 6.155 6.914.19 3.609-1.895 5.84-5.568 6.52-1.065.195-2.056.803-3.646 1.451 7.707 6.293 14.558 2.801 21.921-10.547 2.547.535 5.242 1.104 8.119 1.709l-.868 5.326 5.586-2.467 4.465 7.471c-11.105 6.911-22.359 11.829-35.465 8.884zm48.209-18.412l-9.13 7.795-5.235-8.17 5.937-6.252 8.428 6.627zm-9.669-13.606l-6.391-1.957-1.233-7.014c2.995-3.047 6.647-4.346 11.217-1.961l1.021 6.836c-1.09.969-2.723 2.418-4.614 4.096zm4.262-21.681l-2.664 4.312-3.888-2.955h-4.952l.461-5.488-2.293-3.566 4.251-1.771 2.795-4.561 4.206 2.932h4.462l-.595 4.457 2.208 5.15-3.991 1.49zm1.422-53.802c2.402 1.884 6.295 3.453 6.78 5.743.469 2.213-2.575 5.17-4.358 8.294l-7.511-6.721 5.089-7.316zm-4.32-3.11l-3.893 9.22-7.913-1.584c.617-3.298.431-7.887 1.798-8.41 2.608-.998 6.103.325 10.008.774z"/></svg>