<svg xmlns="http://www.w3.org/2000/svg" xmlns:xlink="http://www.w3.org/1999/xlink" version="1.1" id="Layer_1" x="0px" y="0px" width="100px" height="18px" viewBox="0 0 100 18" enable-background="new 0 0 100 18" xml:space="preserve">
<polygon fill="#d5d5d5" points="10,13.93 4.152,18 6.214,11.18 0.537,6.875 7.661,6.73 10,0 12.339,6.73 19.463,6.875 13.786,11.18 15.848,18 "/>
<polygon fill="#d5d5d5" points="30,13.93 24.152,18 26.214,11.18 20.537,6.875 27.661,6.73 30,0 32.339,6.73 39.463,6.875 33.786,11.18 35.848,18   "/>
<polygon fill="#d5d5d5" points="50,13.93 44.152,18 46.214,11.18 40.537,6.875 47.661,6.73 50,0 52.339,6.73 59.463,6.875 53.786,11.18 55.848,18   "/>
<polygon fill="#d5d5d5" points="70,13.93 64.152,18 66.214,11.18 60.537,6.875 67.661,6.73 70,0 72.339,6.73 79.463,6.875 73.786,11.18 75.848,18   "/>
<polygon fill="#d5d5d5" points="90,13.93 84.152,18 86.214,11.18 80.537,6.875 87.661,6.73 90,0 92.339,6.73 99.463,6.875 93.786,11.18 95.848,18   "/>
</svg>