<svg xmlns="http://www.w3.org/2000/svg" width="100" height="18"><path fill="#d5d5d5" d="M10 13.93L4.152 18l2.062-6.82L.537 6.875l7.124-.145L10 0l2.339 6.73 7.124.145-5.677 4.305L15.848 18zm20 0L24.152 18l2.062-6.82-5.677-4.305 7.124-.145L30 0l2.339 6.73 7.124.145-5.677 4.305L35.848 18zm20 0L44.152 18l2.062-6.82-5.677-4.305 7.124-.145L50 0l2.339 6.73 7.124.145-5.677 4.305L55.848 18zm20 0L64.152 18l2.062-6.82-5.677-4.305 7.124-.145L70 0l2.339 6.73 7.124.145-5.677 4.305L75.848 18zm20 0L84.152 18l2.062-6.82-5.677-4.305 7.124-.145L90 0l2.339 6.73 7.124.145-5.677 4.305L95.848 18z"/></svg>