<svg xmlns="http://www.w3.org/2000/svg" version="1.1" id="Lager_1" x="0" y="0" viewBox="0 0 800 600" xml:space="preserve"><style>.st0,.st1{fill:none;stroke:#fff;stroke-miterlimit:10;stroke-width:4}.st1{stroke-width:2}.st3{fill:#fff}</style><g id="perfect_fit"><path class="st0" d="M223.8 512.5l-.6-32.9s-2.9-2.9-3.1-9.3c-.8-27.3 0-102.8 0-130.9 0-34.7 30.4-173.1 41-186.2 7.2-8.8 53.5-26 82.5-36.1m174.6 395.4l-.6-36s-2.8-4.2-3.1-12.4c-1.2-27.8-5.8-69-8.1-95.6-1.5-17.7-4-35.3-7.5-52.7 0 0-.6 47.2 1.2 77.6s6.8 111.7 6.8 111.7-37.9 36-55.2 42.2-57.7 6.2-57.7 6.2h-.3s-40.3 0-57.7-6.2-55.1-42.3-55.1-42.3 5-81.3 6.8-111.7c1.9-30.4 1.3-77.6 1.3-77.6-3.5 17.4-6 35-7.5 52.7-2.2 26.6-6.9 67.8-8.1 95.6-.4 8.2-3.1 12.4-3.1 12.4l-.6 36m176.5-394.7c29.1 10.2 73.7 26.8 80.7 35.4 10.5 13.1 41 151.4 41 186.2 0 28.1.8 103.6 0 130.9-.2 6.4-3.1 9.3-3.1 9.3l-.6 32.9M353.5 92.5s5.8-8.3 39.7-8.3 42.6 8.3 42.6 8.3"/><path class="st1" d="M425.2 112.8c-10.4-3.7-21.3-5.7-32.3-5.7-9.9 0-19.8 1.7-29.2 5.1"/><path class="st0" d="M365.1 153.9c6.4-12.9 15-32.2 23.7-33.5-8.3-1.7-18-3.7-25.2-8.2-6.4-4-10.7-10.1-10.1-19.6-4.6 3.5-9.9 24.6-9.9 24.6 3.3 15.8 11.9 23.1 21.5 36.7zm59.8 0c-6.4-12.9-15-32.2-23.7-33.5 15.7-3.1 36.6-7.6 35.2-27.8 5.3 2.6 9.9 24.6 9.9 24.6-3.2 15.8-11.9 23.1-21.4 36.7z"/><path d="M518.3 512.8c-.9-5.6 45.9-.6 45.9-.6s-44.7 8-45.9.6zm-248.2 0c.9-5.6-45.9-.6-45.9-.6s44.6 8 45.9.6z" stroke-linejoin="round" stroke-width="2" fill="none" stroke="#fff"/><circle class="st1" cx="393.7" cy="127.9" r="3.7"/><circle class="st1" cx="393.7" cy="193.7" r="3.7"/><circle class="st1" cx="393.7" cy="258.5" r="3.7"/><circle class="st1" cx="393.7" cy="323.3" r="3.7"/><circle class="st1" cx="393.7" cy="388" r="3.7"/><circle class="st1" cx="393.7" cy="452.8" r="3.7"/><circle class="st1" cx="393.7" cy="517.7" r="3.7"/><path class="st3" d="M261.1 153.2c1.8-.3 3.6-.1 5.2.7 1.7.7 3.2 1.6 4.7 2.6 2.9 2.1 5.5 4.5 7.9 7.2.6.6 1.2 1.3 1.8 2 .6.7 1.2 1.4 1.7 2.1l1.6 2.2c.5.7.9 1.6 1.3 2.3s.9 1.6 1.3 2.4l1.1 2.5c.8 1.6 1.3 3.3 2 5 2.2 6.7 3.9 13.7 4.8 20.7 1 7 1.5 14.1 1.5 21.1-1-7-2.1-13.9-3.5-20.8-1.3-6.8-3-13.6-5.2-20.2-.6-1.6-1.1-3.3-1.8-4.9l-1-2.4c-.4-.8-.8-1.5-1.2-2.3-1.6-3-3.5-5.9-5.7-8.5-2.2-2.7-4.6-5.2-7.2-7.5-1.3-1.1-2.7-2.1-4.2-3l-1.2-.6c-.4-.1-.8-.3-1.2-.4-1-.2-1.9-.3-2.7-.2zm266 0c-.9-.1-1.8 0-2.6.3-.4.1-.8.3-1.2.4l-1.2.6c-1.5.9-2.9 1.8-4.2 3-2.6 2.3-5 4.8-7.2 7.5-2.2 2.6-4.1 5.5-5.7 8.5-.4.8-.8 1.5-1.2 2.3l-1 2.4c-.7 1.6-1.2 3.2-1.8 4.9-2.2 6.6-3.9 13.4-5.2 20.2-1.3 6.9-2.5 13.8-3.5 20.8-.1-7.1.4-14.1 1.5-21.1 1-7 2.6-14 4.8-20.7.6-1.7 1.2-3.4 1.9-5l1.1-2.5c.4-.8.8-1.6 1.3-2.4.5-.8.8-1.6 1.3-2.3l1.6-2.2c.5-.7 1.1-1.4 1.7-2.1.6-.7 1.1-1.4 1.8-2 2.4-2.7 5-5.1 7.9-7.2 1.5-1 3.1-1.9 4.7-2.6 1.5-.9 3.4-1.1 5.2-.8z"/><path class="st1" d="M270.1 156.6c12.5-11.2 44.4-21.8 75.5-32.4m97.1 0c31.1 10.6 63 21.2 75.5 32.4m-120.9-36.3h-3.7c-5.9 0-8.3 7.8-7.3 16.7 9.8.4 19.6 0 29.3-1.2m-29.5 1.4v416.2m0-416.2c-4 .1-8-.4-11.9-1.4"/><path class="st3" d="M289 315.8c-.5-3.3-.6-6.6-.2-9.9.3-3.3.8-6.6 1.5-9.8.7-3.2 1.6-6.4 2.6-9.5.5-1.6 1-3.1 1.6-4.6.6-1.5 1.1-3.1 1.5-4.7.2 1.7.1 3.3-.2 5-.2 1.6-.5 3.3-.8 4.9-.6 3.2-1.3 6.4-2 9.6s-1.4 6.3-2 9.5c-.9 3-1.4 6.2-2 9.5zm210.2 0c-.6-3.3-1.1-6.4-1.8-9.6-.6-3.2-1.3-6.3-2.1-9.5s-1.4-6.3-2-9.6c-.3-1.6-.6-3.2-.8-4.9-.3-1.6-.4-3.3-.2-5 .4 1.6.9 3.1 1.5 4.7.5 1.5 1.1 3.1 1.6 4.6 1 3.1 1.9 6.3 2.6 9.5.7 3.2 1.2 6.5 1.5 9.8.2 3.4.1 6.7-.3 10z"/><path class="st1" d="M223.2 479.6c18.7-2.4 39.4-6.2 46.5 0m248.3 0c10.4-5.8 28.3-3.2 46.8 0"/><path class="st3" d="M528.7 65c-.7-.7-1.3-1.4-1.9-2.1-.4-.5-.7-1-.8-1.7 0-.5.3-1 .7-1.3.5-.4 1.1-.7 1.7-1 .7-.3 1.4-.4 2.1-.6.6-.1 1.2-.2 1.9-.2.5 0 .9.1 1.3.4.4.3.9.7 1.2 1.1 3.2 3.2 6.1 6.6 8.7 10.3 2.6 3.7 5 7.3 7.2 10.9 4.2-11.7 9.2-23.2 14.9-34.3 5.5-10.9 11.9-21.3 19.1-31.1.8-1 1.9-1.8 3.2-2.2 1.6-.5 3.2-.8 4.9-.8.5 0 1 .1 1.4.3.3.2.5.6.5 1s0 .7-.2 1c-.2.4-.4.8-.7 1.1-3.8 5-7.5 10.2-11 15.7s-6.9 11.2-10.2 17.3c-3.2 6.1-6.3 12.5-9.1 19.1-2.9 6.6-5.5 13.7-8 21-.1.2-.3.4-.6.5-.4.2-.7.3-1.1.4-.5.1-1 .2-1.5.2-.5.1-1.1.1-1.6.1-.7 0-1.4-.1-2.1-.2-.6-.1-1.1-.5-1.4-1-1.6-2.8-3.1-5.3-4.5-7.4-1.4-2.1-2.8-4.1-4.2-6-1.4-1.8-2.9-3.6-4.5-5.4-1.7-1.3-3.5-3.1-5.4-5.1z"/><path d="M594.7 25.8c18 22.1 14.7 54.5-7.3 72.5-22.1 18-54.5 14.7-72.5-7.3-18-22.1-14.7-54.5 7.3-72.5 15.5-12.7 37-15.2 55-6.5" fill="none" stroke="#fff" stroke-width="3" stroke-linecap="round" stroke-miterlimit="10"/></g></svg>