<svg xmlns="http://www.w3.org/2000/svg" xmlns:xlink="http://www.w3.org/1999/xlink" version="1.1" id="Lager_1" x="0px" y="0px" viewBox="0 0 800 600" style="enable-background:new 0 0 800 600;" xml:space="preserve">
<style type="text/css">
	.st0{fill:none;stroke:#FFFFFF;stroke-width:4;stroke-miterlimit:10;}
	.st1{fill:none;stroke:#FFFFFF;stroke-width:2;stroke-miterlimit:10;}
	.st2{fill:none;stroke:#FFFFFF;stroke-width:2;stroke-linejoin:round;}
	.st3{fill:#FFFFFF;}
	.st4{fill:none;stroke:#FFFFFF;stroke-width:3;stroke-linecap:round;stroke-miterlimit:10;}
</style>
<title>TailorStore_</title>
<g id="perfect_fit">
	<path class="st0" d="M223.8,512.5l-0.6-32.9c0,0-2.9-2.9-3.1-9.3c-0.8-27.3,0-102.8,0-130.9c0-34.7,30.4-173.1,41-186.2   c7.2-8.8,53.5-26,82.5-36.1"/>
	<path class="st0" d="M518.2,512.5l-0.6-36c0,0-2.8-4.2-3.1-12.4c-1.2-27.8-5.8-69-8.1-95.6c-1.5-17.7-4-35.3-7.5-52.7   c0,0-0.6,47.2,1.2,77.6s6.8,111.7,6.8,111.7s-37.9,36-55.2,42.2s-57.7,6.2-57.7,6.2h-0.3c0,0-40.3,0-57.7-6.2S280.9,505,280.9,505   s5-81.3,6.8-111.7c1.9-30.4,1.3-77.6,1.3-77.6c-3.5,17.4-6,35-7.5,52.7c-2.2,26.6-6.9,67.8-8.1,95.6c-0.4,8.2-3.1,12.4-3.1,12.4   l-0.6,36"/>
	<path class="st0" d="M446.2,117.7c29.1,10.2,73.7,26.8,80.7,35.4c10.5,13.1,41,151.4,41,186.2c0,28.1,0.8,103.6,0,130.9   c-0.2,6.4-3.1,9.3-3.1,9.3l-0.6,32.9"/>
	<path class="st0" d="M353.5,92.5c0,0,5.8-8.3,39.7-8.3s42.6,8.3,42.6,8.3"/>
	<path class="st1" d="M425.2,112.8c-10.4-3.7-21.3-5.7-32.3-5.7c-9.9,0-19.8,1.7-29.2,5.1"/>
	<path class="st0" d="M365.1,153.9c6.4-12.9,15-32.2,23.7-33.5c-8.3-1.7-18-3.7-25.2-8.2c-6.4-4-10.7-10.1-10.1-19.6   c-4.6,3.5-9.9,24.6-9.9,24.6C346.9,133,355.5,140.3,365.1,153.9z"/>
	<path class="st0" d="M424.9,153.9c-6.4-12.9-15-32.2-23.7-33.5c15.7-3.1,36.6-7.6,35.2-27.8c5.3,2.6,9.9,24.6,9.9,24.6   C443.1,133,434.4,140.3,424.9,153.9z"/>
	<path class="st2" d="M518.3,512.8c-0.9-5.6,45.9-0.6,45.9-0.6S519.5,520.2,518.3,512.8z"/>
	<path class="st2" d="M270.1,512.8c0.9-5.6-45.9-0.6-45.9-0.6S268.8,520.2,270.1,512.8z"/>
	<circle class="st1" cx="393.7" cy="127.9" r="3.7"/>
	<circle class="st1" cx="393.7" cy="193.7" r="3.7"/>
	<circle class="st1" cx="393.7" cy="258.5" r="3.7"/>
	<circle class="st1" cx="393.7" cy="323.3" r="3.7"/>
	<circle class="st1" cx="393.7" cy="388" r="3.7"/>
	<circle class="st1" cx="393.7" cy="452.8" r="3.7"/>
	<circle class="st1" cx="393.7" cy="517.7" r="3.7"/>
	<path class="st3" d="M261.1,153.2c1.8-0.3,3.6-0.1,5.2,0.7c1.7,0.7,3.2,1.6,4.7,2.6c2.9,2.1,5.5,4.5,7.9,7.2c0.6,0.6,1.2,1.3,1.8,2   c0.6,0.7,1.2,1.4,1.7,2.1l1.6,2.2c0.5,0.7,0.9,1.6,1.3,2.3s0.9,1.6,1.3,2.4l1.1,2.5c0.8,1.6,1.3,3.3,2,5c2.2,6.7,3.9,13.7,4.8,20.7   c1,7,1.5,14.1,1.5,21.1c-1-7-2.1-13.9-3.5-20.8c-1.3-6.8-3-13.6-5.2-20.2c-0.6-1.6-1.1-3.3-1.8-4.9l-1-2.4   c-0.4-0.8-0.8-1.5-1.2-2.3c-1.6-3-3.5-5.9-5.7-8.5c-2.2-2.7-4.6-5.2-7.2-7.5c-1.3-1.1-2.7-2.1-4.2-3l-1.2-0.6   c-0.4-0.1-0.8-0.3-1.2-0.4C262.8,153.2,261.9,153.1,261.1,153.2z"/>
	<path class="st3" d="M527.1,153.2c-0.9-0.1-1.8,0-2.6,0.3c-0.4,0.1-0.8,0.3-1.2,0.4l-1.2,0.6c-1.5,0.9-2.9,1.8-4.2,3   c-2.6,2.3-5,4.8-7.2,7.5c-2.2,2.6-4.1,5.5-5.7,8.5c-0.4,0.8-0.8,1.5-1.2,2.3l-1,2.4c-0.7,1.6-1.2,3.2-1.8,4.9   c-2.2,6.6-3.9,13.4-5.2,20.2c-1.3,6.9-2.5,13.8-3.5,20.8c-0.1-7.1,0.4-14.1,1.5-21.1c1-7,2.6-14,4.8-20.7c0.6-1.7,1.2-3.4,1.9-5   l1.1-2.5c0.4-0.8,0.8-1.6,1.3-2.4c0.5-0.8,0.8-1.6,1.3-2.3l1.6-2.2c0.5-0.7,1.1-1.4,1.7-2.1c0.6-0.7,1.1-1.4,1.8-2   c2.4-2.7,5-5.1,7.9-7.2c1.5-1,3.1-1.9,4.7-2.6C523.4,153.1,525.3,152.9,527.1,153.2z"/>
	<path class="st1" d="M270.1,156.6c12.5-11.2,44.4-21.8,75.5-32.4"/>
	<path class="st1" d="M442.7,124.2c31.1,10.6,63,21.2,75.5,32.4"/>
	<path class="st1" d="M397.3,120.3h-3.7c-5.9,0-8.3,7.8-7.3,16.7c9.8,0.4,19.6,0,29.3-1.2"/>
	<line class="st1" x1="386.1" y1="137.2" x2="386.1" y2="553.4"/>
	<path class="st1" d="M386.1,137.2c-4,0.1-8-0.4-11.9-1.4"/>
	<path class="st3" d="M289,315.8c-0.5-3.3-0.6-6.6-0.2-9.9c0.3-3.3,0.8-6.6,1.5-9.8c0.7-3.2,1.6-6.4,2.6-9.5c0.5-1.6,1-3.1,1.6-4.6   c0.6-1.5,1.1-3.1,1.5-4.7c0.2,1.7,0.1,3.3-0.2,5c-0.2,1.6-0.5,3.3-0.8,4.9c-0.6,3.2-1.3,6.4-2,9.6s-1.4,6.3-2,9.5   C290.1,309.3,289.6,312.5,289,315.8z"/>
	<path class="st3" d="M499.2,315.8c-0.6-3.3-1.1-6.4-1.8-9.6c-0.6-3.2-1.3-6.3-2.1-9.5s-1.4-6.3-2-9.6c-0.3-1.6-0.6-3.2-0.8-4.9   c-0.3-1.6-0.4-3.3-0.2-5c0.4,1.6,0.9,3.1,1.5,4.7c0.5,1.5,1.1,3.1,1.6,4.6c1,3.1,1.9,6.3,2.6,9.5c0.7,3.2,1.2,6.5,1.5,9.8   C499.7,309.2,499.6,312.5,499.2,315.8z"/>
	<path class="st1" d="M223.2,479.6c18.7-2.4,39.4-6.2,46.5,0"/>
	<path class="st1" d="M518,479.6c10.4-5.8,28.3-3.2,46.8,0"/>
	<path class="st3" d="M528.7,65c-0.7-0.7-1.3-1.4-1.9-2.1c-0.4-0.5-0.7-1-0.8-1.7c0-0.5,0.3-1,0.7-1.3c0.5-0.4,1.1-0.7,1.7-1   c0.7-0.3,1.4-0.4,2.1-0.6c0.6-0.1,1.2-0.2,1.9-0.2c0.5,0,0.9,0.1,1.3,0.4c0.4,0.3,0.9,0.7,1.2,1.1c3.2,3.2,6.1,6.6,8.7,10.3   c2.6,3.7,5,7.3,7.2,10.9c4.2-11.7,9.2-23.2,14.9-34.3c5.5-10.9,11.9-21.3,19.1-31.1c0.8-1,1.9-1.8,3.2-2.2c1.6-0.5,3.2-0.8,4.9-0.8   c0.5,0,1,0.1,1.4,0.3c0.3,0.2,0.5,0.6,0.5,1c0,0.4,0,0.7-0.2,1c-0.2,0.4-0.4,0.8-0.7,1.1c-3.8,5-7.5,10.2-11,15.7   s-6.9,11.2-10.2,17.3c-3.2,6.1-6.3,12.5-9.1,19.1c-2.9,6.6-5.5,13.7-8,21c-0.1,0.2-0.3,0.4-0.6,0.5c-0.4,0.2-0.7,0.3-1.1,0.4   c-0.5,0.1-1,0.2-1.5,0.2c-0.5,0.1-1.1,0.1-1.6,0.1c-0.7,0-1.4-0.1-2.1-0.2c-0.6-0.1-1.1-0.5-1.4-1c-1.6-2.8-3.1-5.3-4.5-7.4   c-1.4-2.1-2.8-4.1-4.2-6c-1.4-1.8-2.9-3.6-4.5-5.4C532.4,68.8,530.6,67,528.7,65z"/>
	<path class="st4" d="M594.7,25.8c18,22.1,14.7,54.5-7.3,72.5c-22.1,18-54.5,14.7-72.5-7.3c-18-22.1-14.7-54.5,7.3-72.5   c15.5-12.7,37-15.2,55-6.5"/>
</g>
</svg>