<svg xmlns="http://www.w3.org/2000/svg" viewBox="0 0 800 600"><defs><style>.cls-1,.cls-2,.cls-4,.cls-5{fill:none}.cls-2,.cls-4,.cls-5{stroke:#fff;stroke-miterlimit:10}.cls-4{stroke-width:4px}.cls-5{stroke-width:2px}.cls-6{fill:#fff}</style><clipPath id="clip-path"><path class="cls-1" d="M520.08 355.38l3.26-5.88-3.26-5.88 2.78-7.04-7.04 2.79-5.89-3.27-5.88 3.27-5.89-3.27-5.88 3.27-5.89-3.27-5.88 3.27-5.88-3.27-5.89 3.27-5.88-3.27-5.88 3.27-5.89-3.27-3.37 1.87-.07.09 1.96 6.43-4.42 5.07 1.96 6.44-4.42 5.06 1.96 6.44-4.42 5.07 1.96 6.43-4.42 5.08 1.96 6.43-4.42 5.07 1.97 6.44-4.43 5.07 1.97 6.44-4.42 5.07 1.96 6.43-4.42 5.08 1.96 6.43-4.45 5.22 1.28 7.33-6.3-4.2-6.43 1.97-5.08-4.42-6.43 1.96-5.07-4.42-6.43 1.96-5.07-4.42-4.44 1.35-2.64 4.77 3.26 5.88-3.26 5.88 3.26 5.89-3.26 5.88 3.26 5.88-2.79 7.04 7.04-2.79 5.89 3.27 5.89-3.27 5.88 3.27 5.89-3.27 5.88 3.27 5.88-3.27 5.89 3.27 5.88-3.27 5.89 3.27 5.88-3.27 5.88 3.27 5.88-3.27 5.89 3.27 5.88-3.27 5.88 3.27 5.89-3.27 5.88 3.27 5.88-3.27 5.88 3.27 5.88-3.27 5.88 3.27 5.89-3.27 7.03 2.79-2.78-6.9 3.26-6.03-3.26-5.89 3.26-5.88-3.26-5.89 3.26-5.88-3.26-5.88 3.26-5.89-3.26-5.88 3.26-5.89-3.26-5.88 3.26-5.88-3.26-5.88 3.26-5.89-3.26-5.88 3.26-5.88-3.26-5.88 3.26-5.89-3.26-5.88 3.26-5.88-3.26-5.88z"/></clipPath><clipPath id="clip-path-2"><path class="cls-2" d="M345.57 336.1h222.39v144.47H345.57z"/></clipPath><pattern id="New_Pattern_Swatch_1" data-name="New Pattern Swatch 1" width="72" height="72" patternUnits="userSpaceOnUse"><path class="cls-1" d="M0 0h72v72H0z"/><path d="M45 71.75v72.5M9 71.75v72.5m54-72.5v72.5m-36-72.5v72.5m18-72.5v72.5M9 71.75v72.5m54-72.5v72.5m-36-72.5v72.5M45-.25v72.5M9-.25v72.5M63-.25v72.5M27-.25v72.5M71.75 9h72.5m-72.5 36h72.5m-72.5-18h72.5m-72.5 36h72.5M71.75 9h72.5m-72.5 36h72.5m-72.5-18h72.5m-72.5 36h72.5M-.25 9h72.5M-.25 45h72.5M-.25 27h72.5M-.25 63h72.5M45 71.75v72.5M9 71.75v72.5m54-72.5v72.5m-36-72.5v72.5M71.75 9h72.5m-72.5 36h72.5m-72.5-18h72.5m-72.5 36h72.5M-.25 9h72.5M-.25 45h72.5M-.25 27h72.5M-.25 63h72.5M45-.25v72.5M9-.25v72.5M63-.25v72.5M27-.25v72.5M-72.25 9H.25m-72.5 36H.25m-72.5-18H.25m-72.5 36H.25M45-72.25V.25M9-72.25V.25m54-72.5V.25m-36-72.5V.25M-.25 9h72.5M-.25 45h72.5M-.25 27h72.5M-.25 63h72.5M-72.25 9H.25m-72.5 36H.25m-72.5-18H.25m-72.5 36H.25m-72.5-54H.25m-72.5 36H.25m-72.5-18H.25m-72.5 36H.25M45-.25v72.5M9-.25v72.5M63-.25v72.5M27-.25v72.5m18-144.5V.25M9-72.25V.25m54-72.5V.25m-36-72.5V.25m18-72.5V.25M9-72.25V.25m54-72.5V.25m-36-72.5V.25" stroke-width=".3" stroke="#fff" fill="none"/></pattern></defs><g id="Layer_7" data-name="Layer 7"><path class="cls-4" d="M243 173.56s7.84-19.34 76.13-35 89.6-3 89.6-3"/><path class="cls-5" d="M406.45 169.42c-13.22-.9-38-.78-75.65 7.79-35.11 8-50.71 16.55-68.16 26.66"/><path class="cls-4" d="M294.68 291.79c6.82-28.93 15.24-71.7 32.24-78.5-17.48.5-38 .93-54.46-4.87-14.72-5.18-26.22-15.33-29.47-34.86-7.67 9.21-8.63 54.18-8.63 54.18 14.01 30.41 34.8 41.1 60.32 64.05zM415 264.16c-18.76-23.05-45-57.86-63.27-56.56 30.21-13.59 70.06-32.13 58.19-72.37 12 2.78 31.4 45 31.4 45 .68 33.47-13.42 52.15-26.32 83.93z"/><circle class="cls-5" cx="340.14" cy="226.24" r="7.63"/><path class="cls-5" d="M344.09 209.35l-7.44 1.71c-11.86 2.72-10 24-4 41.51 17.63-3.24 41.35-12.57 57.15-18.69M332.33 253a126.16 126.16 0 0 1-28.87 2.81"/><circle class="cls-4" cx="473.21" cy="265.65" r="25.99"/><path class="cls-6" d="M473.21 246a19.62 19.62 0 1 1-19.62 19.62A19.64 19.64 0 0 1 473.21 246m0-2a21.62 21.62 0 1 0 21.63 21.62A21.62 21.62 0 0 0 473.21 244z"/><path class="cls-6" d="M467.8 257.78a2.52 2.52 0 1 1-2.52 2.52 2.52 2.52 0 0 1 2.52-2.52m0-2a4.52 4.52 0 1 0 4.52 4.52 4.52 4.52 0 0 0-4.52-4.52zm10.83 2a2.52 2.52 0 1 1-2.52 2.52 2.52 2.52 0 0 1 2.52-2.52m0-2a4.52 4.52 0 1 0 4.52 4.52 4.52 4.52 0 0 0-4.52-4.52zm-10.83 12.7a2.52 2.52 0 1 1-2.52 2.52 2.52 2.52 0 0 1 2.52-2.52m0-2a4.52 4.52 0 1 0 4.52 4.52 4.52 4.52 0 0 0-4.52-4.52zm10.83 2a2.52 2.52 0 1 1-2.52 2.52 2.52 2.52 0 0 1 2.52-2.52m0-2a4.52 4.52 0 1 0 4.52 4.52 4.52 4.52 0 0 0-4.52-4.52z"/><circle class="cls-4" cx="535.34" cy="250.54" r="25.99"/><path class="cls-6" d="M529.07 247.09a1.85 1.85 0 0 1 1.6.92 1.82 1.82 0 0 1 .18 1.39 1.78 1.78 0 0 1-.85 1.12 1.74 1.74 0 0 1-.92.25 1.84 1.84 0 0 1-.93-3.43 1.9 1.9 0 0 1 .92-.25m0-2a3.74 3.74 0 0 0-1.92.53 3.81 3.81 0 1 0 1.92-.53zm7.93-2.63a1.85 1.85 0 0 1 1.6.92 1.82 1.82 0 0 1 .18 1.39 1.78 1.78 0 0 1-.85 1.12 1.74 1.74 0 0 1-.92.25 1.84 1.84 0 0 1-.93-3.42 1.81 1.81 0 0 1 .92-.26m0-2a3.74 3.74 0 0 0-1.92.53 3.81 3.81 0 1 0 1.92-.53zm-3.36 14.48a1.83 1.83 0 0 1 1.59.91 1.84 1.84 0 0 1-.66 2.52 1.84 1.84 0 0 1-1.85-3.18 1.9 1.9 0 0 1 .92-.25m0-2a3.84 3.84 0 1 0 3.32 1.91 3.82 3.82 0 0 0-3.32-1.91zm7.95-2.63a1.84 1.84 0 0 1 .93 3.43 1.84 1.84 0 0 1-1.85-3.18 1.9 1.9 0 0 1 .92-.25m0-2a3.84 3.84 0 1 0 3.32 1.91 3.82 3.82 0 0 0-3.32-1.91z"/><circle class="cls-4" cx="497.58" cy="203.67" r="23.98"/><path class="cls-6" d="M497.56 191.66a11.75 11.75 0 0 1 2.14.19 12 12 0 1 1-2.14-.19m0-2a14 14 0 0 0-2.46 27.79 14 14 0 1 0 2.46-27.79z"/><path class="cls-6" d="M493.53 195.76h.39a2.12 2.12 0 0 1 1.39.9 2.17 2.17 0 0 1-1.77 3.41 1.72 1.72 0 0 1-.39 0 2.17 2.17 0 0 1 .38-4.3m0-2a4.17 4.17 0 0 0-.74 8.27 3.81 3.81 0 0 0 .75.07 4.17 4.17 0 0 0 .73-8.28 4.71 4.71 0 0 0-.74-.06zm9.84 3.76a2.56 2.56 0 0 1 .39 0 2.12 2.12 0 0 1 1.39.9 2.17 2.17 0 0 1-1.77 3.41 1.72 1.72 0 0 1-.39 0 2.17 2.17 0 0 1 .38-4.3m0-2a4.17 4.17 0 0 0-.74 8.27 3.81 3.81 0 0 0 .75.07 4.17 4.17 0 0 0 .73-8.28 4.71 4.71 0 0 0-.74-.06zm-11.59 9.93a2.56 2.56 0 0 1 .39 0 2.17 2.17 0 0 1-.38 4.31 1.72 1.72 0 0 1-.39 0 2.16 2.16 0 0 1-1.4-.89 2.19 2.19 0 0 1-.35-1.63 2.17 2.17 0 0 1 2.13-1.78m0-2a4.17 4.17 0 0 0-.73 8.27 3.78 3.78 0 0 0 .74.07 4.17 4.17 0 0 0 .73-8.28 4.62 4.62 0 0 0-.74-.06zm9.84 3.76a2.56 2.56 0 0 1 .39 0 2.17 2.17 0 0 1-.38 4.31 1.72 1.72 0 0 1-.39 0 2.16 2.16 0 0 1-1.4-.89 2.19 2.19 0 0 1-.35-1.63 2.17 2.17 0 0 1 2.13-1.78m0-2a4.17 4.17 0 0 0-.73 8.27 3.78 3.78 0 0 0 .74.07 4.17 4.17 0 0 0 .73-8.28 4.62 4.62 0 0 0-.74-.06z"/><path class="cls-4" d="M426.77 449.09l-6.3-4.2-6.43 1.97-5.08-4.42-6.43 1.96-5.07-4.42-6.43 1.96-5.07-4.42-6.44 1.96-5.07-4.42-6.43 1.96-5.07-4.42-6.44 1.96-5.07-4.42-6.43 1.97-5.08-4.43-6.43 1.97-5.07-4.42-6.44 1.96-5.07-4.42-6.44 1.96-5.07-4.42-6.44 1.96-5.07-4.42-7.47 1.25 4.19-6.3-1.96-6.43 4.42-5.07-1.96-6.44 4.42-5.07-1.96-6.43 4.42-5.07-1.96-6.44 4.42-5.06-1.97-6.44 4.43-5.07-1.97-6.44 4.43-5.07-1.97-6.43 4.42-5.08-1.96-6.43 4.42-5.07-1.96-6.44 4.42-5.07-1.96-6.44 4.42-5.07-1.96-6.44 4.42-5.07-1.25-7.47 6.3 4.19 6.43-1.96 5.07 4.42 6.44-1.96 5.07 4.42 6.43-1.96 5.07 4.42 6.43-1.96 5.07 4.42 6.44-1.97 5.07 4.43 6.43-1.97 5.08 4.42 6.43-1.96 5.07 4.43 6.44-1.97 5.07 4.42 6.44-1.96 5.07 4.42 6.43-1.96 5.08 4.42 6.43-1.96 5.08 4.42 7.47-1.25-4.2 6.3 1.97 6.43-4.42 5.07 1.96 6.44-4.42 5.07 1.96 6.43-4.42 5.07 1.96 6.44-4.42 5.06 1.96 6.44-4.42 5.07 1.96 6.43-4.42 5.08 1.97 6.43-4.43 5.07 1.97 6.44-4.43 5.07 1.97 6.44-4.42 5.07 1.96 6.43-4.42 5.08 1.96 6.43-4.45 5.22 1.28 7.33z"/><g clip-path="url(#clip-path)"><g clip-path="url(#clip-path-2)"><path d="M345.57 468.11h222.38m-222.38-47.82h222.38m-222.38-47.83h222.38M345.57 444.2h222.38m-222.38-47.82h222.38m-222.38-47.83h222.38" stroke-width="2.4" stroke="#fff" fill="none"/></g><path class="cls-2" d="M345.57 336.1h222.39v144.47H345.57z"/></g><path class="cls-6" d="M526.46 483.66L516 479.51l-6 3.34-5.88-3.26-5.88 3.26-5.88-3.26-5.88 3.26-5.88-3.26-5.89 3.26-5.88-3.26-5.88 3.26-5.95-3.26-5.88 3.26-5.88-3.26-5.88 3.26-5.89-3.26-5.88 3.26-5.89-3.26-5.88 3.26-5.88-3.26-5.89 3.26-5.88-3.26-5.89 3.26-6-3.34-10.46 4.14 4.14-10.45-3.34-6 3.26-5.88-3.26-5.89 3.26-5.88-3.26-5.88 3.58-6.44 6.27-1.92 5.06 4.42 6.44-2 5.07 4.42 6.43-2 5.07 4.42 6.28-1.91 3.21 2.13-.64-3.66 4.35-5.1-2-6.45 4.42-5.07-2-6.44 4.42-5.07-2-6.44 4.42-5.07-2-6.43 4.42-5.08-2-6.43 4.42-5.07-2-6.44 4.42-5.07-2-6.44 4.43-5.06-2-6.44 4.42-5.07-2-6.43 1-1.19 4.65-2.58 5.89 3.27 5.88-3.27 5.88 3.27 5.89-3.27 5.88 3.27 5.88-3.27 5.89 3.27 5.88-3.27 5.89 3.27 5.88-3.27 6 3.35 10.82-4.11-4.14 10.45 3.35 6-3.27 5.88 3.27 5.88-3.27 5.88 3.27 5.89-3.27 5.88 3.27 5.88-3.27 5.88 3.27 5.88-3.27 5.89 3.27 5.88-3.27 5.88 3.27 5.89-3.27 5.96 3.27 5.88-3.27 5.89 3.27 5.88-3.27 5.88 3.27 5.89-3.27 5.88 3.26 5.87-3.33 6.17zm-139.92-8.57l5.74 3.19 5.89-3.27 5.88 3.27 5.89-3.27 5.88 3.27 5.88-3.28 5.89 3.27 5.88-3.27 5.89 3.27 5.88-3.27 5.88 3.27L457 475l5.89 3.27 5.88-3.27 5.88 3.27 5.89-3.27 5.88 3.27 5.88-3.27 5.88 3.27 5.88-3.27 5.88 3.27 5.74-3.19 3.58 1.42-1.38-3.44 3.18-5.9-3.27-5.9 3.26-5.88-3.26-5.89 3.26-5.88-3.26-5.88 3.26-5.89-3.26-5.84 3.26-5.88-3.26-5.89 3.26-5.88-3.26-5.88 3.26-5.89-3.26-5.88 3.26-5.88-3.26-5.88 3.26-5.88-3.26-5.89 3.26-5.88-3.26-5.88 3.26-5.88-3.18-5.74 1.43-3.62-3.62 1.43-5.75-3.18-5.88 3.26-5.89-3.26-5.88 3.26-5.89-3.26-5.88 3.26-5.88-3.26-5.89 3.26-5.88-3.26-5.86 3.23-5.89-3.26-1.11.61 1.83 6-4.4 5 2 6.43-4.43 5.11 2 6.44-4.42 5.07 2 6.43-4.42 5.07 2 6.44-4.42 5.07 2 6.44-4.42 5.07 2 6.43-4.42 5.08 2 6.43-4.42 5.07 2 6.43-4.55 5.34 1.92 11-9.39-6.26-6.59 2-5.07-4.42-6.44 2-5.36-4.46-6.43 2-5.07-4.42-2.6.79-1.72 3.09 3.27 5.88-3.27 5.88 3.27 5.89-3.27 5.88 3.19 5.74-1.44 3.62z"/><path fill="url(#New_Pattern_Swatch_1)" stroke-width="4" stroke-miterlimit="10" stroke="#fff" d="M491.47 489.13l-4.68-4.83 1.13-4.57-1.5.84-5.88-3.27-5.89 3.27-5.88-3.27-5.88 3.27-5.89-3.27-5.88 3.27-5.88-3.27-5.88 3.27-5.89-3.27-5.88 3.27-5.89-3.27-5.88 3.27-5.88-3.27-5.89 3.27-5.88-3.27-5.89 3.27-5.89-3.27-7.04 2.79 2.79-7.04-3.26-5.88 3.26-5.88-3.26-5.89 3.26-5.88-3.26-5.88 2.64-4.77-2 .61-5.07-4.42-6.43 1.96-5.07-4.42-6.44 1.96-5.07-4.42-6.43 1.97-5.08-4.43-6.43 1.97-5.07-4.42-2.54.77 3.22 3.33-1.62 6.53 4.68 4.83-1.62 6.53 4.69 4.83-1.63 6.53 4.69 4.83-1.62 6.53 4.68 4.83-1.62 6.53 4.68 4.83-1.62 6.53 4.68 4.83-1.62 6.53 4.68 4.83-1.62 6.53 4.69 4.82-1.63 6.53 4.69 4.84-.86 7.51 6.07-4.52 6.54 1.62 4.83-4.68 6.53 1.62 4.83-4.69 6.53 1.62 4.83-4.68 6.53 1.62 4.84-4.68 6.53 1.62 4.83-4.68 6.53 1.62 4.83-4.68 6.53 1.62 4.83-4.69 6.53 1.63 4.83-4.69 6.53 1.62 4.83-4.68 6.52 1.62 4.83-4.68 6.53 1.62 4.83-4.68 7.52.86-4.48-5.94 1.58-6.67z"/></g></svg>