<svg xmlns="http://www.w3.org/2000/svg" xmlns:xlink="http://www.w3.org/1999/xlink" viewBox="0 0 800 600"><defs><style>.cls-1,.cls-2,.cls-3,.cls-4,.cls-5,.cls-9{fill:none;}.cls-10,.cls-2,.cls-3,.cls-4,.cls-5,.cls-9{stroke:#fff;}.cls-10,.cls-2,.cls-4,.cls-5{stroke-miterlimit:10;}.cls-3{stroke-width:0.3px;}.cls-10,.cls-4{stroke-width:4px;}.cls-5{stroke-width:2px;}.cls-6{fill:#fff;}.cls-7{clip-path:url(#clip-path);}.cls-8{clip-path:url(#clip-path-2);}.cls-9{stroke-width:2.4px;}.cls-10{fill:url(#New_Pattern_Swatch_1);}</style><clipPath id="clip-path"><polygon class="cls-1" points="520.08 355.38 523.34 349.5 520.08 343.62 522.86 336.58 515.82 339.37 509.93 336.1 504.05 339.37 498.16 336.1 492.28 339.37 486.39 336.1 480.51 339.37 474.63 336.1 468.74 339.37 462.86 336.1 456.98 339.37 451.09 336.1 447.72 337.97 447.65 338.06 449.61 344.49 445.19 349.56 447.15 356 442.73 361.06 444.69 367.5 440.27 372.57 442.23 379 437.81 384.08 439.77 390.51 435.35 395.58 437.32 402.02 432.89 407.09 434.86 413.53 430.44 418.6 432.4 425.03 427.98 430.11 429.94 436.54 425.49 441.76 426.77 449.09 420.47 444.89 414.04 446.86 408.96 442.44 402.53 444.4 397.46 439.98 391.03 441.94 385.96 437.52 381.52 438.87 378.88 443.64 382.14 449.52 378.88 455.4 382.14 461.29 378.88 467.17 382.14 473.05 379.35 480.09 386.39 477.3 392.28 480.57 398.17 477.3 404.05 480.57 409.94 477.3 415.82 480.57 421.7 477.3 427.59 480.57 433.47 477.3 439.36 480.57 445.24 477.3 451.12 480.57 457 477.3 462.89 480.57 468.77 477.3 474.65 480.57 480.54 477.3 486.42 480.57 492.3 477.3 498.18 480.57 504.06 477.3 509.94 480.57 515.83 477.3 522.86 480.09 520.08 473.19 523.34 467.16 520.08 461.27 523.34 455.39 520.08 449.5 523.34 443.62 520.08 437.74 523.34 431.85 520.08 425.97 523.34 420.08 520.08 414.2 523.34 408.32 520.08 402.44 523.34 396.55 520.08 390.67 523.34 384.79 520.08 378.91 523.34 373.02 520.08 367.14 523.34 361.26 520.08 355.38"/></clipPath><clipPath id="clip-path-2"><rect class="cls-2" x="345.57" y="336.1" width="222.39" height="144.47"/></clipPath><pattern id="New_Pattern_Swatch_1" data-name="New Pattern Swatch 1" width="72" height="72" patternUnits="userSpaceOnUse" viewBox="0 0 72 72"><rect class="cls-1" width="72" height="72"/><line class="cls-3" x1="45" y1="71.75" x2="45" y2="144.25"/><line class="cls-3" x1="9" y1="71.75" x2="9" y2="144.25"/><line class="cls-3" x1="63" y1="71.75" x2="63" y2="144.25"/><line class="cls-3" x1="27" y1="71.75" x2="27" y2="144.25"/><line class="cls-3" x1="45" y1="71.75" x2="45" y2="144.25"/><line class="cls-3" x1="9" y1="71.75" x2="9" y2="144.25"/><line class="cls-3" x1="63" y1="71.75" x2="63" y2="144.25"/><line class="cls-3" x1="27" y1="71.75" x2="27" y2="144.25"/><line class="cls-3" x1="45" y1="-0.25" x2="45" y2="72.25"/><line class="cls-3" x1="9" y1="-0.25" x2="9" y2="72.25"/><line class="cls-3" x1="63" y1="-0.25" x2="63" y2="72.25"/><line class="cls-3" x1="27" y1="-0.25" x2="27" y2="72.25"/><line class="cls-3" x1="71.75" y1="9" x2="144.25" y2="9"/><line class="cls-3" x1="71.75" y1="45" x2="144.25" y2="45"/><line class="cls-3" x1="71.75" y1="27" x2="144.25" y2="27"/><line class="cls-3" x1="71.75" y1="63" x2="144.25" y2="63"/><line class="cls-3" x1="71.75" y1="9" x2="144.25" y2="9"/><line class="cls-3" x1="71.75" y1="45" x2="144.25" y2="45"/><line class="cls-3" x1="71.75" y1="27" x2="144.25" y2="27"/><line class="cls-3" x1="71.75" y1="63" x2="144.25" y2="63"/><line class="cls-3" x1="-0.25" y1="9" x2="72.25" y2="9"/><line class="cls-3" x1="-0.25" y1="45" x2="72.25" y2="45"/><line class="cls-3" x1="-0.25" y1="27" x2="72.25" y2="27"/><line class="cls-3" x1="-0.25" y1="63" x2="72.25" y2="63"/><line class="cls-3" x1="45" y1="71.75" x2="45" y2="144.25"/><line class="cls-3" x1="9" y1="71.75" x2="9" y2="144.25"/><line class="cls-3" x1="63" y1="71.75" x2="63" y2="144.25"/><line class="cls-3" x1="27" y1="71.75" x2="27" y2="144.25"/><line class="cls-3" x1="71.75" y1="9" x2="144.25" y2="9"/><line class="cls-3" x1="71.75" y1="45" x2="144.25" y2="45"/><line class="cls-3" x1="71.75" y1="27" x2="144.25" y2="27"/><line class="cls-3" x1="71.75" y1="63" x2="144.25" y2="63"/><line class="cls-3" x1="-0.25" y1="9" x2="72.25" y2="9"/><line class="cls-3" x1="-0.25" y1="45" x2="72.25" y2="45"/><line class="cls-3" x1="-0.25" y1="27" x2="72.25" y2="27"/><line class="cls-3" x1="-0.25" y1="63" x2="72.25" y2="63"/><line class="cls-3" x1="45" y1="-0.25" x2="45" y2="72.25"/><line class="cls-3" x1="9" y1="-0.25" x2="9" y2="72.25"/><line class="cls-3" x1="63" y1="-0.25" x2="63" y2="72.25"/><line class="cls-3" x1="27" y1="-0.25" x2="27" y2="72.25"/><line class="cls-3" x1="-72.25" y1="9" x2="0.25" y2="9"/><line class="cls-3" x1="-72.25" y1="45" x2="0.25" y2="45"/><line class="cls-3" x1="-72.25" y1="27" x2="0.25" y2="27"/><line class="cls-3" x1="-72.25" y1="63" x2="0.25" y2="63"/><line class="cls-3" x1="45" y1="-72.25" x2="45" y2="0.25"/><line class="cls-3" x1="9" y1="-72.25" x2="9" y2="0.25"/><line class="cls-3" x1="63" y1="-72.25" x2="63" y2="0.25"/><line class="cls-3" x1="27" y1="-72.25" x2="27" y2="0.25"/><line class="cls-3" x1="-0.25" y1="9" x2="72.25" y2="9"/><line class="cls-3" x1="-0.25" y1="45" x2="72.25" y2="45"/><line class="cls-3" x1="-0.25" y1="27" x2="72.25" y2="27"/><line class="cls-3" x1="-0.25" y1="63" x2="72.25" y2="63"/><line class="cls-3" x1="-72.25" y1="9" x2="0.25" y2="9"/><line class="cls-3" x1="-72.25" y1="45" x2="0.25" y2="45"/><line class="cls-3" x1="-72.25" y1="27" x2="0.25" y2="27"/><line class="cls-3" x1="-72.25" y1="63" x2="0.25" y2="63"/><line class="cls-3" x1="-72.25" y1="9" x2="0.25" y2="9"/><line class="cls-3" x1="-72.25" y1="45" x2="0.25" y2="45"/><line class="cls-3" x1="-72.25" y1="27" x2="0.25" y2="27"/><line class="cls-3" x1="-72.25" y1="63" x2="0.25" y2="63"/><line class="cls-3" x1="45" y1="-0.25" x2="45" y2="72.25"/><line class="cls-3" x1="9" y1="-0.25" x2="9" y2="72.25"/><line class="cls-3" x1="63" y1="-0.25" x2="63" y2="72.25"/><line class="cls-3" x1="27" y1="-0.25" x2="27" y2="72.25"/><line class="cls-3" x1="45" y1="-72.25" x2="45" y2="0.25"/><line class="cls-3" x1="9" y1="-72.25" x2="9" y2="0.25"/><line class="cls-3" x1="63" y1="-72.25" x2="63" y2="0.25"/><line class="cls-3" x1="27" y1="-72.25" x2="27" y2="0.25"/><line class="cls-3" x1="45" y1="-72.25" x2="45" y2="0.25"/><line class="cls-3" x1="9" y1="-72.25" x2="9" y2="0.25"/><line class="cls-3" x1="63" y1="-72.25" x2="63" y2="0.25"/><line class="cls-3" x1="27" y1="-72.25" x2="27" y2="0.25"/></pattern></defs><title>TailorStore_</title><g id="Layer_7" data-name="Layer 7"><path class="cls-4" d="M243,173.56s7.84-19.34,76.13-35,89.6-3,89.6-3"/><path class="cls-5" d="M406.45,169.42c-13.22-.9-38-.78-75.65,7.79-35.11,8-50.71,16.55-68.16,26.66"/><path class="cls-4" d="M294.68,291.79c6.82-28.93,15.24-71.7,32.24-78.5-17.48.5-38,.93-54.46-4.87-14.72-5.18-26.22-15.33-29.47-34.86-7.67,9.21-8.63,54.18-8.63,54.18C248.37,258.15,269.16,268.84,294.68,291.79Z"/><path class="cls-4" d="M415,264.16c-18.76-23.05-45-57.86-63.27-56.56,30.21-13.59,70.06-32.13,58.19-72.37,12,2.78,31.4,45,31.4,45C442,213.7,427.9,232.38,415,264.16Z"/><circle class="cls-5" cx="340.14" cy="226.24" r="7.63"/><path class="cls-5" d="M344.09,209.35l-7.44,1.71c-11.86,2.72-10,24-4,41.51C350.28,249.33,374,240,389.8,233.88"/><path class="cls-5" d="M332.33,253a126.16,126.16,0,0,1-28.87,2.81"/><circle class="cls-4" cx="473.21" cy="265.65" r="25.99"/><path class="cls-6" d="M473.21,246a19.62,19.62,0,1,1-19.62,19.62A19.64,19.64,0,0,1,473.21,246m0-2a21.62,21.62,0,1,0,21.63,21.62A21.62,21.62,0,0,0,473.21,244Z"/><path class="cls-6" d="M467.8,257.78a2.52,2.52,0,1,1-2.52,2.52,2.52,2.52,0,0,1,2.52-2.52m0-2a4.52,4.52,0,1,0,4.52,4.52,4.52,4.52,0,0,0-4.52-4.52Z"/><path class="cls-6" d="M478.63,257.78a2.52,2.52,0,1,1-2.52,2.52,2.52,2.52,0,0,1,2.52-2.52m0-2a4.52,4.52,0,1,0,4.52,4.52,4.52,4.52,0,0,0-4.52-4.52Z"/><path class="cls-6" d="M467.8,268.48a2.52,2.52,0,1,1-2.52,2.52,2.52,2.52,0,0,1,2.52-2.52m0-2a4.52,4.52,0,1,0,4.52,4.52,4.52,4.52,0,0,0-4.52-4.52Z"/><path class="cls-6" d="M478.63,268.48a2.52,2.52,0,1,1-2.52,2.52,2.52,2.52,0,0,1,2.52-2.52m0-2a4.52,4.52,0,1,0,4.52,4.52,4.52,4.52,0,0,0-4.52-4.52Z"/><circle class="cls-4" cx="535.34" cy="250.54" r="25.99"/><path class="cls-6" d="M529.07,247.09h0a1.85,1.85,0,0,1,1.6.92,1.82,1.82,0,0,1,.18,1.39,1.78,1.78,0,0,1-.85,1.12,1.74,1.74,0,0,1-.92.25,1.84,1.84,0,0,1-.93-3.43,1.9,1.9,0,0,1,.92-.25m0-2a3.74,3.74,0,0,0-1.92.53,3.81,3.81,0,1,0,1.92-.53Z"/><path class="cls-6" d="M537,242.46h0a1.85,1.85,0,0,1,1.6.92,1.82,1.82,0,0,1,.18,1.39,1.78,1.78,0,0,1-.85,1.12,1.74,1.74,0,0,1-.92.25,1.84,1.84,0,0,1-.93-3.42,1.81,1.81,0,0,1,.92-.26m0-2a3.74,3.74,0,0,0-1.92.53,3.81,3.81,0,1,0,1.92-.53Z"/><path class="cls-6" d="M533.64,254.94h0a1.83,1.83,0,0,1,1.59.91,1.84,1.84,0,0,1-.66,2.52,1.84,1.84,0,0,1-1.85-3.18,1.9,1.9,0,0,1,.92-.25m0-2a3.84,3.84,0,1,0,3.32,1.91,3.82,3.82,0,0,0-3.32-1.91Z"/><path class="cls-6" d="M541.59,250.31h0a1.84,1.84,0,0,1,.93,3.43,1.84,1.84,0,0,1-1.85-3.18,1.9,1.9,0,0,1,.92-.25m0-2a3.84,3.84,0,1,0,3.32,1.91,3.82,3.82,0,0,0-3.32-1.91Z"/><circle class="cls-4" cx="497.58" cy="203.67" r="23.98"/><path class="cls-6" d="M497.56,191.66h0a11.75,11.75,0,0,1,2.14.19,12,12,0,1,1-2.14-.19m0-2a14,14,0,0,0-2.46,27.79,14,14,0,1,0,2.46-27.79Z"/><path class="cls-6" d="M493.53,195.76h0l.39,0a2.12,2.12,0,0,1,1.39.9,2.17,2.17,0,0,1-1.77,3.41,1.72,1.72,0,0,1-.39,0,2.17,2.17,0,0,1,.38-4.3m0-2a4.17,4.17,0,0,0-.74,8.27,3.81,3.81,0,0,0,.75.07,4.17,4.17,0,0,0,.73-8.28,4.71,4.71,0,0,0-.74-.06Z"/><path class="cls-6" d="M503.37,197.53h0a2.56,2.56,0,0,1,.39,0,2.12,2.12,0,0,1,1.39.9,2.17,2.17,0,0,1-1.77,3.41,1.72,1.72,0,0,1-.39,0,2.17,2.17,0,0,1,.38-4.3m0-2a4.17,4.17,0,0,0-.74,8.27,3.81,3.81,0,0,0,.75.07,4.17,4.17,0,0,0,.73-8.28,4.71,4.71,0,0,0-.74-.06Z"/><path class="cls-6" d="M491.78,205.47h0a2.56,2.56,0,0,1,.39,0,2.17,2.17,0,0,1-.38,4.31,1.72,1.72,0,0,1-.39,0,2.16,2.16,0,0,1-1.4-.89,2.19,2.19,0,0,1-.35-1.63,2.17,2.17,0,0,1,2.13-1.78m0-2a4.17,4.17,0,0,0-.73,8.27,3.78,3.78,0,0,0,.74.07,4.17,4.17,0,0,0,.73-8.28,4.62,4.62,0,0,0-.74-.06Z"/><path class="cls-6" d="M501.62,207.24h0a2.56,2.56,0,0,1,.39,0,2.17,2.17,0,0,1-.38,4.31,1.72,1.72,0,0,1-.39,0,2.16,2.16,0,0,1-1.4-.89,2.19,2.19,0,0,1-.35-1.63,2.17,2.17,0,0,1,2.13-1.78m0-2a4.17,4.17,0,0,0-.73,8.27,3.78,3.78,0,0,0,.74.07,4.17,4.17,0,0,0,.73-8.28,4.62,4.62,0,0,0-.74-.06Z"/><polygon class="cls-4" points="426.77 449.09 420.47 444.89 414.04 446.86 408.96 442.44 402.53 444.4 397.46 439.98 391.03 441.94 385.96 437.52 379.52 439.48 374.45 435.06 368.02 437.02 362.95 432.6 356.51 434.56 351.44 430.14 345.01 432.11 339.93 427.68 333.5 429.65 328.43 425.23 321.99 427.19 316.92 422.77 310.48 424.73 305.41 420.31 298.97 422.27 293.9 417.85 286.43 419.1 290.62 412.8 288.66 406.37 293.08 401.3 291.12 394.86 295.54 389.79 293.58 383.36 298 378.29 296.04 371.85 300.46 366.79 298.49 360.35 302.92 355.28 300.95 348.84 305.38 343.77 303.41 337.34 307.83 332.26 305.87 325.83 310.29 320.76 308.33 314.32 312.75 309.25 310.79 302.81 315.21 297.74 313.25 291.3 317.67 286.23 316.42 278.76 322.72 282.95 329.15 280.99 334.22 285.41 340.66 283.45 345.73 287.87 352.16 285.91 357.23 290.33 363.66 288.37 368.73 292.79 375.17 290.82 380.24 295.25 386.67 293.28 391.75 297.7 398.18 295.74 403.25 300.17 409.69 298.2 414.76 302.62 421.2 300.66 426.27 305.08 432.7 303.12 437.78 307.54 444.21 305.58 449.29 310 456.76 308.75 452.56 315.05 454.53 321.48 450.11 326.55 452.07 332.99 447.65 338.06 449.61 344.49 445.19 349.56 447.15 356 442.73 361.06 444.69 367.5 440.27 372.57 442.23 379 437.81 384.08 439.78 390.51 435.35 395.58 437.32 402.02 432.89 407.09 434.86 413.53 430.44 418.6 432.4 425.03 427.98 430.11 429.94 436.54 425.49 441.76 426.77 449.09"/><g class="cls-7"><g class="cls-8"><line class="cls-9" x1="345.57" y1="468.11" x2="567.95" y2="468.11"/><line class="cls-9" x1="345.57" y1="420.29" x2="567.95" y2="420.29"/><line class="cls-9" x1="345.57" y1="372.46" x2="567.95" y2="372.46"/><line class="cls-9" x1="345.57" y1="444.2" x2="567.95" y2="444.2"/><line class="cls-9" x1="345.57" y1="396.38" x2="567.95" y2="396.38"/><line class="cls-9" x1="345.57" y1="348.55" x2="567.95" y2="348.55"/></g><rect class="cls-2" x="345.57" y="336.1" width="222.39" height="144.47"/></g><path class="cls-6" d="M526.46,483.66,516,479.51l-6,3.34-5.88-3.26-5.88,3.26-5.88-3.26-5.88,3.26-5.88-3.26-5.89,3.26-5.88-3.26-5.88,3.26L457,479.59l-5.88,3.26-5.88-3.26-5.88,3.26-5.89-3.26-5.88,3.26-5.89-3.26-5.88,3.26-5.88-3.26-5.89,3.26-5.88-3.26-5.89,3.26-6-3.34-10.46,4.14,4.14-10.45-3.34-6,3.26-5.88-3.26-5.89,3.26-5.88-3.26-5.88,3.58-6.44,6.27-1.92,5.06,4.42,6.44-2,5.07,4.42,6.43-2,5.07,4.42,6.28-1.91,3.21,2.13-.64-3.66,4.35-5.1-2-6.45,4.42-5.07-2-6.44,4.42-5.07-2-6.44,4.42-5.07-2-6.43,4.42-5.08-2-6.43,4.42-5.07-2-6.44,4.42-5.07-2-6.44,4.43-5.06-2-6.44,4.42-5.07-2-6.43,1-1.19,4.65-2.58,5.89,3.27,5.88-3.27,5.88,3.27,5.89-3.27,5.88,3.27,5.88-3.27,5.89,3.27,5.88-3.27,5.89,3.27,5.88-3.27,6,3.35L526.42,333l-4.14,10.45,3.35,6-3.27,5.88,3.27,5.88-3.27,5.88,3.27,5.89-3.27,5.88,3.27,5.88-3.27,5.88,3.27,5.88-3.27,5.89,3.27,5.88-3.27,5.88,3.27,5.89L522.36,426l3.27,5.88-3.27,5.89,3.27,5.88-3.27,5.88,3.27,5.89-3.27,5.88,3.26,5.87-3.33,6.17Zm-139.92-8.57,5.74,3.19,5.89-3.27,5.88,3.27,5.89-3.27,5.88,3.27L421.7,475l5.89,3.27,5.88-3.27,5.89,3.27,5.88-3.27,5.88,3.27L457,475l5.89,3.27,5.88-3.27,5.88,3.27,5.89-3.27,5.88,3.27L492.3,475l5.88,3.27,5.88-3.27,5.88,3.27,5.74-3.19,3.58,1.42-1.38-3.44,3.18-5.9-3.27-5.9,3.26-5.88-3.26-5.89,3.26-5.88-3.26-5.88,3.26-5.89L517.79,426l3.26-5.88-3.26-5.89,3.26-5.88-3.26-5.88,3.26-5.89-3.26-5.88,3.26-5.88-3.26-5.88,3.26-5.88-3.26-5.89,3.26-5.88-3.26-5.88,3.26-5.88-3.18-5.74,1.43-3.62-3.62,1.43-5.75-3.18-5.88,3.26-5.89-3.26-5.88,3.26-5.89-3.26-5.88,3.26-5.88-3.26-5.89,3.26-5.88-3.26L457,341.65l-5.89-3.26L450,339l1.83,6L447.43,350l2,6.43L445,361.54l2,6.44-4.42,5.07,2,6.43-4.42,5.07,2,6.44-4.42,5.07,2,6.44-4.42,5.07,2,6.43-4.42,5.08,2,6.43-4.42,5.07,2,6.43-4.55,5.34,1.92,11-9.39-6.26-6.59,2-5.07-4.42-6.44,2L397,442.21l-6.43,2-5.07-4.42-2.6.79-1.72,3.09,3.27,5.88-3.27,5.88,3.27,5.89-3.27,5.88,3.19,5.74-1.44,3.62Z"/><polygon class="cls-10" points="491.47 489.13 486.79 484.3 487.92 479.73 486.42 480.57 480.54 477.3 474.65 480.57 468.77 477.3 462.89 480.57 457 477.3 451.12 480.57 445.24 477.3 439.36 480.57 433.47 477.3 427.59 480.57 421.7 477.3 415.82 480.57 409.94 477.3 404.05 480.57 398.17 477.3 392.28 480.57 386.39 477.3 379.35 480.09 382.14 473.05 378.88 467.17 382.14 461.29 378.88 455.4 382.14 449.52 378.88 443.64 381.52 438.87 379.52 439.48 374.45 435.06 368.02 437.02 362.95 432.6 356.51 434.56 351.44 430.14 345.01 432.11 339.93 427.68 333.5 429.65 328.43 425.23 325.89 426 329.11 429.33 327.49 435.86 332.17 440.69 330.55 447.22 335.24 452.05 333.61 458.58 338.3 463.41 336.68 469.94 341.36 474.77 339.74 481.3 344.42 486.13 342.8 492.66 347.48 497.49 345.86 504.02 350.54 508.85 348.92 515.38 353.61 520.2 351.98 526.73 356.67 531.57 355.81 539.08 361.88 534.56 368.42 536.18 373.25 531.5 379.78 533.12 384.61 528.43 391.14 530.05 395.97 525.37 402.5 526.99 407.34 522.31 413.87 523.93 418.7 519.25 425.23 520.87 430.06 516.19 436.59 517.81 441.42 513.12 447.95 514.75 452.78 510.06 459.31 511.68 464.14 507 470.66 508.62 475.49 503.94 482.02 505.56 486.85 500.88 494.37 501.74 489.89 495.8 491.47 489.13"/></g></svg>