<svg xmlns="http://www.w3.org/2000/svg" version="1.1" id="Lager_1" x="0" y="0" viewBox="0 0 800 600" xml:space="preserve"><style>.st0{fill:#fff}</style><g id="free_shipping"><path class="st0" d="M318.1 355.4c18.5 0 33.6 15 33.6 33.6 0 18.5-15 33.6-33.6 33.6-18.5 0-33.6-15-33.6-33.6.1-18.5 15.1-33.5 33.6-33.6m0-4.6c-21.1 0-38.2 17.1-38.3 38.2 0 21.1 17.1 38.2 38.2 38.3 21.1 0 38.2-17.1 38.3-38.2.1-21.2-17-38.3-38.2-38.3zm305.8 20.1c10 0 18.1 8.1 18.1 18.1 0 10-8.1 18.1-18.1 18.1-10 0-18.1-8.1-18.1-18.1 0-10 8.1-18.1 18.1-18.1m0-1.5c-10.9 0-19.6 8.9-19.6 19.7 0 10.9 8.9 19.6 19.7 19.6 10.8 0 19.6-8.8 19.6-19.7 0-10.8-8.8-19.6-19.7-19.6z"/><path class="st0" d="M318.1 370.9c10 0 18.1 8.1 18.1 18.1 0 10-8.1 18.1-18.1 18.1-10 0-18.1-8.1-18.1-18.1.1-10 8.2-18.1 18.1-18.1m0-1.5c-10.9 0-19.7 8.8-19.7 19.6 0 10.9 8.8 19.7 19.6 19.7 10.9 0 19.7-8.8 19.7-19.6.1-10.9-8.7-19.7-19.6-19.7zm305.8-14c18.5 0 33.6 15 33.6 33.6 0 18.5-15 33.6-33.6 33.6-18.5 0-33.6-15-33.6-33.6 0-18.5 15.1-33.5 33.6-33.6m0-4.6c-21.1 0-38.2 17.1-38.3 38.2 0 21.1 17.1 38.2 38.2 38.3 21.1 0 38.2-17.1 38.3-38.2 0-21.2-17.1-38.3-38.2-38.3z"/><path class="st0" d="M585.9 177.4c4.8 0 9.4 2.5 11.9 6.6l53.8 85.6c.4.7 1.1 1.3 1.8 1.7l50.5 25.7c4.8 2.4 7.8 7.2 7.7 12.5v60.9c0 7.8-6.3 14.1-14.1 14.1h-19.7c-1.9-21.6-16.4-40.4-36.7-46.8-5.6-1.8-11.4-2.7-17.2-2.7-28.1.1-51.5 21.5-53.9 49.5H372c-1.9-21.6-16.4-40.4-36.7-46.8-5.6-1.8-11.4-2.7-17.2-2.7-28.1.1-51.5 21.5-53.9 49.5h-31.4c-7.8 0-14.1-6.3-14.1-14.1V191.5c0-7.8 6.3-14.1 14.1-14.1h353.1m0-4.6H232.8c-10.3 0-18.7 8.4-18.7 18.7v178.9c0 10.3 8.4 18.7 18.7 18.7h35.9c.1-27.3 22.2-49.4 49.5-49.5 5.4 0 10.7.8 15.8 2.5 20.3 6.4 33.7 25.7 33.7 47h206.8c.1-27.3 22.2-49.4 49.5-49.5 5.4 0 10.7.8 15.8 2.5 20.3 6.4 33.7 25.7 33.7 47h24.1c10.3 0 18.7-8.4 18.7-18.7v-60.9c0-7-4-13.5-10.2-16.7L655.5 267l-53.7-85.6c-3.5-5.4-9.4-8.7-15.9-8.6z"/><path d="M130.6 217.4h65.1m-83.6 30.4h83.6M91.6 278.2h104.1M71.8 308.7h123.9M42.1 339.1h153.6" fill="none" stroke="#fff" stroke-width="3" stroke-linecap="round" stroke-linejoin="round" stroke-dasharray="10,10"/><text transform="translate(266.219 299.985)" class="st0" font-size="103.843" font-family="HelveticaNeue-Light">FREE</text><path d="M585.7 200.9v62.9c0 3.3 2.7 5.9 5.9 6h41c3.3 0 6-2.7 5.9-6 0-1.1-.3-2.3-1-3.2l-41-62.9c-1.8-2.8-5.4-3.6-8.2-1.8-1.6 1.1-2.6 2.9-2.6 5z" fill="none" stroke="#fff" stroke-width="2" stroke-linejoin="round"/></g></svg>