<svg xmlns="http://www.w3.org/2000/svg" xmlns:xlink="http://www.w3.org/1999/xlink" version="1.1" id="Lager_1" x="0px" y="0px" viewBox="0 0 800 600" style="enable-background:new 0 0 800 600;" xml:space="preserve">
<style type="text/css">
	.st0{fill:none;stroke:#FFFFFF;stroke-width:3;stroke-linejoin:round;}
	.st1{fill:#FFFFFF;}
	.st2{fill:none;stroke:#FFFFFF;stroke-width:2;stroke-miterlimit:10;}
</style>
<title>TailorStore_</title>
<g id="delivery">
	<path class="st0" d="M369.8,105.5l-93.4,40.6c-7.3,3.2-11.9,10.3-12,18.2V542c0,7.1,5.8,12.9,12.9,12.9c0,0,0,0,0,0h287.1   c7.1,0,12.9-5.8,12.9-12.9V162.7c0-7.2-4.3-13.7-10.9-16.6L474,105.5l1.6-9.9c0,0,0-4.8-9.1-5.2C461.4,90.1,456,94,456,94   c-5.2-2.1-10.8-3.3-16.4-3.6c-8.7-0.2-13.5,3.4-13.5,3.4s-13.7-3.1-17.8-3.4c-4.1-0.3-9.6,3.4-9.6,3.4s-6.3-4.8-10.4-3.4   s-5.3,3.4-5.3,3.4s-3.5-3.4-6.2-3.4c-2.7,0-8.6,1.3-8.6,4.2C368.5,98.2,369,101.9,369.8,105.5z"/>
	<path class="st1" d="M379.5,99.8c0.1,1.9,0.3,3.9,0.4,5.8l0,0c-0.1,0.6-0.4,1.2-0.8,1.6c-0.4,0.4-0.8,0.8-1.2,1.2   c-0.8,0.7-1.7,1.4-2.5,2.1c-1.7,1.3-3.5,2.5-5.3,3.6c-3.6,2.3-7.3,4.5-11,6.6c-7.5,4.2-15,8.2-22.6,12.2l-22.7,11.8   c-3.8,2-7.5,4-11.2,6.1c-3.8,2-7.4,4.3-10.9,6.8c3.1-2.9,6.5-5.6,10.1-8c3.5-2.4,7.2-4.7,10.9-6.9c7.3-4.4,14.9-8.5,22.4-12.4   c7.5-4,15.2-7.8,22.7-11.8c3.8-1.9,7.6-3.9,11.3-5.9c1.9-1,3.7-2.1,5.5-3.1c0.9-0.5,1.8-1.1,2.6-1.7c0.4-0.3,0.8-0.6,1.2-1   c0.3-0.3,0.6-0.7,0.8-1.1l0,0C379.2,103.6,379.4,101.7,379.5,99.8z"/>
	<path class="st1" d="M464.8,99.8c0.2,2.1,0.3,4.3,0.4,6.4v-0.1c0.6,0.7,1.3,1.3,2.2,1.8c0.9,0.5,1.8,1,2.7,1.6   c1.8,1,3.7,1.9,5.5,2.9l11.2,5.6c7.4,3.8,14.8,7.6,22.1,11.7c7.3,4.1,14.4,8.4,21.3,13.3c6.8,4.8,13.5,10.1,18.7,16.8   c-3-2.9-6.2-5.6-9.6-8c-3.4-2.4-6.8-4.7-10.3-6.9c-7-4.4-14.2-8.5-21.5-12.4l-21.9-12.1c-3.6-2-7.3-4.1-10.9-6.2   c-1.8-1.1-3.6-2.2-5.3-3.3c-0.9-0.6-1.7-1.2-2.6-1.9c-0.4-0.3-0.8-0.7-1.2-1c-0.5-0.4-0.8-0.9-1.1-1.4v-0.3   C464.5,104,464.7,101.9,464.8,99.8z"/>
	<path class="st1" d="M391.9,99.8l0.2,3.5l0.1,1.8v0.5c0,0.1,0,0.2,0,0.3c0,0.1-0.1,0.2-0.2,0.3c-0.2,0.3-0.4,0.5-0.6,0.7   c-1.6,1.8-3.2,3.5-4.8,5.2l-9.8,10.1c-6.6,6.7-13.1,13.4-19.6,20.2c-6.4,6.8-12.8,13.7-18.9,20.9c-3,3.6-6,7.2-8.8,10.9   c-2.9,3.7-5.5,7.6-7.9,11.7c3.9-8.6,8.9-16.7,14.8-24c5.8-7.5,11.9-14.7,18.5-21.5c6.5-6.8,13.2-13.5,20.2-19.9   c3.4-3.2,7-6.4,10.5-9.5c1.8-1.6,3.6-3.1,5.3-4.7l0.6-0.6l0.1-0.1c0,0.1,0,0,0,0v-0.5l0.1-1.8L391.9,99.8z"/>
	<path class="st1" d="M439.6,99.8l0.2,4.2v1c0,0.2,0.3,0.4,0.5,0.6c0.5,0.5,1.1,0.9,1.6,1.3c2.2,1.7,4.4,3.4,6.6,5   c4.4,3.4,8.8,6.8,13.1,10.3c8.7,7,17.1,14.2,25.2,21.8c8.2,7.6,15.9,15.6,23.1,24.1c7.3,8.4,13.7,17.6,18.8,27.5   c-6.1-9.2-13-17.9-20.6-25.9c-7.5-8.1-15.4-15.9-23.4-23.4c-8.1-7.5-16.3-14.9-24.6-22.2l-12.5-10.9c-2.1-1.9-4.2-3.7-6.2-5.6   c-0.5-0.5-1-0.9-1.6-1.5c-0.1-0.1-0.2-0.3-0.4-0.4c-0.1-0.1-0.1-0.2-0.2-0.3c0-0.1,0-0.3,0-0.4v-1L439.6,99.8z"/>
	<path class="st1" d="M408.3,99.8l0.2,3.1l0.1,1.6c0,0.3,0,0.5,0,0.8c0,0.1-0.1,0.2-0.1,0.3l-0.1,0.2l-0.2,0.4c-1,1.8-2,3.6-3.1,5.4   l-6.2,10.7c-4.1,7.2-8.2,14.3-12,21.6c-2,3.6-3.8,7.3-5.6,11c-1.8,3.7-3.5,7.4-5.2,11.2c-3.4,7.5-6.1,15.3-7.9,23.3   c0.7-8.3,2.6-16.4,5.7-24.2c3-7.8,6.4-15.4,10.4-22.7c3.9-7.3,8.2-14.5,12.7-21.4c2.2-3.5,4.7-6.9,7-10.3l3.6-5.1l0.2-0.3l0.1-0.2   l0,0c0-0.2,0-0.5,0-0.7l0.1-1.6L408.3,99.8z"/>
	<polygon class="st1" points="328.3,373.9 323.7,373.9 323.7,371.6 335.3,371.6 335.3,373.9 330.8,373.9 330.8,385.8 328.3,385.8     "/>
	<path class="st1" d="M342.8,371.4h2.3l6.2,14.3h-2.6l-1.4-3.4h-6.7l-1.5,3.4h-2.6L342.8,371.4z M346.4,380.1l-2.5-5.7l-2.4,5.7   H346.4z"/>
	<rect x="355.4" y="371.6" class="st1" width="2.5" height="14.3"/>
	<polygon class="st1" points="363.6,371.6 366.1,371.6 366.1,383.5 373.6,383.5 373.6,385.8 363.6,385.8  "/>
	<path class="st1" d="M375,378.7L375,378.7c0-4.1,3.3-7.4,7.5-7.4c4.1,0,7.4,3.3,7.4,7.4l0,0c0,4-3.2,7.3-7.2,7.4   c-0.1,0-0.2,0-0.3,0c-4,0.1-7.3-3-7.4-7C375,379,375,378.9,375,378.7 M387.3,378.8L387.3,378.8c0.1-2.7-2-5-4.7-5.1   c-0.1,0-0.1,0-0.2,0c-2.7,0-4.8,2.1-4.8,4.8c0,0.1,0,0.1,0,0.2l0,0c-0.1,2.7,2,5,4.7,5.1c0,0,0.1,0,0.1,0c2.7,0,4.8-2.1,4.8-4.8   C387.3,378.9,387.3,378.8,387.3,378.8"/>
	<path class="st1" d="M393.9,371.6h6.3c1.5-0.1,3,0.4,4.1,1.4c0.8,0.8,1.2,2,1.2,3.1l0,0c0.1,2.1-1.4,3.9-3.4,4.3l3.8,5.4h-3l-3.5-5   h-3.1v5H394L393.9,371.6z M400.2,378.6c1.8,0,2.9-0.9,2.9-2.4l0,0c0-1.6-1.1-2.4-3-2.4h-3.6v4.8L400.2,378.6z"/>
	<path class="st1" d="M438.8,383.7l1.6-1.8c1.2,1.2,2.8,1.8,4.5,1.9c1.6,0,2.5-0.7,2.5-1.8l0,0c0-1-0.6-1.6-3.2-2.2   c-3-0.7-4.7-1.6-4.7-4.2l0,0c0-2.4,2-4.1,4.9-4.1c1.9,0,3.7,0.6,5.2,1.8l-1.3,1.9c-1.1-0.9-2.5-1.4-3.9-1.5c-1.5,0-2.3,0.7-2.3,1.7   l0,0c0,1.1,0.7,1.6,3.4,2.2c3,0.7,4.6,1.8,4.6,4.2l0,0c0,2.7-2.1,4.2-5.1,4.2C442.6,386,440.5,385.2,438.8,383.7"/>
	<polygon class="st1" points="457,373.9 452.5,373.9 452.5,371.6 464.1,371.6 464.1,373.9 459.6,373.9 459.6,385.8 457,385.8  "/>
	<path class="st1" d="M466.3,378.7L466.3,378.7c0-4,3.2-7.3,7.2-7.4c0.1,0,0.2,0,0.2,0c4-0.1,7.3,3,7.4,7c0,0.1,0,0.2,0,0.3l0,0   c-0.2,4.1-3.7,7.3-7.8,7.1C469.6,385.6,466.5,382.5,466.3,378.7 M478.6,378.7L478.6,378.7c0.1-2.7-2-5-4.7-5.1c0,0-0.1,0-0.1,0   c-2.7,0-4.8,2.2-4.8,4.8c0,0.1,0,0.1,0,0.2l0,0c-0.1,2.7,2,5,4.7,5.1c0,0,0.1,0,0.1,0c2.7,0,4.8-2.1,4.8-4.8   C478.6,378.8,478.6,378.8,478.6,378.7"/>
	<path class="st1" d="M485.2,371.6h6.3c1.5-0.1,3,0.4,4.1,1.4c0.8,0.8,1.2,2,1.2,3.1l0,0c0.1,2.1-1.4,3.9-3.4,4.3l3.9,5.4h-3l-3.5-5   h-3.1v5h-2.5V371.6z M491.5,378.6c1.8,0,2.9-0.9,2.9-2.4l0,0c0-1.6-1.1-2.4-2.9-2.4h-3.6v4.8L491.5,378.6z"/>
	<polygon class="st1" points="501.6,371.6 512.2,371.6 512.2,373.8 504.1,373.8 504.1,377.5 511.2,377.5 511.2,379.7 504.1,379.7    504.1,383.5 512.2,383.5 512.2,385.8 501.6,385.8  "/>
	<path class="st1" d="M439.6,362.3c-1.3-1.4-3.4-1.6-4.8-0.3c-1.4,1-2.6,2.2-3.5,3.5c-1.7-0.5-3.3-1.1-4.8-1.9   c-7.3-3.7-12.2-1.2-13.5-0.4c-2.1,1.2-3.4,3.5-3.3,5.9c0.1,2.9,2.3,5.3,5.2,5.6c2.8,0.4,5.4-1.3,6.1-4c0.1-0.4-0.1-0.8-0.5-0.9   c0,0,0,0,0,0c-0.4-0.1-0.8,0.1-0.9,0.5c0,0,0,0,0,0c-0.5,2-2.5,3.3-4.5,3c-2.2-0.2-3.9-2-4-4.2c0-1.9,1-3.7,2.6-4.7   c3.6-2.3,8.6-1.3,12.1,0.5c1.5,0.8,3.1,1.4,4.7,1.9c-0.4,0.6-0.7,1.2-1.1,1.9v0.1c-1.9-0.3-3.9,0.4-5.2,1.7   c-2.1,1.8-2.4,4.9-0.7,7.1c0.2,0.3,0.5,0.6,0.8,0.9c-0.9,1.7-1.7,3.2-2.4,4.4c-1.5,3.1-3.8,5.7-6.5,7.7c-0.6-0.6-1.1-1.3-1.4-2.1   c-0.7-1.8-0.5-3.8,0.7-5.4c1-1.2,2.5-1.9,4-1.8c0.4,0,0.8-0.2,0.8-0.6c0-0.4-0.2-0.8-0.6-0.8c-2.1-0.1-4,0.7-5.3,2.3   c-1.5,1.9-1.8,4.5-0.9,6.7c0.3,0.9,0.8,1.7,1.5,2.4c-1.1,0.6-2.3,1-3.5,1.1c-2.9,0.3-5.8-1-7.6-3.4c-0.3-0.3-0.7-0.3-1-0.1   c-0.3,0.3-0.3,0.7-0.1,1l0,0c1.9,2.4,4.7,3.9,7.8,3.9c0.4,0,0.7,0,1.1,0c1.6-0.2,3.1-0.7,4.5-1.6c0.6,0.5,1.2,0.9,1.9,1.2   c1.5,0.7,3.1,1,4.7,1c1.5,0,3-0.3,4.4-0.8c2.8-1,4.9-3.3,5.6-6.2c0.4-2.5-0.5-5-2.4-6.6c-0.6-0.5-1.2-0.9-1.7-1.4   c-0.6-0.4-1.1-0.8-1.6-1.3c1.4-2.7,3-5.6,4.1-7.8l0,0c0.4,0.2,0.8,0.4,1.2,0.7c0.9,0.7,1.3,1.9,0.9,3c-0.4,1-1.3,1.7-2.4,1.7   c-0.4,0-0.7,0.3-0.7,0.7c0,0,0,0,0,0c0,0.4,0.4,0.7,0.7,0.7c0,0,0,0,0,0c1.7-0.1,3.2-1.2,3.7-2.8c0.6-1.6,0-3.5-1.3-4.5   c-0.4-0.4-0.9-0.7-1.5-0.9c0.4-0.7,0.8-1.4,1.2-2.1c3.5,0.7,5.6,0,6.8-1c1.3-0.7,1.7-2.4,1-3.7   C439.7,362.4,439.7,362.4,439.6,362.3 M426.7,380.7c0.6,0.4,1.1,0.9,1.6,1.3c1.6,1.3,2.3,3.3,2,5.3c-0.5,2.4-2.3,4.4-4.7,5.2   c-2.6,1-5.5,1-8-0.2c-0.4-0.2-0.9-0.4-1.3-0.7c2.8-2.1,5.1-4.8,6.7-8c0.6-1.1,1.4-2.6,2.2-4.1C425.8,380,426.2,380.3,426.7,380.7    M424.9,377.2l-0.3-0.4c-1.2-1.6-1-3.9,0.5-5.2c1-0.9,2.2-1.4,3.6-1.4C427.6,372.3,426.2,374.9,424.9,377.2 M437.9,365.1   c-1.5,1-3.3,1.3-5,0.8c0.8-1,1.7-2,2.8-2.7c0.8-0.8,2.1-0.8,2.9,0C438.9,363.7,438.7,364.4,437.9,365.1"/>
	<path class="st1" d="M513.7,372.2c0-0.4,0.1-0.7,0.3-1c0.2-0.3,0.5-0.6,0.8-0.8c0.3-0.2,0.7-0.3,1.1-0.3c0.4,0,0.8,0.1,1.1,0.3   c0.3,0.2,0.6,0.4,0.8,0.8c0.4,0.6,0.4,1.4,0,2.1c-0.2,0.3-0.5,0.6-0.8,0.8c-0.7,0.4-1.5,0.4-2.2,0c-0.3-0.2-0.6-0.4-0.8-0.8   C513.7,372.9,513.6,372.5,513.7,372.2 M514,372.2c0,0.3,0.1,0.6,0.2,0.9c0.2,0.3,0.4,0.5,0.7,0.6c0.3,0.2,0.6,0.2,0.9,0.2   c0.3,0,0.6-0.1,0.9-0.2c0.3-0.1,0.5-0.4,0.7-0.6c0.3-0.5,0.3-1.2,0-1.7c-0.2-0.3-0.4-0.5-0.7-0.6c-0.6-0.3-1.3-0.3-1.8,0   c-0.3,0.1-0.5,0.4-0.7,0.6C514.1,371.6,514,371.9,514,372.2 M516.7,371.7c0,0.3-0.2,0.6-0.4,0.6l0.7,1.1h-0.6l-0.6-0.9h-0.3v0.9   H515v-2.5h0.8c0.3,0,0.5,0,0.7,0.2C516.6,371.3,516.7,371.5,516.7,371.7 M515.5,372.1h0.2c0.1,0,0.2,0,0.3-0.1   c0.1-0.1,0.1-0.2,0.1-0.3c0-0.1,0-0.2-0.1-0.3c-0.1,0-0.2,0-0.3,0h-0.2V372.1z"/>
	<path class="st2" d="M231.4,69.7c0.9-16.6,16.4-27.4,32-29c20.2,0,29.6,18.7,37.3,35.8c12.4,26.5,45.1,23.3,68.5,25.9"/>
	<path class="st2" d="M368.8,99.8c-19.8-4.6-41.6-10.8-52.5-31c-7.8-15.6-14-35.8-32.7-38.9c-24.9-4.7-56,10.9-53.1,39.2"/>
	<path class="st1" d="M272.7,536.5c0.6-3.4,1.4-6.7,2.3-10c0.8-3.3,1.7-6.6,2.7-9.8c0.9-3.3,1.9-6.5,3.1-9.7   c1.2-3.2,2.3-6.4,3.7-9.6c-0.2,3.4-0.6,6.8-1.3,10.2c-0.6,3.4-1.5,6.7-2.4,9.9c-0.9,3.3-2.1,6.5-3.3,9.7   C276,530.5,274.5,533.5,272.7,536.5z"/>
	<path class="st1" d="M278.4,542c1-2,2.3-4,3.6-5.8c1.3-1.8,2.8-3.5,4.3-5.2c1.5-1.7,3.1-3.3,4.8-4.8c1.7-1.6,3.5-2.9,5.4-4.2   c-1.1,2-2.3,3.9-3.7,5.8c-1.3,1.8-2.8,3.6-4.3,5.2c-1.5,1.6-3.1,3.2-4.8,4.7C282.2,539.3,280.4,540.7,278.4,542z"/>
	<path class="st1" d="M291.6,545.9c2.6-0.9,5.2-1.7,7.9-2.2c2.7-0.5,5.3-1,8-1.3c2.7-0.3,5.4-0.5,8.1-0.6c2.7-0.1,5.5-0.1,8.2,0.2   c-2.6,0.9-5.2,1.7-7.9,2.2c-2.6,0.5-5.3,1-8,1.3c-2.7,0.3-5.4,0.5-8.1,0.6C297.1,546.2,294.3,546.2,291.6,545.9z"/>
	<path class="st1" d="M557,543.9c-3.1-0.4-6.1-1-9.1-1.8c-3-0.8-5.9-1.6-8.9-2.6c-2.9-1-5.8-2.1-8.6-3.3c-2.9-1.2-5.7-2.6-8.3-4.1   c3.1,0.4,6.1,1,9.1,1.8c3,0.8,5.9,1.7,8.8,2.7c2.9,1,5.8,2.1,8.6,3.3C551.5,541,554.3,542.4,557,543.9z"/>
	<path class="st1" d="M562.5,538c-2.2-2.2-4-4.7-5.6-7.3c-1.6-2.6-3.1-5.3-4.4-8c-1.3-2.8-2.5-5.6-3.6-8.4c-1.1-2.8-1.9-5.8-2.8-8.7   c1.9,2.4,3.6,5,5,7.8c1.5,2.7,2.8,5.4,4.2,8.1C557.8,526.7,560.2,532.2,562.5,538z"/>
	<path class="st1" d="M568.6,536.5c-0.9-3.2-1.6-6.4-2.1-9.7c-0.5-3.2-0.9-6.5-1.2-9.7c-0.3-3.3-0.5-6.5-0.5-9.8   c-0.1-3.3,0-6.6,0.4-9.9c0.9,3.2,1.6,6.4,2.1,9.6c0.5,3.2,0.9,6.5,1.2,9.7c0.3,3.3,0.5,6.5,0.5,9.8   C569.1,529.9,569,533.2,568.6,536.5z"/>
	<path class="st2" d="M235.6,79.9c-2.1-1.9-7.5-5.6-7-9.1c0.5-3.4,3.9-1.9,4.8-0.5c0.9,1.4-1.7,7.2-7,2.4c-3.8-3.4,5.8-8.4,3.9-1.2   c-0.5,1.9-5.1,8.2-7.7,8.4"/>
</g>
</svg>