<svg xmlns="http://www.w3.org/2000/svg" xmlns:xlink="http://www.w3.org/1999/xlink" version="1.1" id="Lager_1" x="0px" y="0px" viewBox="0 0 800 600" style="enable-background:new 0 0 800 600;" xml:space="preserve">
<style type="text/css">
	.st0{fill:#FFFFFF;}
	.st1{fill:none;stroke:#FFFFFF;stroke-width:3;stroke-linecap:round;stroke-linejoin:round;stroke-dasharray:10,10;}
	.st2{font-family:'HelveticaNeue-Light';}
	.st3{font-size:103.8428px;}
	.st4{fill:none;stroke:#FFFFFF;stroke-width:2;stroke-linejoin:round;}
</style>
<title>TailorStore_</title>
<g id="free_shipping">
	<path class="st0" d="M318.1,355.4c18.5,0,33.6,15,33.6,33.6c0,18.5-15,33.6-33.6,33.6c-18.5,0-33.6-15-33.6-33.6c0,0,0,0,0,0   C284.6,370.5,299.6,355.5,318.1,355.4 M318.1,350.8c-21.1,0-38.2,17.1-38.3,38.2c0,21.1,17.1,38.2,38.2,38.3   c21.1,0,38.2-17.1,38.3-38.2c0,0,0,0,0,0C356.4,367.9,339.3,350.8,318.1,350.8z"/>
	<path class="st0" d="M623.9,370.9c10,0,18.1,8.1,18.1,18.1c0,10-8.1,18.1-18.1,18.1c-10,0-18.1-8.1-18.1-18.1c0,0,0,0,0,0   C605.8,379,613.9,370.9,623.9,370.9 M623.9,369.4c-10.9,0-19.6,8.9-19.6,19.7c0,10.9,8.9,19.6,19.7,19.6c10.8,0,19.6-8.8,19.6-19.7   C643.6,378.2,634.8,369.4,623.9,369.4L623.9,369.4z"/>
	<path class="st0" d="M318.1,370.9c10,0,18.1,8.1,18.1,18.1c0,10-8.1,18.1-18.1,18.1c-10,0-18.1-8.1-18.1-18.1c0,0,0,0,0,0   C300.1,379,308.2,370.9,318.1,370.9 M318.1,369.4c-10.9,0-19.7,8.8-19.7,19.6c0,10.9,8.8,19.7,19.6,19.7c10.9,0,19.7-8.8,19.7-19.6   c0,0,0,0,0,0C337.8,378.2,329,369.4,318.1,369.4z"/>
	<path class="st0" d="M623.9,355.4c18.5,0,33.6,15,33.6,33.6c0,18.5-15,33.6-33.6,33.6c-18.5,0-33.6-15-33.6-33.6c0,0,0,0,0,0   C590.3,370.5,605.4,355.5,623.9,355.4 M623.9,350.8c-21.1,0-38.2,17.1-38.3,38.2c0,21.1,17.1,38.2,38.2,38.3   c21.1,0,38.2-17.1,38.3-38.2c0,0,0,0,0,0C662.1,367.9,645,350.8,623.9,350.8z"/>
	<path class="st0" d="M585.9,177.4c4.8,0,9.4,2.5,11.9,6.6l53.8,85.6c0.4,0.7,1.1,1.3,1.8,1.7l50.5,25.7c4.8,2.4,7.8,7.2,7.7,12.5   v60.9c0,7.8-6.3,14.1-14.1,14.1h-19.7c-1.9-21.6-16.4-40.4-36.7-46.8c-5.6-1.8-11.4-2.7-17.2-2.7c-28.1,0.1-51.5,21.5-53.9,49.5   H372c-1.9-21.6-16.4-40.4-36.7-46.8c-5.6-1.8-11.4-2.7-17.2-2.7c-28.1,0.1-51.5,21.5-53.9,49.5h-31.4c-7.8,0-14.1-6.3-14.1-14.1   V191.5c0-7.8,6.3-14.1,14.1-14.1L585.9,177.4 M585.9,172.8H232.8c-10.3,0-18.7,8.4-18.7,18.7c0,0,0,0,0,0v178.9   c0,10.3,8.4,18.7,18.7,18.7h35.9c0.1-27.3,22.2-49.4,49.5-49.5c5.4,0,10.7,0.8,15.8,2.5c20.3,6.4,33.7,25.7,33.7,47h206.8   c0.1-27.3,22.2-49.4,49.5-49.5c5.4,0,10.7,0.8,15.8,2.5c20.3,6.4,33.7,25.7,33.7,47h24.1c10.3,0,18.7-8.4,18.7-18.7l0,0v-60.9   c0-7-4-13.5-10.2-16.7L655.5,267l-53.7-85.6C598.3,176,592.4,172.7,585.9,172.8L585.9,172.8z"/>
	<line class="st1" x1="130.6" y1="217.4" x2="195.7" y2="217.4"/>
	<line class="st1" x1="112.1" y1="247.8" x2="195.7" y2="247.8"/>
	<line class="st1" x1="91.6" y1="278.2" x2="195.7" y2="278.2"/>
	<line class="st1" x1="71.8" y1="308.7" x2="195.7" y2="308.7"/>
	<line class="st1" x1="42.1" y1="339.1" x2="195.7" y2="339.1"/>
	<text transform="matrix(1 0 0 1 266.2185 299.9852)" class="st0 st2 st3">FREE</text>
	<path class="st4" d="M585.7,200.9v62.9c0,3.3,2.7,5.9,5.9,6h41c3.3,0,6-2.7,5.9-6c0-1.1-0.3-2.3-1-3.2l-41-62.9   c-1.8-2.8-5.4-3.6-8.2-1.8C586.7,197,585.7,198.8,585.7,200.9z"/>
</g>
</svg>