<svg xmlns="http://www.w3.org/2000/svg" version="1.1" id="Lager_1" x="0" y="0" viewBox="0 0 800 600" xml:space="preserve"><style>.st1{fill:#fff}.st2{fill:none;stroke:#fff;stroke-width:2;stroke-miterlimit:10}</style><g id="delivery"><path d="M369.8 105.5l-93.4 40.6c-7.3 3.2-11.9 10.3-12 18.2V542c0 7.1 5.8 12.9 12.9 12.9 0 0 0 0 0 0h287.1c7.1 0 12.9-5.8 12.9-12.9V162.7c0-7.2-4.3-13.7-10.9-16.6L474 105.5l1.6-9.9s0-4.8-9.1-5.2C461.4 90.1 456 94 456 94c-5.2-2.1-10.8-3.3-16.4-3.6-8.7-.2-13.5 3.4-13.5 3.4s-13.7-3.1-17.8-3.4c-4.1-.3-9.6 3.4-9.6 3.4s-6.3-4.8-10.4-3.4-5.3 3.4-5.3 3.4-3.5-3.4-6.2-3.4-8.6 1.3-8.6 4.2c.3 3.6.8 7.3 1.6 10.9z" fill="none" stroke="#fff" stroke-width="3" stroke-linejoin="round"/><path class="st1" d="M379.5 99.8c.1 1.9.3 3.9.4 5.8-.1.6-.4 1.2-.8 1.6l-1.2 1.2c-.8.7-1.7 1.4-2.5 2.1-1.7 1.3-3.5 2.5-5.3 3.6-3.6 2.3-7.3 4.5-11 6.6-7.5 4.2-15 8.2-22.6 12.2l-22.7 11.8c-3.8 2-7.5 4-11.2 6.1-3.8 2-7.4 4.3-10.9 6.8 3.1-2.9 6.5-5.6 10.1-8 3.5-2.4 7.2-4.7 10.9-6.9 7.3-4.4 14.9-8.5 22.4-12.4 7.5-4 15.2-7.8 22.7-11.8 3.8-1.9 7.6-3.9 11.3-5.9 1.9-1 3.7-2.1 5.5-3.1.9-.5 1.8-1.1 2.6-1.7.4-.3.8-.6 1.2-1 .3-.3.6-.7.8-1.1 0-2.1.2-4 .3-5.9zm85.3 0c.2 2.1.3 4.3.4 6.4v-.1c.6.7 1.3 1.3 2.2 1.8.9.5 1.8 1 2.7 1.6 1.8 1 3.7 1.9 5.5 2.9l11.2 5.6c7.4 3.8 14.8 7.6 22.1 11.7 7.3 4.1 14.4 8.4 21.3 13.3 6.8 4.8 13.5 10.1 18.7 16.8-3-2.9-6.2-5.6-9.6-8-3.4-2.4-6.8-4.7-10.3-6.9-7-4.4-14.2-8.5-21.5-12.4l-21.9-12.1c-3.6-2-7.3-4.1-10.9-6.2-1.8-1.1-3.6-2.2-5.3-3.3-.9-.6-1.7-1.2-2.6-1.9-.4-.3-.8-.7-1.2-1-.5-.4-.8-.9-1.1-1.4v-.3c0-2.3.2-4.4.3-6.5zm-72.9 0l.2 3.5.1 1.8v.8c0 .1-.1.2-.2.3-.2.3-.4.5-.6.7-1.6 1.8-3.2 3.5-4.8 5.2l-9.8 10.1c-6.6 6.7-13.1 13.4-19.6 20.2-6.4 6.8-12.8 13.7-18.9 20.9-3 3.6-6 7.2-8.8 10.9-2.9 3.7-5.5 7.6-7.9 11.7 3.9-8.6 8.9-16.7 14.8-24 5.8-7.5 11.9-14.7 18.5-21.5 6.5-6.8 13.2-13.5 20.2-19.9 3.4-3.2 7-6.4 10.5-9.5 1.8-1.6 3.6-3.1 5.3-4.7l.6-.6.1-.1c0 .1 0 0 0 0v-.5l.1-1.8.2-3.5zm47.7 0l.2 4.2v1c0 .2.3.4.5.6.5.5 1.1.9 1.6 1.3 2.2 1.7 4.4 3.4 6.6 5 4.4 3.4 8.8 6.8 13.1 10.3 8.7 7 17.1 14.2 25.2 21.8 8.2 7.6 15.9 15.6 23.1 24.1 7.3 8.4 13.7 17.6 18.8 27.5-6.1-9.2-13-17.9-20.6-25.9-7.5-8.1-15.4-15.9-23.4-23.4-8.1-7.5-16.3-14.9-24.6-22.2l-12.5-10.9c-2.1-1.9-4.2-3.7-6.2-5.6-.5-.5-1-.9-1.6-1.5-.1-.1-.2-.3-.4-.4-.1-.1-.1-.2-.2-.3V104l.4-4.2zm-31.3 0l.2 3.1.1 1.6v.8c0 .1-.1.2-.1.3l-.1.2-.2.4c-1 1.8-2 3.6-3.1 5.4l-6.2 10.7c-4.1 7.2-8.2 14.3-12 21.6-2 3.6-3.8 7.3-5.6 11-1.8 3.7-3.5 7.4-5.2 11.2-3.4 7.5-6.1 15.3-7.9 23.3.7-8.3 2.6-16.4 5.7-24.2 3-7.8 6.4-15.4 10.4-22.7 3.9-7.3 8.2-14.5 12.7-21.4 2.2-3.5 4.7-6.9 7-10.3l3.6-5.1.2-.3.1-.2v-.7l.1-1.6.3-3.1zm-80 274.1h-4.6v-2.3h11.6v2.3h-4.5v11.9h-2.5zm14.5-2.5h2.3l6.2 14.3h-2.6l-1.4-3.4h-6.7l-1.5 3.4h-2.6l6.3-14.3zm3.6 8.7l-2.5-5.7-2.4 5.7h4.9zm9-8.5h2.5v14.3h-2.5zm8.2 0h2.5v11.9h7.5v2.3h-10zm11.4 7.1c0-4.1 3.3-7.4 7.5-7.4 4.1 0 7.4 3.3 7.4 7.4 0 4-3.2 7.3-7.2 7.4h-.3c-4 .1-7.3-3-7.4-7v-.4m12.3.1c.1-2.7-2-5-4.7-5.1h-.2c-2.7 0-4.8 2.1-4.8 4.8v.2c-.1 2.7 2 5 4.7 5.1h.1c2.7 0 4.8-2.1 4.8-4.8.1-.1.1-.2.1-.2m6.6-7.2h6.3c1.5-.1 3 .4 4.1 1.4.8.8 1.2 2 1.2 3.1.1 2.1-1.4 3.9-3.4 4.3l3.8 5.4h-3l-3.5-5h-3.1v5H394l-.1-14.2zm6.3 7c1.8 0 2.9-.9 2.9-2.4 0-1.6-1.1-2.4-3-2.4h-3.6v4.8h3.7zm38.6 5.1l1.6-1.8c1.2 1.2 2.8 1.8 4.5 1.9 1.6 0 2.5-.7 2.5-1.8 0-1-.6-1.6-3.2-2.2-3-.7-4.7-1.6-4.7-4.2 0-2.4 2-4.1 4.9-4.1 1.9 0 3.7.6 5.2 1.8l-1.3 1.9c-1.1-.9-2.5-1.4-3.9-1.5-1.5 0-2.3.7-2.3 1.7 0 1.1.7 1.6 3.4 2.2 3 .7 4.6 1.8 4.6 4.2 0 2.7-2.1 4.2-5.1 4.2-2.4 0-4.5-.8-6.2-2.3m18.2-9.8h-4.5v-2.3h11.6v2.3h-4.5v11.9H457zm9.3 4.8c0-4 3.2-7.3 7.2-7.4h.2c4-.1 7.3 3 7.4 7v.3c-.2 4.1-3.7 7.3-7.8 7.1-3.7-.1-6.8-3.2-7-7m12.3 0c.1-2.7-2-5-4.7-5.1h-.1c-2.7 0-4.8 2.2-4.8 4.8v.2c-.1 2.7 2 5 4.7 5.1h.1c2.7 0 4.8-2.1 4.8-4.8v-.2m6.6-7.1h6.3c1.5-.1 3 .4 4.1 1.4.8.8 1.2 2 1.2 3.1.1 2.1-1.4 3.9-3.4 4.3l3.9 5.4h-3l-3.5-5h-3.1v5h-2.5v-14.2zm6.3 7c1.8 0 2.9-.9 2.9-2.4 0-1.6-1.1-2.4-2.9-2.4h-3.6v4.8h3.6zm10.1-7h10.6v2.2h-8.1v3.7h7.1v2.2h-7.1v3.8h8.1v2.3h-10.6z"/><path class="st1" d="M439.6 362.3c-1.3-1.4-3.4-1.6-4.8-.3-1.4 1-2.6 2.2-3.5 3.5-1.7-.5-3.3-1.1-4.8-1.9-7.3-3.7-12.2-1.2-13.5-.4-2.1 1.2-3.4 3.5-3.3 5.9.1 2.9 2.3 5.3 5.2 5.6 2.8.4 5.4-1.3 6.1-4 .1-.4-.1-.8-.5-.9-.4-.1-.8.1-.9.5-.5 2-2.5 3.3-4.5 3-2.2-.2-3.9-2-4-4.2 0-1.9 1-3.7 2.6-4.7 3.6-2.3 8.6-1.3 12.1.5 1.5.8 3.1 1.4 4.7 1.9-.4.6-.7 1.2-1.1 1.9v.1c-1.9-.3-3.9.4-5.2 1.7-2.1 1.8-2.4 4.9-.7 7.1.2.3.5.6.8.9-.9 1.7-1.7 3.2-2.4 4.4-1.5 3.1-3.8 5.7-6.5 7.7-.6-.6-1.1-1.3-1.4-2.1-.7-1.8-.5-3.8.7-5.4 1-1.2 2.5-1.9 4-1.8.4 0 .8-.2.8-.6 0-.4-.2-.8-.6-.8-2.1-.1-4 .7-5.3 2.3-1.5 1.9-1.8 4.5-.9 6.7.3.9.8 1.7 1.5 2.4-1.1.6-2.3 1-3.5 1.1-2.9.3-5.8-1-7.6-3.4-.3-.3-.7-.3-1-.1-.3.3-.3.7-.1 1 1.9 2.4 4.7 3.9 7.8 3.9h1.1c1.6-.2 3.1-.7 4.5-1.6.6.5 1.2.9 1.9 1.2 1.5.7 3.1 1 4.7 1 1.5 0 3-.3 4.4-.8 2.8-1 4.9-3.3 5.6-6.2.4-2.5-.5-5-2.4-6.6-.6-.5-1.2-.9-1.7-1.4-.6-.4-1.1-.8-1.6-1.3 1.4-2.7 3-5.6 4.1-7.8.4.2.8.4 1.2.7.9.7 1.3 1.9.9 3-.4 1-1.3 1.7-2.4 1.7-.4 0-.7.3-.7.7 0 .4.4.7.7.7 1.7-.1 3.2-1.2 3.7-2.8.6-1.6 0-3.5-1.3-4.5-.4-.4-.9-.7-1.5-.9l1.2-2.1c3.5.7 5.6 0 6.8-1 1.3-.7 1.7-2.4 1-3.7-.3.3-.3.3-.4.2m-12.9 18.4c.6.4 1.1.9 1.6 1.3 1.6 1.3 2.3 3.3 2 5.3-.5 2.4-2.3 4.4-4.7 5.2-2.6 1-5.5 1-8-.2-.4-.2-.9-.4-1.3-.7 2.8-2.1 5.1-4.8 6.7-8 .6-1.1 1.4-2.6 2.2-4.1.6.5 1 .8 1.5 1.2m-1.8-3.5l-.3-.4c-1.2-1.6-1-3.9.5-5.2 1-.9 2.2-1.4 3.6-1.4-1.1 2.1-2.5 4.7-3.8 7m13-12.1c-1.5 1-3.3 1.3-5 .8.8-1 1.7-2 2.8-2.7.8-.8 2.1-.8 2.9 0 .3.5.1 1.2-.7 1.9m75.8 7.1c0-.4.1-.7.3-1 .2-.3.5-.6.8-.8.3-.2.7-.3 1.1-.3.4 0 .8.1 1.1.3.3.2.6.4.8.8.4.6.4 1.4 0 2.1-.2.3-.5.6-.8.8-.7.4-1.5.4-2.2 0-.3-.2-.6-.4-.8-.8-.3-.4-.4-.8-.3-1.1m.3 0c0 .3.1.6.2.9.2.3.4.5.7.6.3.2.6.2.9.2.3 0 .6-.1.9-.2.3-.1.5-.4.7-.6.3-.5.3-1.2 0-1.7-.2-.3-.4-.5-.7-.6-.6-.3-1.3-.3-1.8 0-.3.1-.5.4-.7.6-.1.2-.2.5-.2.8m2.7-.5c0 .3-.2.6-.4.6l.7 1.1h-.6l-.6-.9h-.3v.9h-.5v-2.5h.8c.3 0 .5 0 .7.2.1.2.2.4.2.6m-1.2.4h.2c.1 0 .2 0 .3-.1.1-.1.1-.2.1-.3 0-.1 0-.2-.1-.3h-.5v.7z"/><path class="st2" d="M231.4 69.7c.9-16.6 16.4-27.4 32-29 20.2 0 29.6 18.7 37.3 35.8 12.4 26.5 45.1 23.3 68.5 25.9"/><path class="st2" d="M368.8 99.8c-19.8-4.6-41.6-10.8-52.5-31-7.8-15.6-14-35.8-32.7-38.9-24.9-4.7-56 10.9-53.1 39.2"/><path class="st1" d="M272.7 536.5c.6-3.4 1.4-6.7 2.3-10 .8-3.3 1.7-6.6 2.7-9.8.9-3.3 1.9-6.5 3.1-9.7 1.2-3.2 2.3-6.4 3.7-9.6-.2 3.4-.6 6.8-1.3 10.2-.6 3.4-1.5 6.7-2.4 9.9-.9 3.3-2.1 6.5-3.3 9.7-1.5 3.3-3 6.3-4.8 9.3zm5.7 5.5c1-2 2.3-4 3.6-5.8 1.3-1.8 2.8-3.5 4.3-5.2 1.5-1.7 3.1-3.3 4.8-4.8 1.7-1.6 3.5-2.9 5.4-4.2-1.1 2-2.3 3.9-3.7 5.8-1.3 1.8-2.8 3.6-4.3 5.2s-3.1 3.2-4.8 4.7c-1.5 1.6-3.3 3-5.3 4.3zm13.2 3.9c2.6-.9 5.2-1.7 7.9-2.2 2.7-.5 5.3-1 8-1.3 2.7-.3 5.4-.5 8.1-.6 2.7-.1 5.5-.1 8.2.2-2.6.9-5.2 1.7-7.9 2.2-2.6.5-5.3 1-8 1.3-2.7.3-5.4.5-8.1.6-2.7.1-5.5.1-8.2-.2zm265.4-2c-3.1-.4-6.1-1-9.1-1.8s-5.9-1.6-8.9-2.6c-2.9-1-5.8-2.1-8.6-3.3-2.9-1.2-5.7-2.6-8.3-4.1 3.1.4 6.1 1 9.1 1.8s5.9 1.7 8.8 2.7c2.9 1 5.8 2.1 8.6 3.3 2.9 1.1 5.7 2.5 8.4 4zm5.5-5.9c-2.2-2.2-4-4.7-5.6-7.3-1.6-2.6-3.1-5.3-4.4-8-1.3-2.8-2.5-5.6-3.6-8.4-1.1-2.8-1.9-5.8-2.8-8.7 1.9 2.4 3.6 5 5 7.8 1.5 2.7 2.8 5.4 4.2 8.1 2.5 5.2 4.9 10.7 7.2 16.5zm6.1-1.5c-.9-3.2-1.6-6.4-2.1-9.7-.5-3.2-.9-6.5-1.2-9.7-.3-3.3-.5-6.5-.5-9.8-.1-3.3 0-6.6.4-9.9.9 3.2 1.6 6.4 2.1 9.6.5 3.2.9 6.5 1.2 9.7.3 3.3.5 6.5.5 9.8.1 3.4 0 6.7-.4 10z"/><path class="st2" d="M235.6 79.9c-2.1-1.9-7.5-5.6-7-9.1.5-3.4 3.9-1.9 4.8-.5.9 1.4-1.7 7.2-7 2.4-3.8-3.4 5.8-8.4 3.9-1.2-.5 1.9-5.1 8.2-7.7 8.4"/></g></svg>