<svg xmlns="http://www.w3.org/2000/svg" viewBox="0 0 800 600"><defs><style>.cls-1,.cls-10,.cls-11,.cls-12,.cls-13,.cls-14,.cls-2,.cls-3,.cls-5,.cls-6,.cls-7,.cls-8,.cls-9{fill:none;stroke:#fff;}.cls-1,.cls-10,.cls-11,.cls-12,.cls-13,.cls-14,.cls-2,.cls-5,.cls-6,.cls-7,.cls-8,.cls-9{stroke-miterlimit:10;}.cls-1,.cls-3{stroke-width:4px;}.cls-10,.cls-11,.cls-12,.cls-13,.cls-14,.cls-2,.cls-5,.cls-6,.cls-7,.cls-8,.cls-9{stroke-width:2px;}.cls-3{stroke-linejoin:round;}.cls-4{fill:#fff;}.cls-5{stroke-dasharray:12.26 12.26;}.cls-6{stroke-dasharray:11.59 11.59;}.cls-7{stroke-dasharray:11.93 11.93;}.cls-8{stroke-dasharray:11.59 11.59;}.cls-9{stroke-dasharray:12.02 12.02;}.cls-10{stroke-dasharray:6.37 6.37;}.cls-11{stroke-dasharray:6.4 6.4;}.cls-12{stroke-dasharray:11.95 11.95;}.cls-13{stroke-dasharray:11.74 11.74;}.cls-14{stroke-dasharray:12;}</style></defs><title>TailorStore_</title><g id="Layer_5_copy" data-name="Layer 5 copy"><path class="cls-1" d="M479.06,525.91c-18.54,6.62-61.59,6.62-61.59,6.62h-.3s-43.05,0-61.6-6.62-58.94-45-58.94-45c34.44,36.43,17.88,60.93,58.94,78.82,19.06,5,35.11,8.61,61.9,8.61s50,.66,73.22-15.24c36.43-27.15,21.19-45.7,47.32-72.19C538,480.89,497.6,519.29,479.06,525.91Z"/><path class="cls-1" d="M235.69,488.82,235,453.71s-3.12-3.08-3.31-9.93c-.83-29.18,0-109.72,0-139.75,0-37.09,32.45-184.79,43.71-198.7,7.65-9.44,57.1-27.73,88.08-38.51"/><path class="cls-1" d="M549.93,488.82l-.66-38.42s-2.94-4.46-3.31-13.24c-1.27-29.68-6.24-73.59-8.61-102a487.41,487.41,0,0,0-8-56.3s-.66,50.34,1.32,82.79S538,480.87,538,480.87s-40.4,38.41-58.95,45-61.59,6.62-61.59,6.62h-.3s-43.05,0-61.6-6.62-58.94-45-58.94-45,5.3-86.77,7.28-119.22,1.33-82.79,1.33-82.79a487.41,487.41,0,0,0-7.95,56.3c-2.37,28.41-7.34,72.32-8.61,102-.38,8.78-3.31,13.24-3.31,13.24l-.66,38.42"/><path class="cls-1" d="M473.07,67.5c31.06,10.85,78.65,28.58,86.13,37.83,11.26,13.91,43.72,161.61,43.72,198.7,0,30,.82,110.57,0,139.75-.2,6.85-3.31,9.93-3.31,9.93l-.67,35.11"/><path class="cls-1" d="M374.12,40.53s6.18-8.83,42.39-8.83S462,40.53,462,40.53"/><path class="cls-2" d="M450.6,62.22a103.75,103.75,0,0,0-34.53-6.12,93,93,0,0,0-31.14,5.4"/><path class="cls-1" d="M386.47,106.05c6.79-13.78,16-34.34,25.32-35.8-8.86-1.77-19.24-3.93-26.86-8.75-6.82-4.31-11.44-10.76-10.81-21-4.93,3.76-10.61,26.29-10.61,26.29C367,83.76,376.28,91.54,386.47,106.05Z"/><path class="cls-1" d="M450.25,106.05c-6.79-13.78-16-34.34-25.32-35.8,16.78-3.35,39-8.08,37.67-29.72,5.7,2.78,10.61,26.29,10.61,26.29C469.68,83.76,460.44,91.54,450.25,106.05Z"/><path class="cls-3" d="M550,489.15c-1-6,49-.66,49-.66S551.29,497.1,550,489.15Z"/><path class="cls-3" d="M285,489.15c1-6-49-.66-49-.66S283.7,497.1,285,489.15Z"/><circle class="cls-2" cx="416.95" cy="78.3" r="3.94"/><circle class="cls-2" cx="416.95" cy="148.56" r="3.94"/><circle class="cls-2" cx="416.95" cy="217.71" r="3.94"/><circle class="cls-2" cx="416.95" cy="286.85" r="3.94"/><circle class="cls-2" cx="416.95" cy="356" r="3.94"/><circle class="cls-2" cx="416.95" cy="425.14" r="3.94"/><circle class="cls-2" cx="416.95" cy="494.37" r="3.94"/><path class="cls-4" d="M275.43,105.33a6.39,6.39,0,0,1,2.82,0c.48.08.93.24,1.39.35l1.34.5a28.48,28.48,0,0,1,4.95,2.82,53.66,53.66,0,0,1,8.34,7.73c.66.69,1.24,1.44,1.86,2.15s1.22,1.44,1.79,2.23a44.06,44.06,0,0,1,3.11,4.83,69.15,69.15,0,0,1,4.54,10.47,126.27,126.27,0,0,1,5.2,22,160,160,0,0,1,1.86,22.49c-.44-3.74-.9-7.46-1.5-11.16s-1.2-7.4-1.89-11.07a157.63,157.63,0,0,0-5.56-21.65,71.75,71.75,0,0,0-4.31-10.22,41.33,41.33,0,0,0-2.86-4.69c-.51-.76-1.11-1.48-1.68-2.21s-1.12-1.49-1.73-2.19a60.91,60.91,0,0,0-7.76-8,26.82,26.82,0,0,0-4.58-3.12l-1.26-.59c-.44-.14-.87-.33-1.31-.44A6.16,6.16,0,0,0,275.43,105.33Z"/><path class="cls-4" d="M559.37,105.33a6.14,6.14,0,0,0-2.75.29c-.45.11-.88.3-1.31.44l-1.26.59a26.82,26.82,0,0,0-4.58,3.12,59.66,59.66,0,0,0-7.76,8c-.61.7-1.15,1.46-1.73,2.19s-1.17,1.45-1.68,2.21a42.9,42.9,0,0,0-2.87,4.69,72.92,72.92,0,0,0-4.31,10.22,159.06,159.06,0,0,0-5.55,21.65c-.7,3.67-1.34,7.36-1.89,11.07s-1.06,7.42-1.51,11.16A163.07,163.07,0,0,1,524,158.44a127.18,127.18,0,0,1,5.2-22,71.22,71.22,0,0,1,4.54-10.47,44.15,44.15,0,0,1,3.12-4.83c.57-.79,1.18-1.5,1.79-2.23s1.2-1.46,1.85-2.15a54.58,54.58,0,0,1,8.34-7.73,28.57,28.57,0,0,1,5-2.82l1.34-.5c.46-.11.91-.27,1.38-.35A6.39,6.39,0,0,1,559.37,105.33Z"/><path class="cls-2" d="M285,108.93c13.34-12,47.42-23.24,80.6-34.57"/><path class="cls-2" d="M469.35,74.36C502.53,85.69,536.61,97,550,108.93"/><path class="cls-2" d="M420.89,70.25H417c-6.29,0-8.81,8.35-7.79,17.87a194.81,194.81,0,0,0,31.3-1.33"/><line class="cls-2" x1="408.94" y1="88.28" x2="408.94" y2="532.53"/><path class="cls-2" d="M408.94,88.28a47.71,47.71,0,0,1-12.68-1.49"/><path class="cls-4" d="M305.24,278.86a50.87,50.87,0,0,1,.05-10.54,89.24,89.24,0,0,1,1.7-10.41q1.15-5.13,2.7-10.15l1.57-5a33.82,33.82,0,0,0,1.37-5,20.71,20.71,0,0,1-.42,5.27q-.45,2.59-1,5.15l-2.26,10.2c-.76,3.38-1.49,6.78-2.11,10.18S305.67,275.37,305.24,278.86Z"/><path class="cls-4" d="M529.57,278.86c-.43-3.49-1-6.91-1.59-10.33s-1.34-6.8-2.11-10.18l-2.26-10.2q-.55-2.55-1-5.15a21.17,21.17,0,0,1-.42-5.27,33.82,33.82,0,0,0,1.37,5l1.57,5q1.54,5,2.7,10.15a85.21,85.21,0,0,1,1.7,10.41A50.18,50.18,0,0,1,529.57,278.86Z"/><path class="cls-2" d="M235,453.71c20-2.51,42-6.6,49.68,0"/><path class="cls-2" d="M549.63,453.71c11.07-6.16,30.2-3.44,50,0"/><line class="cls-2" x1="549.63" y1="473.55" x2="549.54" y2="467.55"/><path class="cls-5" d="M549.37,455.3l-.34-24s-2.68-4.91-3-14.57c-1.15-32.63-5.68-80.91-7.83-112.16-1.6-23.11-6.46-48.05-9.57-62.3"/><path class="cls-2" d="M527.27,236.3c-.86-3.71-1.4-5.83-1.4-5.83s-.22,2.18-.57,6"/><path class="cls-6" d="M524.27,248c-2,23.24-5,64.2-3.74,88.72,1.45,28.63,4.84,107.07,6.12,137"/><path class="cls-2" d="M526.9,479.45c.17,3.83.26,6,.26,6s-1.89,1.27-5,3.31"/><path class="cls-7" d="M512.13,495.21c-12.14,7.71-28.77,17.86-38.62,22.11-16.88,7.28-56.06,7.28-56.06,7.28h-.27s-39.18,0-56.05-7.28c-11.3-4.87-31.51-17.5-43.64-25.32"/><path class="cls-2" d="M312.48,488.75c-3.11-2-5-3.31-5-3.31l.25-6"/><path class="cls-8" d="M308.23,467.88c1.43-33.19,4.51-104.24,5.88-131.18,1.35-26.7-2.21-72.9-4.1-94.49"/><path class="cls-2" d="M309.5,236.44c-.35-3.79-.56-6-.56-6s-.61,2.1-1.57,5.79"/><path class="cls-9" d="M304.54,247.94A354.68,354.68,0,0,0,296.49,300c-2.16,31.24-6.68,79.53-7.84,112.16-.34,9.66-3,14.57-3,14.57L285.21,457"/><line class="cls-2" x1="285.12" y1="462.97" x2="285.04" y2="468.97"/><path class="cls-2" d="M235,480.87l3-.38"/><path class="cls-10" d="M244.32,479.64c13.41-1.8,26.64-3.46,34.85-1.4"/><path class="cls-2" d="M282.17,479.28a10.54,10.54,0,0,1,2.54,1.59"/><path class="cls-2" d="M549.63,480.87a23.26,23.26,0,0,1,2.71-1.28"/><path class="cls-11" d="M558.51,477.92c9.58-1.66,22-.22,35,1.91"/><path class="cls-2" d="M596.65,480.36l3,.51"/><path class="cls-2" d="M473.07,67.5l5.62,2.11"/><path class="cls-12" d="M489.82,73.89c27,10.53,58,23.85,63.7,31.44C564,119.24,594.35,266.94,594.35,304c0,30,.77,110.57,0,139.75-.19,6.85-3.1,9.93-3.1,9.93l-.41,23.11"/><line class="cls-2" x1="590.74" y1="482.82" x2="590.63" y2="488.82"/><path class="cls-2" d="M363.51,67.5l-5.62,2.11"/><path class="cls-12" d="M346.75,73.89c-27,10.53-57.95,23.85-63.69,31.44-10.52,13.91-40.83,161.61-40.83,198.7,0,30-.77,110.57,0,139.75.18,6.85,3.09,9.93,3.09,9.93l.41,23.11"/><line class="cls-2" x1="245.84" y1="482.82" x2="245.94" y2="488.82"/><path class="cls-2" d="M296.63,480.87q2.36,2.06,4.42,4.07"/><path class="cls-13" d="M308.94,493.62c18.48,23.2,11.66,39.74,46.63,52.31,19.06,4.11,35.11,7.1,61.9,7.1s50,.55,73.22-12.57C522.3,521,515,506.91,529.61,489.22"/><path class="cls-2" d="M533.57,484.9c1.33-1.32,2.8-2.66,4.44-4"/><path class="cls-14" d="M375.58,50.81S387.29,40.53,417,40.53s44.19,10.28,44.19,10.28"/><path class="cls-14" d="M307.92,258.3s30.86,20.63,101,19.52S527.85,263,527.85,263"/><path class="cls-14" d="M342.67,82.25s-7.58,187.19-7.58,222.86,7.58,207.16,7.58,207.16"/></g></svg>