<svg xmlns="http://www.w3.org/2000/svg" xmlns:xlink="http://www.w3.org/1999/xlink" version="1.1" id="Lager_1" x="0px" y="0px" viewBox="0 0 800 600" style="enable-background:new 0 0 800 600;" xml:space="preserve">
<style type="text/css">
	.st0{fill:#FFFFFF;}
	.st1{fill:none;stroke:#FFFFFF;stroke-width:4;stroke-miterlimit:10;}
</style>
<title>TailorStore_</title>
<g id="Layer_2">
	<path class="st0" d="M400,188.8c25.5-0.1,50.2,8.3,70.4,23.9c18.2,14,31.9,33.2,39.3,55c-3.1,0.7-6.3,1.3-9.5,1.6   c-1.9,0.2-3.8,0.3-5.7,0.3c-11.4,0-22.8-3.7-36.9-11.9c-3.6-2.1-7.3-4.4-10.9-6.5c-2.7-1.7-5.6-3.4-8.4-5.1   c-9.5-5.7-20.3-8.6-31.3-8.6c-4.5,0-9,0.5-13.5,1.3c-4,0.8-8,1.9-11.7,3.4v-0.1l-0.8-3.5l-3.6-0.6c-0.9-0.2-1.9-0.4-3-0.7   c-2.3-0.7-4.6-1.1-7-1.2c-1.1,0-2.1,0.1-3.2,0.4c-7,1.6-13.6,4.3-19.8,7.8c-4.1,2.5-8,5.3-11.7,8.3c-3,2.3-5.8,4.5-8.8,6.4   c-2.6,1.8-5.6,2.9-8.8,3.2c-4.3,0.2-8.9,0.3-14.5,0.3c-2.8,0-5.7,0-8.5-0.1c8-20.3,21.4-37.9,38.9-51   C351,196.7,375.2,188.7,400,188.8 M306.9,342.2c-1.5,2.3-2.2,5-2.2,7.8c-0.3,7.8,5.7,14.3,13.4,14.7c0.4,0,0.8,0,1.1,0l0,0   c1.3,0,2.5-0.2,3.8-0.5c0.8,8.6,8.1,15.3,16.8,15.2h0.2c2.6,0,5.2-0.6,7.5-1.8c1.9,6.4,7.6,10.8,14.2,11.2h0.1   c4.8,0,9.3-2.4,12.1-6.3c3.7,5.3,8.2,6.5,11.3,6.5c2.1,0,4.2-0.5,6.2-1.4c3.6-1.4,6.5-4.3,7.8-8c3.5,3.9,8.4,6.2,13.6,6.4   c3.2,0,6.3-1,8.8-2.9c2.9-2.2,4.8-5.5,5.3-9.1c2.9,2.6,6.7,4,10.6,4c4.6,0.1,9-2.1,11.8-5.8c1.2-1.6,2.1-3.4,2.6-5.3   c3,2.7,6.9,4.2,11,4.2c7,0,13.1-4.7,15.1-11.4c0.6-1.9,0.8-3.9,0.8-5.9c9.9-4.7,19.7-8.9,30.1-10.3c-7.6,20.9-21,39.2-38.6,52.8   c-41.5,31.7-99.2,31.7-140.6-0.1c-17.8-13.7-31.2-32.2-38.8-53.4h3.7c4.1,0,8.2-0.2,12.3-0.7 M400,183.4   c-52.7,0-99.4,34.1-115.3,84.4c5.3,0.1,10.7,0.2,16,0.2c4.9,0,9.8-0.1,14.7-0.3c4.1-0.4,8-1.8,11.5-4.1c7-4.5,13.1-10.4,20.3-14.6   c5.7-3.3,11.9-5.7,18.4-7.2c0.6-0.1,1.2-0.2,1.9-0.2c2.9,0,6.1,1.3,9.1,1.8l0.5,2.3l-6.9,4.7c-9.4,6.3-19.1,12.3-28.1,19.1   c-6.3,4.8-5,12.4,2.2,16.2c4.6,2.6,9.8,4,15.1,4.2c2.5,0,5.1-0.4,7.5-1.2c8.2-2.7,16.2-5.9,23.9-9.7c3.1-1.6,6.4-2.6,9.9-2.7   c4.4,0,8.6,1.9,11.6,5.1c11.9,12,23.5,24.3,34.9,36.9c8,8.9,15.3,18.4,23,27.5c3.1,3.3,4.2,8,2.9,12.4c-1.2,4.5-5.3,7.6-9.9,7.5   c-3.1,0-6-1.3-8.2-3.6c-3.8-3.9-6.7-8.9-10.1-13.2c-4.5-5.8-9.2-11.5-13.9-17.2l-2.3,1.4c1.2,2.3,2.6,4.6,4.1,6.8   c4,5.3,8.4,10.3,12.1,15.9c2.7,4.1,3.5,9,0.3,13.4c-1.8,2.4-4.6,3.7-7.5,3.7c-3.3,0-6.4-1.6-8.5-4.1c-6.9-8.3-12.9-17.4-19.3-26.1   c-2-3.1-4.6-5.8-7.7-7.9c0.3,1.6,0.7,3.1,1.4,4.6c4.7,7.2,9.5,14.3,14.3,21.5c4.9,7.4,5.2,14.7,0.7,18.1c-1.6,1.2-3.6,1.9-5.6,1.9   c-4.1,0-8.6-2.6-12.1-7.6c-5.1-7.3-9.2-15.2-14-22.7c-1.9-2.7-4-5.4-6.2-7.9l-2.3,1.6c2.3,3.9,4.6,7.7,6.8,11.6   c2.9,5.3,6.1,10.6,8.5,16.1c2.1,4.7,0.8,8.8-4.3,11c-1.3,0.6-2.6,0.9-4,0.9c-3,0-5.3-1.8-7.3-4.8c-0.8-1.2-1.4-2.4-2-3.7   c-7.9-16.5-7.3-13.4-20.7-15.2c-4.9-10.7-6.8-14-12.9-14c-3.3,0.2-6.6,0.6-9.8,1.3c-4-8.6-10.4-11.1-18.3-11.1   c-2.5,0-5,0.2-7.5,0.6c-4,0.5-8.1,0.7-12.2,0.7c-3.6,0-7.3-0.1-11.1-0.2c18.1,64.3,85,101.8,149.3,83.6   c40.4-11.4,72-42.9,83.5-83.2h-0.4c-14.3,0-27,5.4-40,11.6c-1.9-2.6-3.9-4.8-5.5-7.3c-15.5-24.1-36-43.7-56.1-63.7   c-4.6-4.5-9.5-7.1-15-7.1c-3.2,0.1-6.3,0.8-9.2,2.2c-8.3,3.9-16.8,7.5-25.2,11c-2.4,1-5.1,1.6-7.7,1.6c-4.3-0.1-8.5-1.5-12-4.1   c-3.2-2.2-4.9-5.6-1.1-8.2c16.1-11.1,30.2-25.7,50.6-29.6c4.1-0.8,8.3-1.2,12.5-1.2c10.1-0.1,19.9,2.6,28.6,7.8   c6.5,3.8,12.8,7.8,19.3,11.6c12.4,7.3,25.4,12.7,39.6,12.7c2.1,0,4.2-0.1,6.3-0.4c5.3-0.7,10.5-1.7,15.7-3   C501.8,219.4,454.2,183.4,400,183.4L400,183.4z M319.3,359.3c-4.8,0.3-9-3.4-9.2-8.2c0-0.4,0-0.7,0-1.1c-0.1-5.2,4.1-9.4,9.2-9.5   c0,0,0.1,0,0.1,0l0,0c5.2,0.2,9.3,4.3,9.5,9.5C328.8,355.3,324.5,359.4,319.3,359.3L319.3,359.3z M339.8,374.1   c-6.3,0-11.5-5.2-11.5-11.5c0,0,0,0,0-0.1c-0.1-6.8,4.6-12,10.9-12.3h0.5c6.2,0.1,11.3,5,11.7,11.2c0.5,6.5-4.3,12.1-10.8,12.6   C340.4,374.1,340.1,374.1,339.8,374.1L339.8,374.1z M361.8,383.5L361.8,383.5c-5.3-0.4-9.3-4.5-9.6-9.7c0.2-5.2,4.5-9.2,9.7-9.1   h0.1c5-0.2,9.2,3.8,9.4,8.8c0,0.2,0,0.4,0,0.6C371.2,379.2,367,383.3,361.8,383.5L361.8,383.5z"/>
	<path class="st1" d="M541,305.2c0,4.6-5.6,8.8-6,13.4c-0.4,4.5,4.2,9.8,3.3,14.2s-7.2,7.6-8.5,11.9c-1.3,4.3,2.2,10.4,0.5,14.6   c-1.7,4.2-8.5,6-10.7,10c-2.2,4,0.1,10.7-2.4,14.4c-2.5,3.7-9.5,4.2-12.4,7.7c-2.9,3.5-1.9,10.4-5.1,13.6s-10.1,2.3-13.6,5.2   s-3.9,9.9-7.7,12.4s-10.4,0.3-14.4,2.4s-5.8,8.9-10,10.7c-4.2,1.8-10.2-1.8-14.6-0.5c-4.4,1.3-7.4,7.6-11.9,8.5   c-4.5,0.9-9.7-3.7-14.2-3.3c-4.5,0.4-8.7,6-13.3,6c-4.6,0-8.8-5.6-13.3-6c-4.5-0.4-9.8,4.2-14.2,3.3c-4.4-0.9-7.6-7.2-11.9-8.5   c-4.3-1.3-10.4,2.2-14.6,0.5c-4.2-1.7-6-8.5-10-10.7c-4-2.2-10.7,0.1-14.4-2.4c-3.7-2.5-4.2-9.5-7.7-12.4c-3.5-2.9-10.4-2-13.6-5.2   s-2.3-10.1-5.2-13.6c-2.9-3.5-9.9-4-12.4-7.7c-2.5-3.7-0.3-10.4-2.4-14.4c-2.1-4-8.9-5.8-10.7-10c-1.8-4.2,1.8-10.2,0.5-14.6   s-7.6-7.4-8.5-11.9c-0.9-4.5,3.8-9.7,3.3-14.2c-0.4-4.5-6-8.7-6-13.4s5.5-8.8,6-13.3c0.4-4.5-4.2-9.8-3.3-14.2s7.2-7.6,8.5-11.9   s-2.2-10.4-0.5-14.6c1.7-4.2,8.5-6,10.7-10c2.2-4-0.1-10.7,2.4-14.4s9.5-4.2,12.4-7.7c2.9-3.5,2-10.4,5.2-13.6   c3.2-3.2,10.1-2.2,13.6-5c3.5-2.8,3.9-9.9,7.7-12.4c3.8-2.5,10.4-0.3,14.4-2.4s5.8-8.9,10-10.7c4.2-1.8,10.2,1.8,14.6,0.5   s7.4-7.6,11.9-8.5c4.5-0.9,9.7,3.7,14.2,3.3c4.5-0.4,8.7-6,13.3-6s8.8,5.5,13.3,6c4.4,0.4,9.8-4.2,14.2-3.3s7.6,7.2,11.9,8.5   c4.3,1.3,10.4-2.2,14.6-0.5c4.2,1.7,6,8.5,10,10.7c4,2.2,10.7-0.1,14.4,2.4c3.7,2.5,4.2,9.5,7.7,12.4c3.5,2.9,10.4,2,13.6,5.2   s2.3,10.1,5.2,13.6s9.8,4,12.4,7.7c2.5,3.7,0.3,10.4,2.4,14.4c2.1,4,8.9,5.8,10.7,10c1.8,4.2-1.8,10.2-0.5,14.6   c1.3,4.4,7.6,7.4,8.5,11.9c0.9,4.5-3.7,9.7-3.3,14.2C535.5,296.5,541,300.6,541,305.2z"/>
</g>
</svg>