<svg xmlns="http://www.w3.org/2000/svg" xmlns:xlink="http://www.w3.org/1999/xlink" version="1.1" id="Layer_1" x="0px" y="0px" width="1228.734px" height="432.337px" viewBox="0 0 1228.734 432.337" enable-background="new 0 0 1228.734 432.337" xml:space="preserve">
<g id="brand">
	<path id="XMLID_1775_" d="M774.053,429.885V401.26c0-10.779-6.867-18.033-17.938-18.128c-5.817-0.096-11.829,1.717-16.03,8.11   c-3.149-5.055-8.109-8.11-15.073-8.11c-4.865,0-9.638,1.431-13.354,6.771v-5.628h-9.923v45.604h10.018v-25.284   c0-7.915,4.39-12.119,11.161-12.119c6.582,0,9.923,4.295,9.923,12.021v25.38h10.019v-25.284c0-7.915,4.578-12.119,11.161-12.119   c6.771,0,10.018,4.295,10.018,12.021v25.379h10.017C774.053,429.878,774.053,429.885,774.053,429.885z M922.315,384.276h-16.219   v-13.833h-10.019v13.833h-9.255v9.062h9.255v20.801c0,10.591,4.101,16.884,15.838,16.884c4.295,0,9.255-1.336,12.402-3.529   l-2.86-8.488c-2.956,1.718-6.202,2.577-8.775,2.577c-4.96,0-6.583-3.057-6.583-7.633v-20.606h16.219L922.315,384.276   L922.315,384.276z M1006.945,383.132c-5.723,0-9.447,2.672-12.021,6.681v-5.534h-9.829v45.604h9.923v-25.572   c0-7.54,3.246-11.734,9.734-11.734c2.004,0,4.1,0.286,6.2,1.145l3.052-9.354C1011.811,383.517,1008.948,383.132,1006.945,383.132   L1006.945,383.132z M879.003,387.906c-4.773-3.149-11.356-4.772-18.606-4.772c-11.546,0-18.985,5.532-18.985,14.596   c0,7.443,5.533,12.024,15.739,13.452l4.674,0.665c5.438,0.763,8.016,2.192,8.016,4.773c0,3.529-3.63,5.536-10.397,5.536   c-6.866,0-11.829-2.192-15.17-4.772l-4.673,7.729c5.438,4.008,12.306,5.917,19.751,5.917c13.169,0,20.801-6.201,20.801-14.886   c0-8.018-6.009-12.21-15.937-13.645l-4.673-0.665c-4.295-0.573-7.729-1.431-7.729-4.48c0-3.337,3.245-5.344,8.685-5.344   c5.816,0,11.448,2.191,14.215,3.91L879.003,387.906z M1144.807,383.132c-5.723,0-9.447,2.672-12.021,6.681v-5.534h-9.828v45.604   h9.921v-25.572c0-7.54,3.244-11.734,9.732-11.734c2.007,0,4.101,0.286,6.201,1.145l3.051-9.354   C1149.672,383.517,1146.813,383.132,1144.807,383.132L1144.807,383.132z M1016.959,407.081c0,13.834,9.637,23.948,24.329,23.948   c6.866,0,11.448-1.528,16.411-5.438l-4.772-8.018c-3.723,2.673-7.633,4.101-11.929,4.101c-7.915-0.096-13.737-5.823-13.737-14.597   c0-8.772,5.815-14.498,13.737-14.596c4.296,0,8.206,1.431,11.929,4.1l4.772-8.017c-4.96-3.911-9.538-5.438-16.411-5.438   C1026.599,383.132,1016.959,393.248,1016.959,407.081L1016.959,407.081z M1109.886,407.081v-22.805h-9.923v5.533   c-3.15-4.101-7.916-6.68-14.406-6.68c-12.784,0-22.802,10.018-22.802,23.944c0,13.932,10.018,23.948,22.802,23.948   c6.487,0,11.259-2.577,14.406-6.68v5.536h9.923V407.081z M1072.964,407.081c0-8.01,5.243-14.596,13.834-14.596   c8.205,0,13.737,6.296,13.737,14.596c0,8.305-5.536,14.598-13.737,14.598C1078.214,421.677,1072.964,415.094,1072.964,407.081   L1072.964,407.081z M953.231,383.132c-13.354,0-22.707,9.732-22.707,23.944c0,14.505,9.732,23.948,23.372,23.948   c6.866,0,13.168-1.72,18.701-6.396l-4.865-7.345c-3.816,3.05-8.686,4.773-13.263,4.773c-6.396,0-12.212-2.956-13.646-11.161h33.868   c0.095-1.238,0.189-2.48,0.189-3.816C974.79,392.866,966.015,383.132,953.231,383.132L953.231,383.132z M953.038,392.005   c6.396,0,10.496,4.009,11.546,11.066h-23.662C941.973,396.49,945.98,392.005,953.038,392.005L953.038,392.005z M1201.954,407.081   v-41.118h-9.923v23.852c-3.149-4.102-7.915-6.681-14.406-6.681c-12.783,0-22.802,10.018-22.802,23.944   c0,13.932,10.019,23.948,22.802,23.948c6.487,0,11.257-2.577,14.406-6.68v5.536h9.923V407.081L1201.954,407.081z M1165.032,407.081   c0-8.01,5.244-14.596,13.834-14.596c8.205,0,13.738,6.296,13.738,14.596c0,8.305-5.533,14.598-13.738,14.598   C1170.28,421.677,1165.032,415.094,1165.032,407.081L1165.032,407.081z M829.965,407.081v-22.805h-9.923v5.533   c-3.15-4.101-7.916-6.68-14.406-6.68c-12.784,0-22.803,10.018-22.803,23.944c0,13.932,10.019,23.948,22.803,23.948   c6.487,0,11.259-2.577,14.406-6.68v5.536h9.923C829.965,429.882,829.965,407.081,829.965,407.081z M793.04,407.081   c0-8.01,5.243-14.596,13.833-14.596c8.206,0,13.739,6.296,13.739,14.596c0,8.305-5.533,14.598-13.739,14.598   C798.29,421.677,793.04,415.094,793.04,407.081z M1218.496,423.275c0.639,0,1.235,0.119,1.798,0.357   c0.559,0.233,1.047,0.561,1.468,0.97c0.418,0.415,0.747,0.891,0.988,1.446c0.236,0.549,0.362,1.141,0.362,1.757   c0,0.622-0.119,1.208-0.362,1.754c-0.238,0.546-0.574,1.023-0.988,1.437c-0.421,0.415-0.909,0.732-1.468,0.979   c-0.562,0.24-1.159,0.362-1.798,0.362c-0.651,0-1.26-0.118-1.83-0.362c-0.566-0.241-1.055-0.564-1.473-0.979   s-0.745-0.891-0.984-1.437c-0.238-0.546-0.363-1.135-0.363-1.754s0.119-1.208,0.363-1.757c0.236-0.551,0.566-1.031,0.984-1.446   c0.414-0.415,0.905-0.732,1.473-0.97C1217.237,423.394,1217.845,423.275,1218.496,423.275z M1218.496,431.34   c0.488,0,0.943-0.096,1.37-0.277c0.428-0.185,0.793-0.439,1.11-0.757c0.32-0.32,0.567-0.692,0.75-1.122   c0.181-0.432,0.271-0.892,0.271-1.379c0-0.488-0.091-0.949-0.271-1.379c-0.18-0.432-0.43-0.807-0.75-1.122   c-0.32-0.32-0.689-0.568-1.11-0.751c-0.421-0.184-0.875-0.271-1.37-0.271c-0.493,0-0.96,0.092-1.394,0.271   c-0.434,0.179-0.812,0.431-1.126,0.751c-0.32,0.318-0.567,0.691-0.75,1.122c-0.18,0.43-0.271,0.891-0.271,1.379   c0,0.487,0.093,0.947,0.271,1.379c0.18,0.43,0.43,0.805,0.75,1.122c0.32,0.316,0.696,0.572,1.126,0.757   C1217.532,431.246,1218.004,431.34,1218.496,431.34z M1218.763,425.685c0.54,0,0.958,0.119,1.251,0.363   c0.293,0.239,0.438,0.566,0.438,0.984c0,0.349-0.115,0.637-0.352,0.862c-0.231,0.229-0.563,0.366-0.994,0.418l1.379,1.59h-1.08   l-1.273-1.577h-0.415v1.577h-0.903v-4.21h1.952L1218.763,425.685L1218.763,425.685z M1217.72,426.475v1.122h1.03   c0.234,0,0.428-0.049,0.567-0.144c0.145-0.092,0.21-0.234,0.21-0.428c0-0.183-0.065-0.323-0.21-0.418   c-0.144-0.091-0.33-0.14-0.567-0.14h-1.03V426.475z"/>
</g>
<g id="mark">
	<rect x="875.705" y="36.726" fill="#F85F10" width="150.288" height="270.074"/>
	<path id="XMLID_330_" fill="#E9131A" d="M885.25,171.756c0-54.791,25.653-103.584,65.599-135.033   C921.636,13.723,884.771,0,844.704,0c-94.854,0-171.745,76.899-171.745,171.756s76.895,171.758,171.745,171.758   c40.066,0,76.932-13.722,106.145-36.725C910.901,275.347,885.25,226.55,885.25,171.756z"/>
	<path fill="#F39E1C" d="M1228.734,171.756c0,94.857-76.894,171.758-171.745,171.758c-40.065,0-76.931-13.722-106.144-36.725   c39.947-31.451,65.599-80.246,65.599-135.033c0-54.789-25.65-103.586-65.599-135.034c29.213-23,66.077-36.723,106.144-36.723   C1151.844,0.003,1228.734,76.902,1228.734,171.756z M1212.351,278.19v-5.53h2.229v-1.125h-5.677v1.125h2.229v5.53H1212.351z    M1223.375,278.19v-6.668h-1.741l-2.005,4.588l-2.005-4.588h-1.74v6.668h1.229v-5.026l1.876,4.334h1.272l1.876-4.35v5.042h1.229   v0.003h0.009L1223.375,278.19L1223.375,278.19z"/>
</g>
<g id="Mark">
	<g>
		<g>
			<g>
				<g>
					<g>
						<defs>
							<path id="SVGID_1_" d="M307.865,181.508c-0.338,26.775,23.865,41.721,42.097,50.604c18.73,9.116,25.024,14.96,24.953,23.11         c-0.143,12.477-14.942,17.981-28.798,18.195c-24.167,0.377-38.218-6.523-49.39-11.742l-8.705,40.737         c11.208,5.166,31.962,9.671,53.483,9.867c50.516,0,83.563-24.938,83.746-63.599c0.193-49.067-67.872-51.784-67.408-73.718         c0.16-6.649,6.508-13.744,20.412-15.551c6.882-0.914,25.883-1.609,47.425,8.314l8.457-39.416         c-11.584-4.217-26.477-8.255-45.009-8.255C341.577,120.054,308.136,145.329,307.865,181.508 M515.376,123.449         c-9.223,0-16.997,5.382-20.469,13.642l-72.162,172.3h50.479l10.047-27.761h61.688l5.827,27.761h44.492l-38.825-185.941         H515.376 M522.439,173.68l14.568,69.82h-39.898L522.439,173.68 M246.659,123.449l-39.791,185.94h48.103l39.771-185.94         H246.659 M175.5,123.449l-50.069,126.561l-20.253-107.607c-2.378-12.012-11.763-18.948-22.184-18.948H1.146L0,128.85         c16.802,3.646,35.896,9.526,47.458,15.817c7.079,3.847,9.1,7.205,11.422,16.34l38.361,148.381h50.837l77.938-185.942H175.5"/>
						</defs>
						<clipPath id="SVGID_2_">
							<use xlink:href="#SVGID_1_" overflow="visible"/>
						</clipPath>
						
							<linearGradient id="Gradient_1_" gradientUnits="userSpaceOnUse" x1="284.0654" y1="802.8198" x2="284.6338" y2="802.8198" gradientTransform="matrix(881.3924 -324.5972 324.5972 881.3924 -510911.625 -615086.3125)">
							<stop offset="0" style="stop-color:#222457"/>
							<stop offset="1" style="stop-color:#2A4D9C"/>
						</linearGradient>
						<path id="Gradient" clip-path="url(#SVGID_2_)" fill="url(#Gradient_1_)" d="M-62.337,143.011L524.19-72.992l133.433,362.325        L71.101,505.339"/>
					</g>
				</g>
			</g>
		</g>
	</g>
</g>
</svg>