<svg xmlns="http://www.w3.org/2000/svg" xmlns:xlink="http://www.w3.org/1999/xlink" width="1228.734" height="432.337"><path d="M774.053 429.885V401.26c0-10.779-6.867-18.033-17.938-18.128-5.817-.096-11.829 1.717-16.03 8.11-3.149-5.055-8.109-8.11-15.073-8.11-4.865 0-9.638 1.431-13.354 6.771v-5.628h-9.923v45.604h10.018v-25.284c0-7.915 4.39-12.119 11.161-12.119 6.582 0 9.923 4.295 9.923 12.021v25.38h10.019v-25.284c0-7.915 4.578-12.119 11.161-12.119 6.771 0 10.018 4.295 10.018 12.021v25.379h10.017a.06.06 0 0 1 .001.011zm148.262-45.609h-16.219v-13.833h-10.019v13.833h-9.255v9.062h9.255v20.801c0 10.591 4.101 16.884 15.838 16.884 4.295 0 9.255-1.336 12.402-3.529l-2.86-8.488c-2.956 1.718-6.202 2.577-8.775 2.577-4.96 0-6.583-3.057-6.583-7.633v-20.606h16.219l-.003-9.068zm84.63-1.144c-5.723 0-9.447 2.672-12.021 6.681v-5.534h-9.829v45.604h9.923v-25.572c0-7.54 3.246-11.734 9.734-11.734 2.004 0 4.1.286 6.2 1.145l3.052-9.354c-2.193-.851-5.056-1.236-7.059-1.236zm-127.942 4.774c-4.773-3.149-11.356-4.772-18.606-4.772-11.546 0-18.985 5.532-18.985 14.596 0 7.443 5.533 12.024 15.739 13.452l4.674.665c5.438.763 8.016 2.192 8.016 4.773 0 3.529-3.63 5.536-10.397 5.536-6.866 0-11.829-2.192-15.17-4.772l-4.673 7.729c5.438 4.008 12.306 5.917 19.751 5.917 13.169 0 20.801-6.201 20.801-14.886 0-8.018-6.009-12.21-15.937-13.645l-4.673-.665c-4.295-.573-7.729-1.431-7.729-4.48 0-3.337 3.245-5.344 8.685-5.344 5.816 0 11.448 2.191 14.215 3.91l4.289-8.014zm265.804-4.774c-5.723 0-9.447 2.672-12.021 6.681v-5.534h-9.828v45.604h9.921v-25.572c0-7.54 3.244-11.734 9.732-11.734 2.007 0 4.101.286 6.201 1.145l3.051-9.354c-2.191-.851-5.05-1.236-7.056-1.236zm-127.848 23.949c0 13.834 9.637 23.948 24.329 23.948 6.866 0 11.448-1.528 16.411-5.438l-4.772-8.018c-3.723 2.673-7.633 4.101-11.929 4.101-7.915-.096-13.737-5.823-13.737-14.597 0-8.772 5.815-14.498 13.737-14.596 4.296 0 8.206 1.431 11.929 4.1l4.772-8.017c-4.96-3.911-9.538-5.438-16.411-5.438-14.689.006-24.329 10.122-24.329 23.955zm92.927 0v-22.805h-9.923v5.533c-3.15-4.101-7.916-6.68-14.406-6.68-12.784 0-22.802 10.018-22.802 23.944 0 13.932 10.018 23.948 22.802 23.948 6.487 0 11.259-2.577 14.406-6.68v5.536h9.923v-22.796zm-36.922 0c0-8.01 5.243-14.596 13.834-14.596 8.205 0 13.737 6.296 13.737 14.596 0 8.305-5.536 14.598-13.737 14.598-8.584-.002-13.834-6.585-13.834-14.598zm-119.733-23.949c-13.354 0-22.707 9.732-22.707 23.944 0 14.505 9.732 23.948 23.372 23.948 6.866 0 13.168-1.72 18.701-6.396l-4.865-7.345c-3.816 3.05-8.686 4.773-13.263 4.773-6.396 0-12.212-2.956-13.646-11.161h33.868c.095-1.238.189-2.48.189-3.816-.09-14.213-8.865-23.947-21.649-23.947zm-.193 8.873c6.396 0 10.496 4.009 11.546 11.066h-23.662c1.051-6.581 5.058-11.066 12.116-11.066zm248.916 15.076v-41.118h-9.923v23.852c-3.149-4.102-7.915-6.681-14.406-6.681-12.783 0-22.802 10.018-22.802 23.944 0 13.932 10.019 23.948 22.802 23.948 6.487 0 11.257-2.577 14.406-6.68v5.536h9.923v-22.801zm-36.922 0c0-8.01 5.244-14.596 13.834-14.596 8.205 0 13.738 6.296 13.738 14.596 0 8.305-5.533 14.598-13.738 14.598-8.586-.002-13.834-6.585-13.834-14.598zm-335.067 0v-22.805h-9.923v5.533c-3.15-4.101-7.916-6.68-14.406-6.68-12.784 0-22.803 10.018-22.803 23.944 0 13.932 10.019 23.948 22.803 23.948 6.487 0 11.259-2.577 14.406-6.68v5.536h9.923v-22.796zm-36.925 0c0-8.01 5.243-14.596 13.833-14.596 8.206 0 13.739 6.296 13.739 14.596 0 8.305-5.533 14.598-13.739 14.598-8.583-.002-13.833-6.585-13.833-14.598zm425.456 16.194a4.67 4.67 0 0 1 3.266 1.327c.418.415.747.891.988 1.446a4.43 4.43 0 0 1 .362 1.757c0 .622-.119 1.208-.362 1.754a4.653 4.653 0 0 1-.988 1.437 4.837 4.837 0 0 1-1.468.979 4.523 4.523 0 0 1-1.798.362c-.651 0-1.26-.118-1.83-.362a4.602 4.602 0 0 1-2.457-2.416c-.238-.546-.363-1.135-.363-1.754s.119-1.208.363-1.757a4.535 4.535 0 0 1 .984-1.446 4.502 4.502 0 0 1 1.473-.97 4.701 4.701 0 0 1 1.83-.357zm0 8.065c.488 0 .943-.096 1.37-.277a3.522 3.522 0 0 0 1.86-1.879c.181-.432.271-.892.271-1.379a3.54 3.54 0 0 0-.271-1.379 3.38 3.38 0 0 0-.75-1.122 3.552 3.552 0 0 0-1.11-.751 3.372 3.372 0 0 0-1.37-.271c-.493 0-.96.092-1.394.271a3.469 3.469 0 0 0-1.876 1.873 3.54 3.54 0 0 0-.271 1.379c0 .487.093.947.271 1.379.18.43.43.805.75 1.122.32.316.696.572 1.126.757.43.183.902.277 1.394.277zm.267-5.655c.54 0 .958.119 1.251.363.293.239.438.566.438.984 0 .349-.115.637-.352.862-.231.229-.563.366-.994.418l1.379 1.59h-1.08l-1.273-1.577h-.415v1.577h-.903v-4.21h1.952l-.003-.007zm-1.043.79v1.122h1.03c.234 0 .428-.049.567-.144.145-.092.21-.234.21-.428 0-.183-.065-.323-.21-.418-.144-.091-.33-.14-.567-.14h-1.03v.008z"/><path fill="#F85F10" d="M875.705 36.726h150.288V306.8H875.705z"/><path fill="#E9131A" d="M885.25 171.756c0-54.791 25.653-103.584 65.599-135.033C921.636 13.723 884.771 0 844.704 0 749.85 0 672.959 76.899 672.959 171.756s76.895 171.758 171.745 171.758c40.066 0 76.932-13.722 106.145-36.725-39.948-31.442-65.599-80.239-65.599-135.033z"/><path fill="#F39E1C" d="M1228.734 171.756c0 94.857-76.894 171.758-171.745 171.758-40.065 0-76.931-13.722-106.144-36.725 39.947-31.451 65.599-80.246 65.599-135.033 0-54.789-25.65-103.586-65.599-135.034 29.213-23 66.077-36.723 106.144-36.723 94.855.004 171.745 76.903 171.745 171.757zm-16.383 106.434v-5.53h2.229v-1.125h-5.677v1.125h2.229v5.53h1.219zm11.024 0v-6.668h-1.741l-2.005 4.588-2.005-4.588h-1.74v6.668h1.229v-5.026l1.876 4.334h1.272l1.876-4.35v5.042h1.229v.003h.009v-.003z"/><defs><path id="a" d="M307.865 181.508c-.338 26.775 23.865 41.721 42.097 50.604 18.73 9.116 25.024 14.96 24.953 23.11-.143 12.477-14.942 17.981-28.798 18.195-24.167.377-38.218-6.523-49.39-11.742l-8.705 40.737c11.208 5.166 31.962 9.671 53.483 9.867 50.516 0 83.563-24.938 83.746-63.599.193-49.067-67.872-51.784-67.408-73.718.16-6.649 6.508-13.744 20.412-15.551 6.882-.914 25.883-1.609 47.425 8.314l8.457-39.416c-11.584-4.217-26.477-8.255-45.009-8.255-47.551 0-80.992 25.275-81.263 61.454m207.511-58.059c-9.223 0-16.997 5.382-20.469 13.642l-72.162 172.3h50.479l10.047-27.761h61.688l5.827 27.761h44.492L556.453 123.45h-41.077m7.063 50.23l14.568 69.82h-39.898l25.33-69.82m-275.78-50.231l-39.791 185.94h48.103l39.771-185.94h-48.083m-71.159 0L125.431 250.01l-20.253-107.607c-2.378-12.012-11.763-18.948-22.184-18.948H1.146L0 128.85c16.802 3.646 35.896 9.526 47.458 15.817 7.079 3.847 9.1 7.205 11.422 16.34l38.361 148.381h50.837l77.938-185.942H175.5"/></defs><clipPath id="b"><use xlink:href="#a" overflow="visible"/></clipPath><linearGradient id="c" gradientUnits="userSpaceOnUse" x1="284.065" y1="802.82" x2="284.634" y2="802.82" gradientTransform="rotate(-20.218 -1980456.128 1125300.731) scale(939.2635)"><stop offset="0" stop-color="#222457"/><stop offset="1" stop-color="#2a4d9c"/></linearGradient><path clip-path="url(#b)" fill="url(#c)" d="M-62.337 143.011L524.19-72.992l133.433 362.325L71.101 505.339"/></svg>